<?xml version="1.0" encoding="utf-8"?>
<!-- Generator: Adobe Illustrator 23.1.0, SVG Export Plug-In . SVG Version: 6.00 Build 0)  -->
<svg version="1.1" id="Layer_1" xmlns="http://www.w3.org/2000/svg" xmlns:xlink="http://www.w3.org/1999/xlink" x="0px" y="0px"
	 viewBox="0 0 260.9 182.5" style="enable-background:new 0 0 260.9 182.5;" xml:space="preserve">
<style type="text/css">
	.st0{fill:#FFFFFF;}
	.st1{enable-background:new    ;}
</style>
<g>
	<path class="st0" d="M199.8,21.7c0.5-0.9,0.3-2-0.6-2.5C180.1,7.5,158.4,0.9,136,0c-0.5,0-1,0.2-1.3,0.5c-0.4,0.3-0.6,0.8-0.6,1.3
		L132.9,56c0,1,0.7,1.8,1.7,1.9c11.7,0.6,23,4,33.1,10c0.3,0.2,0.6,0.3,0.9,0.3c0.6,0,1.2-0.3,1.5-0.8L199.8,21.7L199.8,21.7z
		 M168.1,63.7c-9.7-5.4-20.4-8.6-31.5-9.5l1.1-50.5c20.5,1.1,40.3,7.1,58,17.6L168.1,63.7z"/>
	<path class="st0" d="M248.1,77.3c0.9-0.4,1.3-1.5,0.9-2.4c-9.4-19.8-23.5-37-41.3-50l0,0c-0.8-0.6-2-0.4-2.6,0.4l-31.5,44.1
		c-0.6,0.8-0.4,1.9,0.4,2.5c9.2,6.9,16.7,15.8,21.9,26.1c0.3,0.6,0.9,1,1.6,1c0.3,0,0.5-0.1,0.7-0.2L248.1,77.3L248.1,77.3z
		 M198.4,94.8c-5.1-9.6-12.1-18.1-20.7-24.7L207,29c16,12.1,29,27.8,37.8,45.8L198.4,94.8z"/>
	<path class="st0" d="M127.1,0.5c-0.4-0.3-0.8-0.5-1.3-0.5c-20.9,0.8-41.4,6.7-59.5,17c0,0-0.1,0-0.1,0.1c-0.8,0.6-1.1,1.7-0.5,2.5
		l29.6,45.5c0.3,0.5,0.9,0.8,1.5,0.8c0.3,0,0.6-0.1,0.8-0.2c9.2-4.8,19.2-7.5,29.5-8c1,0,1.8-0.9,1.7-1.9l-1.2-54.2
		C127.7,1.3,127.5,0.8,127.1,0.5z M97.4,61.8L69.7,19.3C86.4,10.1,105,4.8,124.1,3.7l1.1,50.5C115.5,55,106.1,57.5,97.4,61.8z"/>
	<path class="st0" d="M253,84.4c-0.4-0.9-1.4-1.4-2.4-1.1L200,102.6c-0.9,0.4-1.4,1.4-1.1,2.4c3,8.1,4.6,16.7,4.6,25.4l0,0
		c0,1,0.8,1.8,1.8,1.8h54.2l0,0c1,0,1.8-0.8,1.8-1.8C261.3,114.6,258.5,99.1,253,84.4z M207.1,128.5c-0.2-7.9-1.6-15.7-4.2-23.1
		l47.2-18c4.7,13.2,7.3,27.1,7.5,41.1H207.1z"/>
	<path class="st0" d="M62.4,100.9L11.8,81.7c-0.9-0.4-2,0.1-2.4,1c-6,15.2-9,31.3-9,47.6c0,1,0.8,1.8,1.8,1.8h54.2l0,0
		c1,0,1.8-0.8,1.8-1.8c0-9.2,1.8-18.4,5.2-27l0,0C63.9,102.4,63.4,101.3,62.4,100.9z"/>
	<path class="st0" d="M59.9,23c-0.6-0.8-1.7-1-2.5-0.4C38.7,35.3,23.6,52.7,13.7,73.1v0.1c-0.4,0.9,0,2,1,2.4l49.8,21.5
		c0.2,0.1,0.5,0.2,0.7,0.1c0.7,0,1.3-0.4,1.6-1c5.7-10.7,14-19.8,24.2-26.5c0,0,0,0,0.1,0c0.8-0.6,1-1.7,0.4-2.5L59.9,23z"/>
</g>
<g class="st1">
	<path class="st0" d="M110.8,117.8h-5.7v7.3h-7.9v-7.3H78.4v-5.5l16.5-22.2h8.5l-15.3,21h9.4v-6.5h7.7v6.5h5.7L110.8,117.8
		L110.8,117.8z"/>
	<path class="st0" d="M120.5,123.6c-2.3-1.4-4-3.5-5.3-6.2s-1.9-6-1.9-9.7c0-3.8,0.6-7,1.9-9.7s3.1-4.8,5.3-6.2
		c2.3-1.4,4.8-2.1,7.8-2.1s5.5,0.7,7.8,2.1s4,3.5,5.3,6.2s1.9,6,1.9,9.7c0,3.8-0.6,7-1.9,9.7c-1.3,2.7-3.1,4.8-5.3,6.2
		c-2.3,1.4-4.8,2.1-7.8,2.1S122.8,125,120.5,123.6z M133.3,116.1c1.2-1.8,1.8-4.7,1.8-8.5s-0.6-6.7-1.8-8.5s-2.9-2.8-5-2.8
		c-2.1,0-3.8,0.9-5,2.8c-1.2,1.8-1.8,4.7-1.8,8.5s0.6,6.7,1.8,8.5c1.2,1.8,2.9,2.8,5,2.8C130.4,118.9,132,118,133.3,116.1z"/>
	<path class="st0" d="M149,106.4c-1.6-1.8-2.4-4.1-2.4-7s0.8-5.3,2.4-7c1.6-1.8,3.7-2.6,6.3-2.6s4.7,0.9,6.3,2.6
		c1.6,1.8,2.4,4.1,2.4,7s-0.8,5.3-2.4,7c-1.6,1.8-3.7,2.6-6.3,2.6S150.6,108.1,149,106.4z M158,103.5c0.6-0.9,1-2.3,1-4.2
		c0-1.8-0.3-3.2-1-4.2c-0.7-0.9-1.5-1.4-2.7-1.4c-1.1,0-2,0.5-2.6,1.4c-0.7,1-1,2.3-1,4.1s0.3,3.2,1,4.1c0.7,1,1.5,1.4,2.6,1.4
		C156.4,104.9,157.3,104.5,158,103.5z M176.1,90.1h6l-23.9,35h-6L176.1,90.1z M174.6,124.3c-1.3-0.8-2.3-1.9-3.1-3.4
		c-0.7-1.5-1.1-3.2-1.1-5.1s0.4-3.6,1.1-5.1s1.8-2.6,3.1-3.4s2.8-1.2,4.5-1.2c2.6,0,4.7,0.9,6.3,2.6c1.6,1.8,2.4,4.1,2.4,7
		s-0.8,5.3-2.4,7c-1.6,1.8-3.7,2.6-6.3,2.6C177.4,125.5,175.9,125.1,174.6,124.3z M181.7,120c0.6-1,1-2.3,1-4.1s-0.3-3.2-1-4.1
		c-0.7-1-1.5-1.4-2.7-1.4c-1.1,0-2,0.5-2.6,1.4c-0.7,0.9-1,2.3-1,4.2c0,1.8,0.3,3.2,1,4.2c0.7,0.9,1.5,1.4,2.6,1.4
		C180.2,121.4,181.1,120.9,181.7,120z"/>
</g>
<g class="st1">
	<path class="st0" d="M13.7,183.2v-8.8l-4.3,7.2H7.8l-4.3-7v8.6H0.4v-14.6h2.8l5.5,9.1l5.4-9.1h2.8v14.6H13.7z"/>
	<path class="st0" d="M31.6,180.5v2.7H20.3v-14.6h11v2.7h-7.7v3.2h6.8v2.6h-6.8v3.4L31.6,180.5L31.6,180.5z"/>
	<path class="st0" d="M43.9,180.1h-6.8l-1.3,3.1h-3.5l6.5-14.6h3.3l6.5,14.6h-3.5L43.9,180.1z M42.8,177.5l-2.3-5.6l-2.3,5.6H42.8z"
		/>
	<path class="st0" d="M63.6,168.6v14.6h-2.8l-7.3-8.9v8.9h-3.3v-14.6H53l7.3,8.9v-8.9H63.6z"/>
	<path class="st0" d="M68.6,183c-1.1-0.3-1.9-0.7-2.6-1.2l1.1-2.5c0.6,0.5,1.4,0.8,2.2,1.1c0.9,0.3,1.7,0.4,2.6,0.4
		c1,0,1.7-0.1,2.1-0.4c0.5-0.3,0.7-0.7,0.7-1.1c0-0.3-0.1-0.6-0.4-0.9c-0.3-0.2-0.6-0.4-1-0.6c-0.4-0.1-1-0.3-1.7-0.5
		c-1.1-0.3-2-0.5-2.7-0.8s-1.3-0.7-1.8-1.3s-0.8-1.4-0.8-2.3c0-0.8,0.2-1.6,0.7-2.3s1.2-1.2,2.1-1.6c0.9-0.4,2.1-0.6,3.4-0.6
		c0.9,0,1.8,0.1,2.7,0.3c0.9,0.2,1.7,0.5,2.3,1l-1,2.6c-1.3-0.8-2.7-1.1-4-1.1c-0.9,0-1.6,0.2-2.1,0.5s-0.7,0.7-0.7,1.2
		s0.3,0.9,0.8,1.1s1.3,0.5,2.4,0.7c1.1,0.3,2,0.5,2.7,0.8s1.3,0.7,1.8,1.3s0.8,1.3,0.8,2.3c0,0.8-0.2,1.6-0.7,2.3s-1.2,1.2-2.1,1.6
		c-0.9,0.4-2.1,0.6-3.4,0.6C70.8,183.5,69.6,183.3,68.6,183z"/>
	<path class="st0" d="M86.3,168.6h3.4v11.8H97v2.8H86.3V168.6z"/>
	<path class="st0" d="M110.2,180.5v2.7H98.9v-14.6h11v2.7h-7.7v3.2h6.8v2.6h-6.8v3.4L110.2,180.5L110.2,180.5z"/>
	<path class="st0" d="M114.3,183c-1.1-0.3-1.9-0.7-2.6-1.2l1.1-2.5c0.6,0.5,1.4,0.8,2.2,1.1c0.9,0.3,1.7,0.4,2.6,0.4
		c1,0,1.7-0.1,2.1-0.4c0.5-0.3,0.7-0.7,0.7-1.1c0-0.3-0.1-0.6-0.4-0.9c-0.3-0.2-0.6-0.4-1-0.6c-0.4-0.1-1-0.3-1.7-0.5
		c-1.1-0.3-2-0.5-2.7-0.8s-1.3-0.7-1.8-1.3s-0.8-1.4-0.8-2.3c0-0.8,0.2-1.6,0.7-2.3s1.2-1.2,2.1-1.6c0.9-0.4,2.1-0.6,3.4-0.6
		c0.9,0,1.8,0.1,2.7,0.3c0.9,0.2,1.7,0.5,2.3,1l-1,2.6c-1.3-0.8-2.7-1.1-4-1.1c-0.9,0-1.6,0.2-2.1,0.5s-0.7,0.7-0.7,1.2
		s0.3,0.9,0.8,1.1s1.3,0.5,2.4,0.7c1.1,0.3,2,0.5,2.7,0.8s1.3,0.7,1.8,1.3s0.8,1.3,0.8,2.3c0,0.8-0.2,1.6-0.7,2.3s-1.2,1.2-2.1,1.6
		c-0.9,0.4-2.1,0.6-3.4,0.6C116.5,183.5,115.4,183.3,114.3,183z"/>
	<path class="st0" d="M127.7,183c-1.1-0.3-1.9-0.7-2.6-1.2l1.1-2.5c0.6,0.5,1.4,0.8,2.2,1.1c0.9,0.3,1.7,0.4,2.6,0.4
		c1,0,1.7-0.1,2.1-0.4c0.5-0.3,0.7-0.7,0.7-1.1c0-0.3-0.1-0.6-0.4-0.9c-0.3-0.2-0.6-0.4-1-0.6c-0.4-0.1-1-0.3-1.7-0.5
		c-1.1-0.3-2-0.5-2.7-0.8s-1.3-0.7-1.8-1.3s-0.8-1.4-0.8-2.3c0-0.8,0.2-1.6,0.7-2.3s1.2-1.2,2.1-1.6c0.9-0.4,2.1-0.6,3.4-0.6
		c0.9,0,1.8,0.1,2.7,0.3s1.7,0.5,2.3,1l-1,2.6c-1.3-0.8-2.7-1.1-4-1.1c-0.9,0-1.6,0.2-2.1,0.5s-0.7,0.7-0.7,1.2s0.3,0.9,0.8,1.1
		c0.5,0.2,1.3,0.5,2.4,0.7c1.1,0.3,2,0.5,2.7,0.8s1.3,0.7,1.8,1.3s0.8,1.3,0.8,2.3c0,0.8-0.2,1.6-0.7,2.3s-1.2,1.2-2.1,1.6
		c-0.9,0.4-2.1,0.6-3.4,0.6C129.8,183.5,128.7,183.3,127.7,183z"/>
	<path class="st0" d="M156.7,180.5v2.7h-11.3v-14.6h11v2.7h-7.7v3.2h6.8v2.6h-6.8v3.4L156.7,180.5L156.7,180.5z"/>
	<path class="st0" d="M162.8,171.3v3.9h6.8v2.7h-6.8v5.3h-3.4v-14.6h11v2.7L162.8,171.3L162.8,171.3z"/>
	<path class="st0" d="M176.1,171.3v3.9h6.8v2.7h-6.8v5.3h-3.4v-14.6h11v2.7L176.1,171.3L176.1,171.3z"/>
	<path class="st0" d="M197.3,180.5v2.7H186v-14.6h11v2.7h-7.7v3.2h6.8v2.6h-6.8v3.4L197.3,180.5L197.3,180.5z"/>
	<path class="st0" d="M202.9,182.5c-1.2-0.6-2.1-1.5-2.8-2.7c-0.7-1.1-1-2.4-1-3.9c0-1.4,0.3-2.7,1-3.9c0.7-1.1,1.6-2,2.8-2.7
		c1.2-0.6,2.6-1,4.1-1c1.3,0,2.4,0.2,3.4,0.7c1,0.4,1.9,1.1,2.6,1.9l-2.2,2c-1-1.1-2.2-1.7-3.7-1.7c-0.9,0-1.7,0.2-2.4,0.6
		c-0.7,0.4-1.3,0.9-1.7,1.7c-0.4,0.7-0.6,1.5-0.6,2.4s0.2,1.7,0.6,2.4c0.4,0.7,0.9,1.3,1.7,1.7c0.7,0.4,1.5,0.6,2.4,0.6
		c1.5,0,2.7-0.6,3.7-1.7l2.2,2c-0.7,0.8-1.6,1.5-2.6,1.9s-2.2,0.7-3.4,0.7C205.5,183.5,204.1,183.1,202.9,182.5z"/>
	<path class="st0" d="M218.2,171.4h-4.7v-2.8h12.7v2.8h-4.7v11.8h-3.4L218.2,171.4L218.2,171.4z"/>
	<path class="st0" d="M228,168.6h3.4v14.6H228V168.6z"/>
	<path class="st0" d="M248.8,168.6l-6.3,14.6h-3.3l-6.3-14.6h3.6l4.4,10.4l4.5-10.4H248.8z"/>
	<path class="st0" d="M261.3,180.5v2.7H250v-14.6h11v2.7h-7.7v3.2h6.8v2.6h-6.8v3.4L261.3,180.5L261.3,180.5z"/>
</g>
<g class="st1">
	<path class="st0" d="M20.4,158.1H8.2l-2.3,5.6h-6.2l11.7-26.3h6l11.7,26.3h-6.4L20.4,158.1z M18.5,153.5l-4.2-10.1l-4.2,10.1H18.5z
		"/>
	<path class="st0" d="M54.6,152.4c0.8,1.1,1.3,2.5,1.3,4.1c0,2.3-0.9,4.1-2.7,5.3s-4.4,1.9-7.8,1.9H31.8v-26.3h12.8
		c3.2,0,5.7,0.6,7.4,1.8s2.6,2.9,2.6,5c0,1.3-0.3,2.4-0.9,3.4c-0.6,1-1.5,1.8-2.6,2.4C52.6,150.5,53.8,151.3,54.6,152.4z M37.8,142
		v6.2h6c1.5,0,2.6-0.3,3.4-0.8c0.8-0.5,1.2-1.3,1.2-2.3s-0.4-1.8-1.2-2.3s-1.9-0.8-3.4-0.8L37.8,142L37.8,142z M48.6,158.4
		c0.8-0.5,1.2-1.3,1.2-2.4c0-2.2-1.6-3.3-4.8-3.3h-7.1v6.5H45C46.5,159.1,47.7,158.9,48.6,158.4z"/>
	<path class="st0" d="M63.1,163.3c-1.9-0.6-3.5-1.3-4.7-2.2l2.1-4.6c1.1,0.8,2.5,1.5,4,2c1.6,0.5,3.1,0.8,4.7,0.8
		c1.7,0,3-0.3,3.8-0.8s1.2-1.2,1.2-2c0-0.6-0.2-1.1-0.7-1.6c-0.5-0.4-1.1-0.7-1.9-1c-0.8-0.2-1.8-0.5-3.1-0.8
		c-2-0.5-3.6-0.9-4.9-1.4c-1.3-0.5-2.4-1.2-3.3-2.3s-1.4-2.5-1.4-4.2c0-1.5,0.4-2.9,1.2-4.1c0.8-1.2,2.1-2.2,3.7-2.9
		c1.7-0.7,3.7-1.1,6.1-1.1c1.7,0,3.3,0.2,4.9,0.6c1.6,0.4,3,1,4.2,1.7l-1.9,4.6c-2.4-1.4-4.9-2.1-7.3-2.1c-1.7,0-3,0.3-3.8,0.8
		c-0.8,0.6-1.2,1.3-1.2,2.2s0.5,1.6,1.4,2s2.4,0.9,4.3,1.3c2,0.5,3.6,1,4.9,1.4c1.3,0.5,2.4,1.2,3.3,2.3c0.9,1,1.4,2.4,1.4,4.2
		c0,1.5-0.4,2.9-1.3,4.1c-0.8,1.2-2.1,2.2-3.8,2.9c-1.7,0.7-3.7,1.1-6.1,1.1C67.1,164.2,65.1,163.9,63.1,163.3z"/>
	<path class="st0" d="M89.8,162.4c-2.2-1.2-3.9-2.8-5.1-4.9c-1.2-2.1-1.9-4.4-1.9-7s0.6-4.9,1.9-7c1.2-2.1,3-3.7,5.1-4.9
		c2.2-1.2,4.6-1.8,7.4-1.8c2.7,0,5.2,0.6,7.4,1.8c2.2,1.2,3.9,2.8,5.1,4.9c1.3,2.1,1.9,4.4,1.9,7s-0.6,4.9-1.9,7s-3,3.7-5.1,4.9
		c-2.2,1.2-4.6,1.8-7.4,1.8S92,163.6,89.8,162.4z M101.4,157.9c1.3-0.7,2.2-1.7,2.9-3c0.7-1.3,1.1-2.7,1.1-4.4
		c0-1.6-0.4-3.1-1.1-4.4c-0.7-1.3-1.7-2.3-2.9-3c-1.3-0.7-2.7-1.1-4.2-1.1c-1.6,0-3,0.4-4.2,1.1c-1.3,0.7-2.2,1.7-2.9,3
		c-0.7,1.3-1.1,2.7-1.1,4.4c0,1.6,0.4,3.1,1.1,4.4c0.7,1.3,1.7,2.3,2.9,3c1.2,0.7,2.7,1.1,4.2,1.1C98.7,159,100.1,158.6,101.4,157.9
		z"/>
	<path class="st0" d="M132.8,163.7l-5.1-7.3h-0.3h-5.3v7.3H116v-26.3h11.4c2.3,0,4.3,0.4,6.1,1.2c1.7,0.8,3,1.9,4,3.3
		c0.9,1.4,1.4,3.1,1.4,5.1s-0.5,3.6-1.4,5s-2.3,2.5-4,3.2l5.9,8.4h-6.6V163.7z M131.3,143.6c-1-0.8-2.3-1.2-4.2-1.2h-5v9.2h5
		c1.8,0,3.2-0.4,4.2-1.2s1.4-1.9,1.4-3.4C132.7,145.5,132.3,144.4,131.3,143.6z"/>
	<path class="st0" d="M161.1,138.6c1.7,0.8,3,1.9,4,3.3c0.9,1.4,1.4,3.1,1.4,5.1c0,1.9-0.5,3.6-1.4,5s-2.2,2.5-4,3.3
		c-1.7,0.8-3.7,1.1-6.1,1.1h-5.3v7.2h-6.1v-26.3H155C157.4,137.5,159.4,137.8,161.1,138.6z M158.9,150.3c1-0.8,1.4-1.9,1.4-3.4
		s-0.5-2.6-1.4-3.4c-1-0.8-2.3-1.2-4.2-1.2h-5v9.1h5C156.5,151.5,157.9,151.1,158.9,150.3z"/>
	<path class="st0" d="M175.5,142.4h-8.4v-5H190v5h-8.4v21.3h-6.1V142.4z"/>
	<path class="st0" d="M193.3,137.5h6.1v26.3h-6.1V137.5z"/>
	<path class="st0" d="M210.9,162.4c-2.2-1.2-3.9-2.8-5.1-4.9c-1.2-2.1-1.9-4.4-1.9-7s0.6-4.9,1.9-7c1.2-2.1,3-3.7,5.1-4.9
		c2.2-1.2,4.6-1.8,7.4-1.8c2.7,0,5.2,0.6,7.4,1.8s3.9,2.8,5.1,4.9c1.3,2.1,1.9,4.4,1.9,7s-0.6,4.9-1.9,7c-1.3,2.1-3,3.7-5.1,4.9
		c-2.2,1.2-4.6,1.8-7.4,1.8C215.6,164.2,213.1,163.6,210.9,162.4z M222.5,157.9c1.3-0.7,2.2-1.7,2.9-3s1.1-2.7,1.1-4.4
		c0-1.6-0.4-3.1-1.1-4.4c-0.7-1.3-1.7-2.3-2.9-3c-1.3-0.7-2.7-1.1-4.2-1.1s-3,0.4-4.2,1.1c-1.3,0.7-2.2,1.7-2.9,3s-1.1,2.7-1.1,4.4
		c0,1.6,0.4,3.1,1.1,4.4c0.7,1.3,1.7,2.3,2.9,3s2.7,1.1,4.2,1.1S221.2,158.6,222.5,157.9z"/>
	<path class="st0" d="M261.3,137.5v26.3h-5l-13.1-15.9v15.9h-6v-26.3h5l13.1,15.9v-15.9H261.3z"/>
</g>
</svg>
