<?xml version="1.0" encoding="utf-8"?>
<!-- Generator: Adobe Illustrator 23.1.0, SVG Export Plug-In . SVG Version: 6.00 Build 0)  -->
<svg version="1.1" id="Layer_1" xmlns="http://www.w3.org/2000/svg" xmlns:xlink="http://www.w3.org/1999/xlink" x="0px" y="0px"
	 viewBox="0 0 500 500" style="enable-background:new 0 0 500 500;" xml:space="preserve">
<style type="text/css">
	.st0{opacity:0.3;}
	.st1{fill:#FFFFFF;}
</style>
<g class="st0">
	<path class="st1" d="M495,242.1c-1.1-35.7-10.1-70.6-26.3-102.4c-0.4-0.7-0.7-1.4-1.1-2.1c-0.4-0.8-0.8-1.5-1.2-2.3l4.4-2.6
		l-8.2-14.2l-4.4,2.5c-17-27.6-39.4-51.5-65.8-70.2c-0.5-0.4-1-0.7-1.6-1.1c-0.9-0.7-1.9-1.3-2.8-1.9c-2.7-1.8-5.4-3.6-8.2-5.4
		l2.5-4.4l-14.2-8.2l-2.5,4.4C332.5,16.2,295.8,6.3,258.2,5.1V0h-16.4v5.1C204.3,6.3,167.6,16.2,134.6,34l-2.5-4.3l-14.2,8.2
		l2.5,4.3c-2.6,1.6-5.1,3.3-7.6,5c-0.9,0.6-1.8,1.2-2.7,1.9c-0.9,0.6-1.7,1.2-2.5,1.8C81.3,69.5,59,93.2,42,120.6l-4.4-2.6
		l-8.2,14.2l4.4,2.6c-16.5,30.9-26.2,65-28.3,100c0,0.8-0.1,1.5-0.1,2.3c-0.1,1.4-0.1,2.7-0.2,4.1c0,0.3,0,0.6,0,0.9H0v16.4h5.1
		c0.9,28.9,7,57.4,18,84.1c0.1,0.2,0.2,0.4,0.2,0.6c0.3,0.7,0.6,1.3,0.9,2c2.9,7,6.2,13.9,9.8,20.7l-4.4,2.6l8.2,14.2l4.4-2.6
		c19.8,31.8,46.6,58.6,78.4,78.3l-2.5,4.3l14.2,8.2l2.5-4.3c33,17.5,69.6,27.3,107,28.7v4.8h16.4v-4.8c37.4-1.2,74.1-11,107.1-28.8
		l2.6,4.4l14.2-8.2l-2.6-4.4c31.9-19.8,58.7-46.6,78.5-78.5l4.3,2.5l8.2-14.2l-4.3-2.5c7.4-13.9,13.4-28.4,18-43.4l0.3-0.9
		c0.5-1.7,1-3.5,1.5-5.2c0.1-0.4,0.3-0.9,0.4-1.3c0.6-2.1,1.1-4.1,1.6-6.2v0c0.5-2.1,1-4.2,1.5-6.3c0.1-0.5,0.2-1,0.3-1.4
		c0.4-1.7,0.7-3.4,1-5.1c0.1-0.4,0.2-0.9,0.2-1.3c0.4-2,0.7-4.1,1-6.1l0-0.1c1.5-9.8,2.5-19.6,2.8-29.5h5.1v-16.4L495,242.1z
		 M460.3,371.6c-2.9,5.1-6,10-9.2,14.7c-75.3,111-226.4,140-337.4,64.7c-25.4-17.2-47.3-39.2-64.6-64.6c-0.5-0.7-0.9-1.4-1.4-2.1
		c-0.6-0.9-1.1-1.7-1.7-2.6C23.7,347,10.6,307.3,7.8,266.3c0-0.4-0.1-0.9-0.1-1.3c-0.1-0.9-0.1-1.9-0.2-2.8
		C4.4,195,29.1,129.6,75.7,81.3c0.1-0.1,0.2-0.2,0.3-0.3c1.2-1.3,2.5-2.5,3.8-3.8c0.3-0.3,0.7-0.6,1-0.9c1.1-1.1,2.2-2.1,3.3-3.1
		c0.3-0.3,0.7-0.6,1-0.9c1.1-1.1,2.3-2.1,3.5-3.2l0.7-0.6c1.3-1.2,2.7-2.4,4.1-3.5l0.1-0.1c6.2-5.2,12.7-10.2,19.3-14.7l0.2-0.1
		c1.6-1.1,3.2-2.2,4.9-3.2c1.8-1.2,3.7-2.4,5.5-3.5c0.3-0.2,0.6-0.4,0.9-0.5c2.2-1.3,4.4-2.6,6.7-3.9l0.2-0.1
		c24.8-13.9,51.9-23.3,79.9-27.9l0.7-0.1c2.1-0.3,4.3-0.6,6.4-0.9c71.6-9.3,143.6,13.5,196.8,62.3c0.3,0.3,0.6,0.5,0.9,0.8
		c1.2,1.1,2.4,2.3,3.7,3.5c1.6,1.6,3.2,3.2,4.8,4.8c0.3,0.3,0.6,0.7,0.9,1c1.5,1.6,3,3.2,4.5,4.8l0.5,0.6
		c10.6,11.7,20,24.4,28.2,37.9l0.5,0.8c1.1,1.9,2.2,3.7,3.2,5.6c0.3,0.5,0.6,1,0.9,1.5c1.1,1.9,2.1,3.9,3.1,5.8
		c0.2,0.4,0.4,0.7,0.6,1.1l0,0c0.7,1.4,1.4,2.8,2.1,4.3l0.3,0.6C503.6,217.3,500.4,302.1,460.3,371.6z"/>
	<path class="st1" d="M347.7,32.8C263.8-5.1,165.5,9,95.5,68.8c-4.8,4.1-9.4,8.4-13.9,12.8c-1.5,1.5-3.1,3.1-4.6,4.7
		c-2.1,2.2-4.1,4.5-6.2,6.8c-0.8,0.9-1.6,1.8-2.3,2.7c-5.7,6.7-11.1,13.8-16.1,21.1l-0.1,0.2c-1.9,2.8-3.7,5.6-5.5,8.5
		c-0.6,0.9-1.2,1.9-1.7,2.9c-2.6,4.3-5,8.7-7.3,13.2l0,0.1c-2.1,4.1-4.1,8.3-6,12.6c-1.1,2.6-2.2,5.2-3.3,7.8
		c-0.1,0.2-0.2,0.4-0.3,0.6c-1.2,3-2.3,6-3.4,9.1c-0.2,0.6-0.4,1.2-0.6,1.8C3.7,234.6,8.6,301.2,37.9,358.4
		c24.7,48.2,65.1,86.5,114.4,108.9c84,37.8,182.2,23.8,252.2-36c4.8-4.1,9.4-8.4,13.9-12.8c1.5-1.5,3.1-3.1,4.6-4.7
		c2.1-2.2,4.1-4.5,6.2-6.8c0.8-0.9,1.6-1.8,2.3-2.7c5.7-6.7,11.1-13.8,16.1-21.1c0-0.1,0.1-0.1,0.1-0.2c1.9-2.8,3.7-5.6,5.5-8.5
		c0.6-0.9,1.2-1.9,1.7-2.9c2.6-4.3,5-8.7,7.3-13.2l0-0.1c3.5-6.8,6.7-13.8,9.5-21c1.2-3,2.3-6,3.4-9.1c0.2-0.6,0.4-1.2,0.6-1.8
		c20.6-60.9,15.7-127.5-13.6-184.7C437.4,93.5,397.1,55.1,347.7,32.8z M463.4,187.6c0.2,0.6,0.3,1.1,0.5,1.7
		c0.4,1.3,0.7,2.6,1.1,3.9c0.2,0.6,0.3,1.2,0.5,1.9c0.3,1.3,0.7,2.6,1,4c0.1,0.6,0.3,1.2,0.4,1.8c0.3,1.4,0.6,2.7,0.9,4.1
		c0.1,0.5,0.2,1.1,0.3,1.6c0.3,1.5,0.6,2.9,0.8,4.4l0,0.1c0.9,5.2,1.7,10.5,2.2,15.9c0.1,0.5,0.1,1,0.2,1.6c0.1,1.4,0.3,2.8,0.4,4.2
		c0.1,0.7,0.1,1.3,0.1,2c0.1,1.4,0.2,2.7,0.2,4.1c0,0.3,0,0.7,0,1L454.3,250l17.7,10.2v0c-0.1,1.8-0.2,3.5-0.3,5.2
		c0,0.1,0,0.2,0,0.3c-0.1,1.7-0.3,3.4-0.4,5.1c0,0.2,0,0.3,0,0.5c-0.2,1.6-0.3,3.3-0.5,4.9c0,0.2,0,0.4-0.1,0.6
		c-0.2,1.6-0.4,3.2-0.6,4.7c0,0.2-0.1,0.5-0.1,0.7c-0.2,1.5-0.5,3.1-0.7,4.6c0,0.3-0.1,0.5-0.1,0.8c-0.3,1.5-0.5,3-0.8,4.5l-0.2,0.8
		c-0.3,1.5-0.6,2.9-0.9,4.4c-0.1,0.3-0.1,0.6-0.2,0.9c-0.3,1.4-0.7,2.9-1,4.3c-0.1,0.3-0.1,0.6-0.2,0.9c-0.4,1.4-0.7,2.9-1.1,4.3
		c-0.1,0.3-0.2,0.6-0.3,0.9c-0.4,1.4-0.8,2.8-1.2,4.2l-0.1,0.2l-0.2,0.8c-0.4,1.4-0.8,2.8-1.3,4.1c-0.1,0.3-0.2,0.6-0.3,1
		c-0.4,1.4-0.9,2.7-1.4,4.1c-0.1,0.3-0.2,0.6-0.3,1c-0.5,1.3-1,2.7-1.5,4c-0.1,0.3-0.2,0.6-0.4,1c-0.5,1.3-1,2.7-1.6,4l0,0.1
		c-0.1,0.3-0.2,0.6-0.4,0.9c-0.5,1.3-1.1,2.6-1.7,3.9c-0.1,0.3-0.2,0.6-0.4,0.8l0,0.1c-0.6,1.3-1.2,2.6-1.8,3.9
		c-0.1,0.3-0.3,0.6-0.4,0.9c-0.6,1.3-1.2,2.6-1.9,3.9c-0.1,0.3-0.3,0.6-0.4,0.9c-0.6,1.3-1.3,2.6-2,3.9l-0.4,0.8
		c-0.7,1.3-1.4,2.6-2.1,3.8l0,0c-0.1,0.2-0.2,0.3-0.3,0.5l-0.1,0.2c-0.7,1.2-1.4,2.5-2.1,3.7c0,0.1-0.1,0.2-0.1,0.2
		c-0.1,0.2-0.2,0.4-0.3,0.6c-0.7,1.2-1.4,2.4-2.1,3.6c-0.1,0.1-0.2,0.3-0.2,0.4l-0.3,0.4c-0.7,1.2-1.4,2.3-2.2,3.5
		c-0.1,0.2-0.2,0.4-0.4,0.6c-0.1,0.1-0.1,0.2-0.2,0.2c-0.7,1.1-1.5,2.3-2.3,3.4c-0.2,0.3-0.3,0.5-0.5,0.8c-1.1,1.5-2.1,3.1-3.2,4.6
		l-0.3,0.5c-1,1.4-2,2.7-3,4l-0.5,0.7c-1,1.3-1.9,2.5-2.9,3.8l-0.5,0.7l-0.2,0.2c-1,1.2-1.9,2.4-2.9,3.5l-0.2,0.2
		c-0.2,0.3-0.5,0.6-0.7,0.9c-0.9,1.1-1.8,2.1-2.8,3.2c-0.3,0.4-0.7,0.7-1,1.1c-0.9,1-1.8,2-2.8,3c-0.3,0.4-0.7,0.8-1.1,1.1
		c-0.8,0.9-1.7,1.7-2.5,2.6c-0.7,0.7-1.4,1.4-2,2.1c-0.7,0.7-1.3,1.3-2,2c-0.9,0.8-1.7,1.7-2.6,2.5c-0.4,0.3-0.7,0.7-1.1,1
		c-1,0.9-2,1.9-3,2.8c-0.4,0.3-0.7,0.7-1.1,1c-1.1,0.9-2.1,1.9-3.2,2.8c-0.3,0.3-0.6,0.5-0.9,0.8l-0.2,0.1c-1.2,1-2.3,1.9-3.5,2.9
		l-0.3,0.2l-0.6,0.5c-1.2,1-2.5,2-3.8,2.9l-0.7,0.5c-1.3,1-2.7,2-4,3l-0.5,0.4c-1.5,1.1-3,2.2-4.6,3.2c-0.3,0.2-0.5,0.4-0.8,0.5
		c-1.1,0.8-2.2,1.5-3.4,2.2l-0.2,0.2c-0.2,0.1-0.4,0.3-0.6,0.4c-1.1,0.7-2.3,1.4-3.4,2.2l-0.4,0.3l-0.4,0.3
		c-1.2,0.7-2.4,1.4-3.6,2.1c-0.2,0.1-0.4,0.2-0.6,0.3l-0.2,0.1c-1.2,0.7-2.4,1.4-3.7,2.1l-0.7,0.4l-0.1,0c-1.3,0.7-2.5,1.4-3.8,2
		l-0.8,0.4c-1.3,0.7-2.6,1.3-3.9,2l-0.9,0.4c-1.3,0.6-2.6,1.2-3.9,1.9l-0.9,0.4c-1.3,0.6-2.6,1.2-3.9,1.8c-0.3,0.1-0.6,0.3-0.9,0.4
		c-1.3,0.6-2.6,1.1-3.9,1.7l-1,0.4c-1.3,0.5-2.6,1.1-4,1.6c-0.3,0.1-0.6,0.2-1,0.4c-1.3,0.5-2.7,1-4,1.5l-1,0.3
		c-1.3,0.5-2.7,0.9-4.1,1.4l-1,0.3c-1.4,0.4-2.8,0.9-4.1,1.3l-1,0.3c-1.4,0.4-2.8,0.8-4.2,1.2l-1,0.3c-1.4,0.4-2.8,0.7-4.2,1.1
		l-1,0.2c-1.4,0.4-2.9,0.7-4.3,1l-0.9,0.2c-1.5,0.3-2.9,0.6-4.4,0.9l-0.9,0.2c-1.5,0.3-3,0.6-4.5,0.8l-0.8,0.1
		c-1.5,0.3-3.1,0.5-4.6,0.7l-0.7,0.1c-1.6,0.2-3.1,0.4-4.7,0.6l-0.6,0.1c-1.6,0.2-3.2,0.4-4.8,0.5l-0.5,0c-1.7,0.2-3.3,0.3-5,0.4
		l-0.4,0c-1.7,0.1-3.5,0.2-5.2,0.3h0L250,454.3l-10.3,17.7c-1.1-0.1-2.2-0.1-3.4-0.2c-1.6-0.1-3.2-0.2-4.8-0.3
		c-1.4-0.1-2.8-0.2-4.2-0.4c-1.1-0.1-2.2-0.2-3.4-0.4c-1.2-0.1-2.4-0.3-3.6-0.4c-1.1-0.1-2.2-0.3-3.3-0.5c-1.6-0.2-3.1-0.5-4.7-0.8
		c-1.5-0.3-3-0.5-4.4-0.8c-1.2-0.2-2.4-0.5-3.6-0.7c-1.1-0.2-2.2-0.5-3.3-0.7c-1.2-0.3-2.3-0.5-3.4-0.8c-1.1-0.3-2.1-0.5-3.2-0.8
		c-1.9-0.5-3.9-1-5.8-1.6c-1-0.3-2.1-0.6-3.1-0.9c-1.1-0.3-2.2-0.7-3.3-1c-1.1-0.3-2.1-0.7-3.2-1.1c-1.1-0.4-2.3-0.8-3.4-1.2
		c-1.3-0.4-2.5-0.9-3.8-1.4c-1.6-0.6-3.1-1.2-4.7-1.8c-1-0.4-2-0.8-3-1.3c-1.1-0.4-2.1-0.9-3.2-1.4c-1-0.4-2-0.9-3-1.3
		c-1.2-0.5-2.3-1.1-3.5-1.6c-0.7-0.4-1.5-0.7-2.2-1.1l-0.1-0.1c-0.4-0.2-0.8-0.4-1.2-0.6c-1.4-0.7-2.8-1.4-4.2-2.2
		c-0.8-0.4-1.7-0.9-2.5-1.4c-1.2-0.7-2.4-1.3-3.6-2c-0.6-0.4-1.3-0.7-1.9-1.1l-0.4-0.2c-1.7-1-3.4-2-5-3c-0.8-0.5-1.5-1-2.3-1.4
		c-1.1-0.7-2.3-1.5-3.4-2.2c-0.6-0.4-1.2-0.8-1.8-1.2l-0.4-0.3c-1.6-1.1-3.2-2.2-4.8-3.4c-0.7-0.5-1.3-1-2-1.5
		c-1.1-0.8-2.3-1.7-3.4-2.5c-0.5-0.4-1.1-0.8-1.6-1.3l-0.5-0.4c-1.4-1.1-2.7-2.1-4-3.2c-0.3-0.2-0.5-0.4-0.8-0.6
		c-0.5-0.4-0.9-0.8-1.4-1.1c-1.2-1-2.3-2-3.5-3c-0.5-0.4-1-0.8-1.4-1.3l-0.6-0.5c-1.1-1-2.3-2.1-3.4-3.1c-0.5-0.4-1-0.9-1.4-1.3
		l-0.4-0.4c-1.3-1.2-2.6-2.5-3.9-3.8l-1.2-1.2l-0.7-0.7c-1-1-2-2.1-3-3.2c-0.5-0.6-1.1-1.2-1.6-1.8c-1.3-1.4-2.6-2.9-3.9-4.3
		c-0.3-0.4-0.7-0.8-1-1.2l-0.6-0.8c-0.9-1.1-1.8-2.2-2.8-3.3c-0.6-0.7-1.1-1.4-1.7-2c-1.1-1.4-2.2-2.9-3.3-4.3
		c-0.1-0.1-0.2-0.2-0.3-0.4c-0.3-0.3-0.5-0.7-0.8-1c-0.2-0.3-0.4-0.5-0.6-0.8c-0.9-1.2-1.7-2.4-2.6-3.6c-0.5-0.8-1.1-1.5-1.6-2.3
		c-0.8-1.2-1.6-2.4-2.5-3.6c-0.3-0.5-0.7-1-1-1.6c-0.1-0.2-0.3-0.4-0.4-0.6c-0.1-0.2-0.2-0.3-0.3-0.5c-0.9-1.4-1.7-2.7-2.6-4.1
		c-0.5-0.8-1-1.6-1.5-2.5c-0.7-1.1-1.3-2.3-2-3.4c-0.4-0.8-0.9-1.5-1.3-2.3c-0.9-1.7-1.9-3.4-2.8-5.1c-0.5-1-1-2-1.5-3.1
		c-0.3-0.6-0.6-1.3-0.9-1.9c-0.6-1.2-1.1-2.3-1.7-3.5c-0.3-0.6-0.6-1.2-0.8-1.8c-0.5-1.2-1.1-2.4-1.6-3.6c-0.2-0.6-0.5-1.1-0.7-1.7
		c-0.5-1.3-1.1-2.6-1.6-3.8c-0.1-0.3-0.3-0.7-0.4-1c-1.8-4.6-3.5-9.3-5-14.1c-0.1-0.4-0.2-0.7-0.4-1.1c-0.4-1.3-0.8-2.7-1.2-4.1
		c-0.2-0.6-0.3-1.1-0.5-1.7c-0.4-1.3-0.7-2.6-1.1-3.9c-0.2-0.6-0.3-1.2-0.5-1.9c-0.3-1.3-0.7-2.6-1-4c-0.1-0.6-0.3-1.2-0.4-1.8
		c-0.3-1.4-0.6-2.7-0.9-4.1c-0.1-0.5-0.2-1-0.3-1.6c-0.3-1.5-0.6-2.9-0.8-4.4l0-0.1c-0.9-5.2-1.7-10.5-2.2-15.9
		c-0.1-0.5-0.1-1-0.2-1.6c-0.1-1.4-0.2-2.8-0.4-4.2c-0.1-0.7-0.1-1.3-0.2-2c-0.1-1.4-0.2-2.7-0.2-4.1c0-0.3,0-0.7,0-1L45.7,250
		l-17.7-10.3v0c0.1-1.8,0.2-3.5,0.3-5.2l0-0.3c0.1-1.7,0.3-3.4,0.4-5.1c0-0.2,0-0.3,0-0.5c0.2-1.6,0.3-3.3,0.5-4.9
		c0-0.2,0-0.4,0.1-0.6c0.2-1.6,0.4-3.2,0.6-4.7c0-0.2,0.1-0.5,0.1-0.7c0.2-1.5,0.5-3.1,0.7-4.6c0-0.3,0.1-0.5,0.1-0.8
		c0.3-1.5,0.5-3,0.8-4.5c0.1-0.3,0.1-0.6,0.2-0.8c0.3-1.5,0.6-2.9,0.9-4.4c0.1-0.3,0.1-0.6,0.2-0.9c0.3-1.4,0.7-2.9,1-4.3
		c0.1-0.3,0.1-0.6,0.2-0.9c0.4-1.4,0.7-2.9,1.1-4.3c0.1-0.3,0.2-0.6,0.3-0.9c0.4-1.4,0.8-2.8,1.2-4.2l0.1-0.2
		c0.1-0.3,0.2-0.5,0.2-0.8c0.4-1.4,0.8-2.8,1.3-4.1c0.1-0.3,0.2-0.6,0.3-1c0.4-1.4,0.9-2.7,1.4-4.1c0.1-0.3,0.2-0.6,0.3-1
		c0.5-1.3,1-2.7,1.5-4c0.1-0.3,0.2-0.6,0.4-1c0.5-1.3,1-2.7,1.6-4l0-0.1c0.1-0.3,0.2-0.6,0.4-0.9c0.5-1.3,1.1-2.6,1.7-3.9
		c0.1-0.3,0.2-0.6,0.4-0.8l0-0.1c0.6-1.3,1.2-2.6,1.8-3.9c0.1-0.3,0.3-0.6,0.4-0.9c0.6-1.3,1.2-2.6,1.9-3.9c0.1-0.3,0.3-0.6,0.4-0.9
		c0.6-1.3,1.3-2.6,2-3.9l0.4-0.8c0.7-1.3,1.4-2.6,2.1-3.8l0,0c0.1-0.2,0.2-0.3,0.3-0.5c0-0.1,0.1-0.1,0.1-0.2
		c0.7-1.2,1.4-2.5,2.1-3.7l0.1-0.2c0.1-0.2,0.2-0.4,0.3-0.6c0.7-1.2,1.4-2.4,2.1-3.6c0.1-0.1,0.2-0.3,0.2-0.4
		c0.1-0.1,0.2-0.3,0.3-0.4c0.7-1.2,1.4-2.3,2.2-3.5c0.1-0.2,0.2-0.4,0.4-0.6l0.2-0.2c0.7-1.1,1.5-2.3,2.3-3.4
		c0.2-0.3,0.3-0.5,0.5-0.8c1.1-1.5,2.1-3.1,3.2-4.6l0.3-0.5c1-1.4,2-2.7,3-4l0.5-0.7c1-1.3,1.9-2.5,2.9-3.8l0.5-0.7l0.2-0.2
		c1-1.2,1.9-2.4,2.9-3.5l0.2-0.2c0.2-0.3,0.5-0.6,0.7-0.9c0.9-1.1,1.8-2.1,2.8-3.2c0.3-0.4,0.7-0.7,1-1.1c0.9-1,1.8-2,2.8-3
		c0.3-0.4,0.7-0.8,1.1-1.1c0.8-0.9,1.6-1.7,2.5-2.6c0.7-0.7,1.4-1.4,2-2.1c0.7-0.7,1.3-1.3,2-2c0.9-0.8,1.7-1.7,2.6-2.5
		c0.4-0.3,0.7-0.7,1.1-1c1-0.9,2-1.9,3-2.8c0.4-0.3,0.7-0.7,1.1-1c1.1-0.9,2.1-1.9,3.2-2.8c0.3-0.3,0.6-0.5,0.9-0.8l0.2-0.1
		c1.2-1,2.3-1.9,3.5-2.9l0.3-0.2l0.6-0.5c1.2-1,2.5-2,3.8-2.9l0.7-0.5c1.3-1,2.7-2,4-3l0.5-0.4c1.5-1.1,3-2.2,4.6-3.2
		c0.3-0.2,0.5-0.4,0.8-0.5c1.1-0.8,2.2-1.5,3.4-2.2l0.2-0.2c0.2-0.1,0.4-0.3,0.6-0.4c1.1-0.7,2.3-1.4,3.4-2.2l0.4-0.3l0.4-0.3
		c1.2-0.7,2.4-1.4,3.6-2.1c0.2-0.1,0.4-0.2,0.6-0.3l0.2-0.1c1.2-0.7,2.4-1.4,3.7-2.1l0.7-0.4l0.1,0c1.3-0.7,2.5-1.4,3.8-2l0.8-0.4
		c1.3-0.7,2.6-1.3,3.9-2c0.3-0.1,0.6-0.3,0.9-0.4c1.3-0.6,2.6-1.2,3.9-1.9l0.9-0.4c1.3-0.6,2.6-1.2,3.9-1.8c0.3-0.1,0.6-0.3,0.9-0.4
		c1.3-0.6,2.6-1.1,3.9-1.7l1-0.4c1.3-0.5,2.6-1.1,4-1.6l1-0.4c1.3-0.5,2.7-1,4-1.5l1-0.3c1.3-0.5,2.7-0.9,4.1-1.4l1-0.3
		c1.4-0.4,2.8-0.9,4.1-1.3l1-0.3c1.4-0.4,2.8-0.8,4.2-1.2l1-0.3c1.4-0.4,2.8-0.7,4.2-1.1l1-0.2c1.4-0.4,2.9-0.7,4.3-1
		c0.3-0.1,0.6-0.1,0.9-0.2c1.5-0.3,2.9-0.6,4.4-0.9l0.9-0.2c1.5-0.3,3-0.6,4.5-0.8l0.8-0.1c1.5-0.3,3.1-0.5,4.6-0.7l0.7-0.1
		c1.6-0.2,3.1-0.4,4.7-0.6l0.6-0.1c1.6-0.2,3.2-0.4,4.8-0.5l0.5,0c1.7-0.2,3.3-0.3,5-0.4l0.4,0c1.7-0.1,3.5-0.2,5.2-0.3h0L250,45.7
		L260.2,28c1.1,0.1,2.3,0.1,3.4,0.2c1.6,0.1,3.2,0.2,4.8,0.3c1.4,0.1,2.8,0.2,4.2,0.4c1.1,0.1,2.2,0.2,3.4,0.4
		c1.2,0.1,2.4,0.3,3.6,0.5c1.1,0.1,2.2,0.3,3.3,0.5c1.6,0.2,3.1,0.5,4.7,0.8c1.5,0.3,3,0.5,4.4,0.8c1.2,0.2,2.4,0.5,3.6,0.7
		c1.1,0.2,2.2,0.5,3.3,0.7c1.2,0.3,2.3,0.5,3.4,0.8c1.1,0.3,2.1,0.5,3.2,0.8c1.9,0.5,3.9,1,5.8,1.6c1,0.3,2.1,0.6,3.1,0.9
		c1.1,0.3,2.2,0.7,3.3,1c1.1,0.3,2.1,0.7,3.2,1.1c1.1,0.4,2.3,0.8,3.4,1.2c1.3,0.4,2.5,0.9,3.8,1.4c1.6,0.6,3.1,1.2,4.7,1.8
		c1,0.4,2,0.8,3,1.3c1.1,0.4,2.1,0.9,3.2,1.4c1,0.4,2,0.9,3,1.3c1.2,0.5,2.3,1.1,3.5,1.6c0.7,0.4,1.5,0.7,2.2,1.1l0.1,0
		c0.4,0.2,0.8,0.4,1.2,0.6c1.4,0.7,2.8,1.4,4.2,2.2c0.8,0.4,1.7,0.9,2.5,1.4c1.2,0.7,2.4,1.3,3.6,2c0.6,0.4,1.3,0.7,1.9,1.1l0.4,0.2
		c1.7,1,3.4,2,5,3c0.8,0.5,1.5,1,2.3,1.4c1.1,0.7,2.3,1.5,3.4,2.2c0.6,0.4,1.2,0.8,1.8,1.2l0.4,0.3c1.6,1.1,3.2,2.2,4.8,3.4
		c0.7,0.5,1.3,1,2,1.5c1.1,0.8,2.3,1.7,3.4,2.5c0.5,0.4,1.1,0.8,1.6,1.3l0.5,0.4c1.4,1.1,2.7,2.1,4,3.2c0.3,0.2,0.5,0.4,0.8,0.6
		c0.5,0.4,0.9,0.8,1.4,1.1c1.2,1,2.3,2,3.5,3c0.5,0.4,1,0.8,1.4,1.3l0.6,0.5c1.1,1,2.3,2.1,3.4,3.1c0.5,0.4,1,0.9,1.4,1.3l0.4,0.4
		c1.3,1.2,2.6,2.5,3.9,3.8l1.2,1.2l0.7,0.7c1,1,2,2.1,3,3.2c0.5,0.6,1.1,1.2,1.6,1.8c1.3,1.4,2.6,2.9,3.9,4.3c0.3,0.4,0.7,0.8,1,1.2
		l0.6,0.8c0.9,1.1,1.8,2.2,2.8,3.3c0.6,0.7,1.1,1.4,1.7,2c1.1,1.4,2.2,2.9,3.3,4.3c0.1,0.1,0.2,0.2,0.3,0.4c0.3,0.3,0.5,0.7,0.8,1
		c0.2,0.3,0.4,0.5,0.6,0.8c0.9,1.2,1.7,2.4,2.6,3.6c0.5,0.8,1.1,1.5,1.6,2.3c0.8,1.2,1.6,2.4,2.5,3.6c0.3,0.5,0.7,1,1,1.6
		c0.1,0.2,0.3,0.4,0.4,0.6c0.1,0.2,0.2,0.3,0.3,0.5c0.9,1.4,1.7,2.7,2.6,4.1c0.5,0.8,1,1.6,1.5,2.5c0.7,1.1,1.3,2.3,2,3.4
		c0.4,0.8,0.9,1.5,1.3,2.3c0.9,1.7,1.9,3.4,2.8,5.1c0.5,1,1,2,1.5,3.1c0.3,0.6,0.6,1.3,0.9,1.9c0.6,1.2,1.1,2.3,1.7,3.5
		c0.3,0.6,0.6,1.2,0.8,1.8c0.5,1.2,1.1,2.4,1.6,3.6c0.2,0.6,0.5,1.1,0.7,1.7c0.5,1.3,1.1,2.6,1.6,3.8c0.1,0.3,0.3,0.7,0.4,1
		c1.8,4.6,3.5,9.3,5,14.1c0.1,0.4,0.2,0.7,0.4,1.1C462.6,184.9,463,186.2,463.4,187.6z"/>
</g>
</svg>
