<?xml version="1.0" encoding="utf-8"?>
<!-- Generator: Adobe Illustrator 23.1.0, SVG Export Plug-In . SVG Version: 6.00 Build 0)  -->
<svg version="1.1" id="Layer_1" xmlns="http://www.w3.org/2000/svg" xmlns:xlink="http://www.w3.org/1999/xlink" x="0px" y="0px"
	 viewBox="0 0 199.5 84.5" style="enable-background:new 0 0 199.5 84.5;" xml:space="preserve">
<style type="text/css">
	.st0{fill:#FFFFFF;}
</style>
<g>
	<g id="Group_2" transform="translate(6.105 6.594)">
		<path id="Path_3" class="st0" d="M4.6,0c0.6,0,1.2,0.1,1.7,0.3c0.4,0.2,0.8,0.5,1.1,0.9C7.8,1.6,8,2.1,8.1,2.5
			C8.3,3,8.3,3.5,8.3,4c0,0.6-0.1,1.2-0.3,1.8C7.8,6.3,7.5,6.7,7.2,7.1C6.8,7.4,6.3,7.7,5.9,7.8C5.3,8,4.7,8.1,4.2,8.1H2.7v5.4H0V0
			H4.6z M3.8,6.1c0.5,0,1-0.1,1.3-0.5c0.4-0.4,0.5-1,0.5-1.5c0-0.5-0.1-1.1-0.4-1.5C4.8,2.1,4.3,1.9,3.7,2H2.6v4.2H3.8z"/>
	</g>
	<g id="Group_3" transform="translate(15.711 6.594)">
		<path id="Path_4" class="st0" d="M2.5,0v4.4l0,0C3,3.5,4,3,5,3.1c0.7,0,1.4,0.2,1.9,0.7C7.3,4.4,7.5,5.2,7.5,6v7.6H5v-7
			c0-0.4,0-0.8-0.2-1.1C4.5,5.1,4.2,5,3.9,5.1C3,5.1,2.5,5.6,2.5,6.8v6.8H0V0H2.5z"/>
	</g>
	<g id="Group_4" transform="translate(24.584 9.687)">
		<path id="Path_5" class="st0" d="M2.5,6.6c0,0.3,0,0.6,0.1,0.9c0.1,0.2,0.1,0.6,0.2,0.7c0.1,0.2,0.2,0.4,0.4,0.6
			C3.4,8.9,3.6,9,3.8,9c0.4,0,0.8-0.2,1-0.5C5,8,5.2,7.5,5.2,7h2.3c0,1-0.3,1.9-0.9,2.7c-0.7,0.7-1.7,1-2.7,0.9
			c-0.8,0-1.5-0.1-2.2-0.5C1.2,9.8,0.8,9.4,0.6,8.9C0.3,8.3,0.2,7.8,0.1,7.2C-0.1,5.9,0,4.6,0.2,3.3c0.1-0.6,0.2-1.2,0.6-1.7
			C1,1,1.4,0.6,1.9,0.4C2.6,0.1,3.3-0.1,4.1,0c0.6,0,1.2,0.1,1.8,0.4C6.3,0.6,6.7,1,7,1.5C7.3,2,7.5,2.5,7.6,3.1
			c0.1,0.7,0.2,1.4,0.2,2.1v0.6h-5v0.8L2.5,6.6z M5,3.2c0-0.3-0.1-0.5-0.2-0.7C4.8,2.2,4.7,2.1,4.5,2C4.1,1.7,3.6,1.7,3.2,2
			C3,2.1,2.8,2.2,2.8,2.4C2.7,2.7,2.6,2.9,2.5,3.1C2.5,3.3,2.4,3.6,2.4,3.8v0.3H5C5.1,3.8,5.1,3.5,5,3.2"/>
	</g>
	<g id="Group_5" transform="translate(33.538 9.687)">
		<path id="Path_6" class="st0" d="M2.4,0.2v1.2l0,0C2.7,1,3,0.6,3.5,0.3C3.9,0.1,4.5,0,5,0c0.7,0,1.4,0.2,1.9,0.7
			c0.5,0.6,0.7,1.4,0.7,2.2v7.6H5v-7c0-0.4,0-0.8-0.2-1.1C4.5,2,4.2,1.9,3.9,2C3,2,2.5,2.5,2.5,3.7v6.8H0V0.2H2.4z"/>
	</g>
	<g id="Group_6" transform="translate(42.167 9.931)">
		<path id="Path_7" class="st0" d="M1.5,11.6c0.4,0,0.7-0.1,1-0.4c0.2-0.3,0.4-0.6,0.3-1L0,0h2.7l1.5,7.1l0,0L5.5,0H8L5.5,9.5
			c-0.2,0.7-0.4,1.4-0.7,2c-0.2,0.4-0.4,0.9-0.7,1.2c-0.3,0.3-0.6,0.5-1,0.6c-0.5,0.1-1,0.2-1.5,0.2H0.7v-2H1.5"/>
	</g>
	<g id="Group_7" transform="translate(51.284 6.594)">
		<rect id="Rectangle_2" x="0" y="0" class="st0" width="2.5" height="13.5"/>
	</g>
	<g id="Group_8" transform="translate(55.761 9.606)">
		<path id="Path_8" class="st0" d="M2.4,0.3v1.1l0,0c0.2-0.4,0.6-0.8,1-1.1C3.7,0.1,4.2,0,4.6,0c0.9-0.1,1.8,0.4,2.3,1.2
			c0.6,1.3,0.8,2.7,0.7,4.1c0.1,1.4-0.2,2.8-0.7,4.1c-0.5,0.8-1.4,1.3-2.3,1.2c-0.4,0-0.8-0.1-1.2-0.2C3,10.1,2.7,9.8,2.5,9.4l0,0
			v4.2H0V0.3H2.4z M2.7,7.9c0.1,0.5,0.6,0.9,1.1,0.8c0.5,0,1-0.3,1.1-0.8c0.2-0.8,0.3-1.7,0.2-2.5c0-0.8-0.1-1.7-0.2-2.5
			C4.8,2.3,4.3,2,3.8,2C3.3,2,2.8,2.3,2.7,2.8C2.5,3.7,2.4,4.5,2.4,5.4C2.4,6.2,2.5,7.1,2.7,7.9"/>
	</g>
	<g id="Group_9" transform="translate(65.041 9.687)">
		<path id="Path_9" class="st0" d="M2.4,0.2v1.4l0,0c0.2-0.5,0.6-0.9,1-1.2C3.7,0.1,4.2,0,4.7,0h0.5v2.5H4.4c-0.2,0-0.4,0-0.7,0.1
			C3.5,2.7,3.3,2.8,3.1,2.9C2.9,3.1,2.8,3.3,2.7,3.5C2.6,3.8,2.5,4.1,2.5,4.4v6.1H0V0.2H2.4z"/>
	</g>
	<g id="Group_10" transform="translate(70.821 9.606)">
		<path id="Path_10" class="st0" d="M0.2,3.1c0.1-0.6,0.3-1.2,0.7-1.7C1.1,0.9,1.5,0.6,2,0.3c1.2-0.4,2.5-0.4,3.7,0
			c0.5,0.2,0.9,0.6,1.2,1C7.3,1.8,7.5,2.4,7.7,3c0.1,0.8,0.2,1.6,0.2,2.4c0,0.8-0.1,1.5-0.2,2.3C7.5,8.3,7.2,8.8,6.9,9.4
			c-0.3,0.5-0.7,0.8-1.2,1c-1.2,0.4-2.5,0.4-3.7,0c-0.5-0.2-0.9-0.6-1.2-1C0.4,8.8,0.2,8.3,0.1,7.6C0,6.9,0,6.2,0,5.4
			C0,4.7,0,3.9,0.2,3.1 M2.5,6.8c0,0.4,0.1,0.8,0.2,1.1c0.1,0.3,0.2,0.5,0.4,0.7C3.3,8.9,3.6,9,3.8,8.9c0.5,0,1-0.3,1.1-0.8
			c0.2-0.9,0.3-1.8,0.3-2.8c0.1-0.9,0-1.9-0.3-2.8C4.8,2.1,4.3,1.8,3.8,1.8C3.6,1.8,3.3,1.9,3.1,2C2.9,2.2,2.8,2.5,2.7,2.8
			C2.6,3.1,2.5,3.5,2.5,3.9V6.8"/>
	</g>
	<g id="Group_11" transform="translate(80.101 9.606)">
		<path id="Path_11" class="st0" d="M2.4,0.3v1.1l0,0c0.2-0.4,0.6-0.8,1-1.1C3.7,0.1,4.2,0,4.6,0c0.9-0.1,1.8,0.4,2.3,1.2
			c0.6,1.3,0.8,2.7,0.7,4.1c0.1,1.4-0.2,2.8-0.7,4.1c-0.5,0.8-1.4,1.3-2.3,1.2c-0.4,0-0.8-0.1-1.2-0.2C3,10.1,2.7,9.8,2.5,9.4l0,0
			v4.2H0V0.3H2.4z M2.8,7.9c0.1,0.5,0.6,0.9,1.1,0.8c0.5,0,1-0.3,1.1-0.8c0.2-0.8,0.3-1.7,0.2-2.5c0-0.8-0.1-1.7-0.2-2.5
			C4.9,2.3,4.4,2,3.9,2C3.4,2,2.9,2.3,2.8,2.8C2.6,3.7,2.5,4.5,2.5,5.4C2.4,6.2,2.5,7.1,2.8,7.9"/>
	</g>
	<g id="Group_12" transform="translate(88.974 9.606)">
		<path id="Path_12" class="st0" d="M0.3,3.2c0-0.5,0.1-1,0.2-1.5C0.7,1.3,1,1,1.3,0.7C1.6,0.5,2,0.3,2.4,0.2C2.9,0.1,3.4,0,3.8,0
			c0.6,0,1.3,0.1,1.9,0.2c0.4,0.1,0.8,0.4,1.1,0.7c0.3,0.3,0.4,0.6,0.5,1c0.1,0.4,0.1,0.8,0.2,1.2v5.4c0,0.4,0,0.8,0.1,1.1
			c0.1,0.2,0.2,0.6,0.2,0.8H5.3c-0.1-0.1-0.1-0.3-0.2-0.5C5.1,9.8,5,9.6,5,9.4l0,0C4.8,9.8,4.5,10.2,4,10.4c-0.5,0.2-1,0.3-1.5,0.2
			c-0.4,0-0.8-0.1-1.1-0.2C1,10.3,0.8,10,0.6,9.8c-0.2-0.3-0.3-0.6-0.4-1C0.1,8.4,0,8.1,0,7.7c0-0.4,0.1-0.8,0.2-1.2
			c0.1-0.3,0.2-0.6,0.5-0.9C0.9,5.4,1.2,5.1,1.5,5c0.4-0.2,0.7-0.3,1.1-0.4l1.5-0.4c0.3,0,0.6-0.2,0.8-0.4c0.2-0.2,0.3-0.5,0.2-0.8
			c0-0.3-0.1-0.6-0.2-0.9C4.4,1.6,3.6,1.6,3.1,2C2.9,2.3,2.8,2.7,2.8,3v0.4H0.5V3.2L0.3,3.2z M4.4,5.8C4.2,5.9,4,5.9,3.8,5.9
			C3.4,6,3,6.2,2.7,6.5C2.4,6.8,2.3,7.2,2.4,7.6c0,0.3,0.1,0.7,0.2,1C2.8,8.8,3,9,3.3,8.9c0.2,0,0.4,0,0.6-0.1l0.5-0.2
			c0.2-0.2,0.2-0.3,0.4-0.5C4.9,7.9,5,7.7,5,7.4v-2C4.8,5.6,4.6,5.7,4.4,5.8"/>
	</g>
	<g id="Group_13" transform="translate(98.254 9.687)">
		<path id="Path_13" class="st0" d="M2.4,0.2v1.2l0,0C2.7,1,3,0.6,3.5,0.3C3.9,0.1,4.5,0,5,0c0.7,0,1.4,0.2,1.9,0.7
			c0.5,0.6,0.7,1.4,0.7,2.2v7.6H5v-7c0-0.4,0-0.8-0.2-1.1C4.5,2,4.2,1.9,3.9,2C3,2,2.5,2.5,2.5,3.7v6.8H0V0.2H2.4z"/>
	</g>
	<g id="Group_14" transform="translate(107.127 9.606)">
		<path id="Path_14" class="st0" d="M0.2,3.1c0.1-0.6,0.3-1.2,0.7-1.7c0.3-0.5,0.7-0.8,1.2-1.1c1.2-0.4,2.5-0.4,3.7,0
			c0.5,0.2,0.9,0.6,1.2,1C7.4,1.8,7.6,2.4,7.7,3c0.1,0.8,0.2,1.6,0.2,2.4c0,0.8-0.1,1.5-0.2,2.3C7.5,8.3,7.3,8.8,7,9.4
			c-0.3,0.5-0.7,0.8-1.2,1c-1.2,0.4-2.5,0.4-3.7,0c-0.5-0.2-0.9-0.6-1.2-1C0.5,8.8,0.3,8.3,0.2,7.7C0,6.9,0,6.1,0,5.3
			C0,4.6,0.1,3.8,0.2,3.1 M2.6,6.8c0,0.4,0.1,0.8,0.2,1.1C2.8,8.3,3,8.5,3.2,8.7C3.4,8.9,3.6,9,3.9,9c0.5,0,1-0.3,1.1-0.8
			c0.2-0.9,0.3-1.8,0.3-2.8c0.1-0.9,0-1.9-0.3-2.8C4.9,2.1,4.4,1.8,3.9,1.8C3.6,1.8,3.4,1.9,3.2,2C3,2.2,2.8,2.5,2.8,2.8
			C2.7,3.1,2.6,3.5,2.6,3.9V6.8"/>
	</g>
	<g id="Group_15" transform="translate(116.488 6.594)">
		<rect id="Rectangle_3" x="0" y="0" class="st0" width="2.5" height="13.5"/>
	</g>
	<g id="Group_16" transform="translate(120.477 9.606)">
		<path id="Path_15" class="st0" d="M0.3,3.2c0-0.5,0.1-1,0.2-1.5C0.7,1.3,1,1,1.3,0.7C1.6,0.5,2,0.3,2.4,0.2C2.9,0.1,3.4,0,3.8,0
			c0.6,0,1.3,0.1,1.9,0.2c0.4,0.1,0.8,0.4,1.1,0.7c0.3,0.3,0.4,0.6,0.5,1c0.1,0.4,0.1,0.8,0.2,1.2v5.4c0,0.4,0,0.8,0.1,1.1
			c0.1,0.2,0.2,0.6,0.2,0.8H5.3c-0.1-0.1-0.1-0.3-0.2-0.5C5.1,9.8,5,9.6,5,9.4l0,0C4.8,9.8,4.5,10.2,4,10.4c-0.5,0.2-1,0.3-1.5,0.2
			c-0.4,0-0.8-0.1-1.1-0.2C1,10.3,0.8,10,0.6,9.8c-0.2-0.3-0.3-0.6-0.4-1C0.1,8.4,0,8.1,0,7.7c0-0.4,0.1-0.8,0.2-1.2
			c0.1-0.3,0.2-0.6,0.5-0.9C0.9,5.4,1.2,5.1,1.5,5c0.4-0.2,0.7-0.3,1.1-0.4l1.5-0.4c0.3,0,0.6-0.2,0.8-0.4c0.2-0.2,0.3-0.5,0.2-0.8
			c0-0.3-0.1-0.6-0.2-0.9C4.4,1.6,3.6,1.6,3.1,2C2.9,2.3,2.8,2.7,2.8,3v0.4H0.5V3.2L0.3,3.2z M4.5,5.8C4.3,5.9,4.1,5.9,3.9,5.9
			C3.5,6,3.1,6.2,2.8,6.5C2.5,6.8,2.4,7.2,2.4,7.6c0,0.3,0.1,0.7,0.2,1C2.8,8.8,3.1,9,3.4,8.9c0.2,0,0.4,0,0.6-0.1l0.5-0.2
			c0.2-0.2,0.2-0.3,0.4-0.5C5,7.9,5.1,7.7,5,7.4v-2C4.9,5.5,4.7,5.7,4.5,5.8"/>
	</g>
	<g id="Group_17" transform="translate(129.839 9.687)">
		<path id="Path_16" class="st0" d="M2.4,0.2v1.1l0,0c0.2-0.4,0.6-0.8,1.1-1C3.9,0.1,4.4,0,4.9,0c0.5,0,1,0.1,1.5,0.4
			c0.4,0.3,0.7,0.7,0.8,1.2l0,0c0.1-0.5,0.5-1,1-1.2C8.6,0.1,9.1,0,9.7,0c0.7-0.1,1.4,0.2,1.9,0.8c0.4,0.7,0.6,1.5,0.6,2.3v7.4H9.6
			V3.3c0-0.3-0.1-0.7-0.2-1C9.2,2.1,8.9,2,8.6,2c-0.4,0-0.7,0.1-1,0.4C7.4,2.8,7.3,3.3,7.3,3.7v6.7H4.8V3.3c0-0.3-0.1-0.7-0.2-1
			C4.4,2.1,4.1,2,3.8,2c-0.4,0-0.7,0.1-1,0.4C2.6,2.8,2.5,3.3,2.5,3.7v6.7H0V0.2H2.4z"/>
	</g>
	<g id="Group_18" transform="translate(144.003 6.431)">
		<path id="Path_17" class="st0" d="M2.5,2.3H0V0h2.5L2.5,2.3z M2.5,13.7H0V3.5h2.5L2.5,13.7z"/>
	</g>
	<g id="Group_19" transform="translate(148.317 9.687)">
		<path id="Path_18" class="st0" d="M2.4,0.2v1.2l0,0C2.7,1,3,0.6,3.5,0.3C3.9,0.1,4.5,0,5,0c0.7,0,1.4,0.2,1.9,0.7
			c0.5,0.6,0.7,1.4,0.7,2.2v7.6H5v-7c0-0.4,0-0.8-0.2-1.1C4.5,2,4.2,1.9,3.9,2C3,2,2.5,2.5,2.5,3.7v6.8H0V0.2H2.4z"/>
	</g>
	<g id="Group_20" transform="translate(157.271 9.687)">
		<path id="Path_19" class="st0" d="M2.5,6.6c0,0.3,0,0.6,0.1,0.9c0.1,0.2,0.1,0.6,0.2,0.7c0.1,0.2,0.2,0.4,0.4,0.6
			C3.4,8.9,3.6,9,3.8,9c0.4,0,0.8-0.2,1-0.5C5,8,5.2,7.5,5.2,7h2.3c0,1-0.3,1.9-0.9,2.7c-0.7,0.7-1.7,1-2.7,0.9
			c-0.8,0-1.5-0.1-2.2-0.5C1.2,9.8,0.8,9.4,0.6,8.9C0.3,8.3,0.1,7.8,0.1,7.2C-0.1,5.9,0,4.6,0.2,3.3c0.1-0.6,0.2-1.2,0.6-1.7
			C1,1,1.4,0.6,1.9,0.4C2.6,0.1,3.3-0.1,4.1,0c0.6,0,1.2,0.1,1.8,0.4C6.3,0.7,6.7,1,7,1.5C7.3,2,7.5,2.5,7.6,3.1
			c0.1,0.7,0.2,1.4,0.2,2.1v0.6h-5v0.8L2.5,6.6z M5,3.2C5,2.9,5,2.7,4.9,2.4C4.8,2.2,4.7,2.1,4.5,2C4.1,1.7,3.6,1.7,3.2,2
			C3,2.1,2.8,2.2,2.8,2.4C2.7,2.7,2.6,2.9,2.5,3.1C2.5,3.3,2.4,3.6,2.4,3.8v0.3H5C5.1,3.8,5.1,3.5,5,3.2"/>
	</g>
	<path id="Path_20" class="st0" d="M173.4,6.6v5.2h3.1V6.6h2.7v13.5h-2.7v-6h-3.1v6h-2.7V6.6H173.4z"/>
	<path id="Path_21" class="st0" d="M186.3,9c-0.2-0.5-0.7-0.7-1.2-0.7c-0.7,0-1.3,0.5-1.3,1.1c-0.2,0.5-0.3,1.1-0.2,1.6
		c-0.1,0.8-0.1,1.6-0.1,2.4c0,0.8,0,1.7,0.1,2.5c0,0.5,0.1,1,0.3,1.5c0.1,0.3,0.3,0.5,0.6,0.7c0.2,0.1,0.5,0.1,0.7,0.2
		c0.2,0,0.4-0.1,0.7-0.2c0.2-0.1,0.4-0.3,0.5-0.5c0.2-0.3,0.3-0.7,0.3-1.1c0.1-0.6,0.2-1.2,0.2-1.8h2.7c0,0.7-0.1,1.4-0.2,2.1
		c-0.1,0.6-0.3,1.2-0.7,1.7c-0.3,0.5-0.8,0.9-1.3,1.1c-0.7,0.3-1.4,0.4-2.1,0.4c-0.8,0-1.6-0.1-2.4-0.5c-0.6-0.3-1.1-0.8-1.4-1.4
		c-0.3-0.7-0.5-1.4-0.7-2.2c-0.1-0.9-0.2-1.8-0.2-2.8s0.1-2,0.2-2.8c0.1-0.8,0.3-1.5,0.7-2.2c0.3-0.6,0.8-1.1,1.4-1.5
		c0.7-0.4,1.5-0.5,2.4-0.5c0.8,0,1.6,0.1,2.3,0.5c0.5,0.3,0.9,0.7,1.2,1.2c0.2,0.5,0.4,1,0.5,1.5c0.1,0.5,0.1,1,0.1,1.5h-2.7
		C186.7,10.5,186.6,9.7,186.3,9"/>
	<rect id="Rectangle_4" x="191" y="6.6" class="st0" width="2.5" height="13.5"/>
	<g id="Group_21" transform="translate(8.629 24.909)">
		<path id="Path_22" class="st0" d="M5.6,2.6C5.4,2.2,4.9,1.9,4.4,2c-0.7,0-1.3,0.5-1.3,1.1C2.9,3.6,2.8,4.2,2.9,4.7
			C2.8,5.5,2.8,6.3,2.8,7.2c0,0.8,0,1.7,0.1,2.5c0,0.5,0.1,1,0.3,1.5c0.1,0.3,0.3,0.5,0.6,0.7C4,12,4.2,12,4.5,12
			c0.2,0,0.4-0.1,0.7-0.2c0.2-0.1,0.4-0.3,0.5-0.5c0.2-0.3,0.3-0.7,0.3-1.1C6,9.8,6.1,9.2,6.1,8.6h2.7c0,0.7-0.1,1.4-0.2,2.1
			c-0.1,0.6-0.3,1.2-0.7,1.7c-0.3,0.5-0.8,0.9-1.3,1.1c-0.7,0.3-1.4,0.4-2.1,0.4c-0.8,0-1.6-0.1-2.4-0.5c-0.6-0.3-1.1-0.8-1.4-1.4
			c-0.3-0.7-0.5-1.4-0.7-2.2C0.1,9,0,8.1,0,7s0.1-2,0.2-2.8C0.2,3.4,0.4,2.6,0.8,2c0.3-0.6,0.8-1.1,1.4-1.5C2.9,0.1,3.7,0,4.6,0
			c0.8,0,1.6,0.1,2.3,0.5c0.5,0.3,0.9,0.7,1.2,1.2c0.2,0.5,0.4,1,0.5,1.5c0.1,0.5,0.1,1,0.1,1.5H5.9C6,4.1,5.9,3.3,5.6,2.6"/>
	</g>
	<g id="Group_22" transform="translate(18.886 25.154)">
		<path id="Path_23" class="st0" d="M2.5,0v4.4l0,0C3,3.5,4,3,5,3.1c0.7,0,1.4,0.2,1.9,0.7C7.3,4.4,7.5,5.2,7.5,6v7.6H5v-7
			c0-0.4,0-0.8-0.2-1.1C4.5,5.1,4.2,5,3.9,5.1C3,5.1,2.5,5.6,2.5,6.8v6.8H0V0H2.5z"/>
	</g>
	<g id="Group_23" transform="translate(28.166 25.154)">
		<rect id="Rectangle_5" x="0" y="0" class="st0" width="2.5" height="13.5"/>
	</g>
	<g id="Group_24" transform="translate(32.154 28.166)">
		<path id="Path_24" class="st0" d="M0.2,3.1c0.1-0.6,0.3-1.2,0.7-1.7c0.3-0.5,0.7-0.8,1.2-1.1C2.7,0.1,3.3,0,4,0
			c0.6,0,1.3,0.1,1.9,0.3c0.5,0.2,0.9,0.6,1.2,1C7.4,1.8,7.6,2.4,7.7,3c0.1,0.8,0.2,1.6,0.2,2.4c0,0.8-0.1,1.5-0.2,2.3
			C7.5,8.3,7.3,8.8,7,9.4c-0.3,0.5-0.7,0.8-1.2,1c-0.6,0.2-1.2,0.4-1.9,0.3c-0.6,0-1.3-0.1-1.9-0.3c-0.5-0.2-0.9-0.6-1.2-1
			C0.5,8.8,0.3,8.3,0.2,7.7C0,6.9,0,6.1,0,5.3C0.1,4.6,0.2,3.7,0.2,3.1 M2.7,6.8c0,0.4,0.1,0.8,0.2,1.1c0.1,0.3,0.2,0.5,0.4,0.7
			C3.5,8.9,3.7,9,4,9c0.5,0,1-0.3,1.1-0.8c0.2-0.9,0.3-1.8,0.3-2.8c0.1-0.9,0-1.9-0.3-2.8C4.9,2.1,4.5,1.8,4,1.8
			C3.7,1.8,3.5,1.9,3.3,2C3.1,2.2,2.9,2.5,2.8,2.8C2.7,3.1,2.7,3.5,2.7,3.9v1.5C2.6,5.9,2.6,6.4,2.7,6.8"/>
	</g>
	<g id="Group_25" transform="translate(41.516 28.247)">
		<path id="Path_25" class="st0" d="M2.4,0.2v1.4l0,0c0.2-0.5,0.6-0.9,1-1.2C3.7,0.1,4.2,0,4.7,0h0.5v2.5H4.4c-0.2,0-0.4,0-0.7,0.1
			C3.5,2.7,3.3,2.8,3.1,2.9C2.9,3.1,2.8,3.3,2.7,3.5C2.6,3.8,2.5,4.1,2.5,4.4v6.1H0V0.2H2.4z"/>
	</g>
	<g id="Group_26" transform="translate(47.702 28.166)">
		<path id="Path_26" class="st0" d="M2.4,0.3v1.1l0,0c0.2-0.4,0.6-0.8,1-1.1C3.7,0.1,4.2,0,4.6,0c0.9-0.1,1.8,0.4,2.3,1.2
			c0.6,1.3,0.8,2.7,0.7,4.1c0.1,1.4-0.2,2.8-0.7,4.1c-0.5,0.8-1.4,1.3-2.3,1.2c-0.4,0-0.8-0.1-1.2-0.2C3,10.1,2.7,9.8,2.5,9.4l0,0
			v4.2H0V0.3H2.4z M2.8,7.9c0.1,0.5,0.6,0.9,1.1,0.8c0.5,0,1-0.3,1.1-0.8c0.2-0.8,0.3-1.7,0.2-2.5c0-0.8-0.1-1.7-0.2-2.5
			C4.9,2.3,4.4,2,3.9,2C3.4,2,2.9,2.3,2.8,2.8C2.6,3.7,2.5,4.5,2.5,5.4C2.5,6.2,2.6,7.1,2.8,7.9"/>
	</g>
	<g id="Group_27" transform="translate(56.982 25.154)">
		<path id="Path_27" class="st0" d="M2.5,0v4.4l0,0C3,3.5,4,3,5,3.1c0.7,0,1.4,0.2,1.9,0.7C7.3,4.4,7.5,5.2,7.5,6v7.6H5v-7
			c0-0.4,0-0.8-0.2-1.1C4.5,5.1,4.2,5,3.9,5.1C3,5.1,2.5,5.6,2.5,6.8v6.8H0V0H2.5z"/>
	</g>
	<g id="Group_28" transform="translate(65.774 28.166)">
		<path id="Path_28" class="st0" d="M2.6,6.6c0,0.3,0,0.6,0.1,0.9c0.1,0.2,0.1,0.6,0.2,0.7C3,8.4,3.2,8.6,3.3,8.8
			C3.5,8.9,3.7,9,3.9,9c0.4,0,0.8-0.2,1-0.5C5.1,8,5.2,7.5,5.3,7h2.2c0,1-0.3,1.9-0.9,2.7c-0.7,0.7-1.7,1-2.7,0.9
			c-0.8,0-1.5-0.1-2.2-0.5C1.2,9.8,0.8,9.4,0.6,8.9C0.3,8.3,0.1,7.8,0.1,7.2C-0.1,5.9,0,4.6,0.2,3.3c0.1-0.6,0.2-1.2,0.6-1.7
			C1,1,1.4,0.6,1.9,0.4C2.6,0.1,3.3-0.1,4.1,0c0.6,0,1.2,0.1,1.8,0.4C6.3,0.6,6.7,1,7,1.5C7.3,2,7.5,2.5,7.6,3.1
			c0.1,0.7,0.2,1.4,0.2,2.1v0.6H2.6V6.6z M5.1,3.3C5.1,3,5.1,2.8,5,2.5C4.9,2.3,4.7,2.1,4.6,2C4.1,1.8,3.7,1.8,3.3,2
			C3.1,2.1,2.9,2.3,2.8,2.5C2.8,2.7,2.7,3,2.6,3.2c0,0.2,0,0.4,0,0.7v0.4h2.6C5.2,3.9,5.2,3.6,5.1,3.3"/>
	</g>
	<g id="Group_29" transform="translate(74.81 28.247)">
		<path id="Path_29" class="st0" d="M2.4,0.2v1.2l0,0C2.7,1,3,0.6,3.5,0.3C3.9,0.1,4.5,0,5,0c0.7,0,1.4,0.2,1.9,0.7
			c0.5,0.6,0.7,1.4,0.7,2.2v7.6H5v-7c0-0.4,0-0.8-0.2-1.1C4.5,2,4.2,1.9,3.9,2C3,2,2.5,2.5,2.5,3.7v6.8H0V0.2H2.4z"/>
	</g>
	<g id="Group_30" transform="translate(83.683 28.166)">
		<path id="Path_30" class="st0" d="M0.3,3.2c0-0.5,0.1-1,0.2-1.5C0.7,1.3,1,1,1.3,0.7C1.6,0.5,2,0.3,2.4,0.2C2.9,0.1,3.4,0,3.8,0
			c0.6,0,1.3,0.1,1.9,0.2c0.4,0.1,0.8,0.4,1.1,0.7c0.3,0.3,0.4,0.6,0.5,1c0.1,0.4,0.1,0.8,0.2,1.2v5.4c0,0.4,0,0.8,0.1,1.1
			c0.1,0.2,0.2,0.6,0.2,0.8H5.3c-0.1-0.1-0.1-0.3-0.2-0.5C5.1,9.8,5,9.6,5,9.4l0,0C4.8,9.8,4.5,10.2,4,10.4c-0.5,0.2-1,0.3-1.5,0.2
			c-0.4,0-0.8-0.1-1.1-0.2C1,10.3,0.8,10,0.6,9.8c-0.2-0.3-0.3-0.6-0.4-1C0.1,8.4,0,8.1,0,7.7c0-0.4,0.1-0.8,0.2-1.2
			c0.1-0.3,0.2-0.6,0.5-0.9C0.9,5.4,1.2,5.1,1.5,5c0.4-0.2,0.7-0.3,1.1-0.4l1.5-0.4c0.3,0,0.6-0.2,0.8-0.4c0.2-0.2,0.3-0.5,0.2-0.8
			c0-0.3-0.1-0.6-0.2-0.9C4.4,1.6,3.6,1.6,3.1,2C2.9,2.3,2.8,2.7,2.8,3v0.2H0.5V3.2L0.3,3.2z M4.5,5.8C4.3,5.9,4.1,5.9,3.9,5.9
			C3.5,6,3.1,6.2,2.8,6.5C2.5,6.8,2.4,7.2,2.4,7.6c0,0.3,0.1,0.7,0.2,1C2.8,8.8,3.1,9,3.4,9c0.2,0,0.4,0,0.6-0.1l0.5-0.2
			c0.2-0.2,0.2-0.3,0.4-0.5C5,7.9,5.1,7.7,5,7.4v-2C4.9,5.5,4.7,5.7,4.5,5.8"/>
	</g>
	<g id="Group_31" transform="translate(93.044 28.247)">
		<path id="Path_31" class="st0" d="M2.4,0.2v1.1l0,0c0.2-0.4,0.6-0.8,1.1-1C3.9,0.1,4.4,0,4.9,0c0.5,0,1,0.1,1.5,0.4
			c0.4,0.3,0.7,0.7,0.8,1.2l0,0c0.1-0.5,0.5-1,1-1.2C8.6,0.1,9.1,0,9.7,0c0.7-0.1,1.4,0.2,1.9,0.8c0.4,0.7,0.6,1.5,0.6,2.3v7.4H9.6
			V3.3c0-0.3-0.1-0.7-0.2-1C9.2,2.1,8.9,2,8.6,2c-0.4,0-0.7,0.1-1,0.4C7.4,2.8,7.3,3.3,7.3,3.7v6.7H4.8V3.3c0-0.3-0.1-0.7-0.2-1
			C4.4,2,4.1,1.9,3.8,2c-0.4,0-0.7,0.1-1,0.4C2.6,2.7,2.5,3.2,2.5,3.7v6.7H0V0.2H2.4z"/>
	</g>
	<g id="Group_32" transform="translate(107.127 24.991)">
		<path id="Path_32" class="st0" d="M2.5,2.2H0V0h2.5V2.2z M2.5,13.7H0V3.5h2.5V13.7z"/>
	</g>
	<g id="Group_33" transform="translate(111.523 28.247)">
		<path id="Path_33" class="st0" d="M2.4,0.2v1.2l0,0C2.7,1,3,0.6,3.5,0.3C3.9,0.1,4.5,0,5,0c0.7,0,1.4,0.2,1.9,0.7
			c0.5,0.6,0.7,1.4,0.7,2.2v7.6H5v-7c0-0.4,0-0.8-0.2-1.1C4.5,2,4.2,1.9,3.9,2C3,2,2.5,2.5,2.5,3.7v6.8H0V0.2H2.4z"/>
	</g>
	<g id="Group_34" transform="translate(120.396 28.166)">
		<path id="Path_34" class="st0" d="M2.5,6.6c0,0.3,0,0.6,0.1,0.9c0.1,0.2,0.1,0.6,0.2,0.7c0.1,0.2,0.2,0.4,0.4,0.6
			C3.4,8.9,3.6,9,3.8,9c0.4,0,0.8-0.2,1-0.5C5,8,5.2,7.5,5.2,7h2.3c0,1-0.3,1.9-0.9,2.7c-0.7,0.7-1.7,1-2.7,0.9
			c-0.8,0-1.5-0.1-2.2-0.5C1.2,9.8,0.8,9.4,0.6,8.9C0.3,8.3,0.1,7.8,0.1,7.2C-0.1,5.9,0,4.6,0.2,3.3c0.1-0.6,0.2-1.2,0.6-1.7
			C1,1,1.4,0.6,1.9,0.4C2.6,0.1,3.3-0.1,4.1,0c0.6,0,1.2,0.1,1.8,0.4C6.3,0.7,6.7,1,7,1.5C7.3,2,7.5,2.5,7.6,3.1
			c0.1,0.7,0.2,1.4,0.2,2.1v0.6H2.5L2.5,6.6z M5.1,3.3C5.1,3,5.1,2.8,5,2.5C4.9,2.3,4.7,2.1,4.6,2C4.1,1.8,3.7,1.8,3.3,2
			C3.1,2.1,2.9,2.3,2.8,2.5C2.8,2.7,2.7,3,2.6,3.2C2.5,3.4,2.5,3.7,2.5,3.9v0.4h2.6L5.1,3.3"/>
	</g>
	<g id="Group_35" transform="translate(133.909 25.154)">
		<path id="Path_35" class="st0" d="M4,0l1.9,9.5h0.1L7.8,0h4v13.5H9.4V2.7H9.3L6.9,13.5h-2L2.5,2.7H2.4v10.8H0V0H4z"/>
	</g>
	<g id="Group_36" transform="translate(147.177 28.166)">
		<path id="Path_36" class="st0" d="M0.3,3.2c0-0.5,0.1-1,0.2-1.5C0.7,1.3,1,1,1.3,0.7C1.6,0.5,2,0.3,2.4,0.2C2.9,0.1,3.4,0,3.8,0
			c0.6,0,1.3,0.1,1.9,0.2c0.4,0.1,0.8,0.4,1.1,0.7c0.3,0.3,0.4,0.6,0.5,1c0.1,0.4,0.1,0.8,0.2,1.2v5.4c0,0.4,0,0.8,0.1,1.1
			c0.1,0.2,0.2,0.6,0.2,0.8H5.3c-0.1-0.1-0.1-0.3-0.2-0.5C5.1,9.8,5,9.6,5,9.4l0,0C4.8,9.8,4.5,10.2,4,10.4c-0.5,0.2-1,0.3-1.5,0.2
			c-0.4,0-0.8-0.1-1.1-0.2C1,10.3,0.8,10,0.6,9.8c-0.2-0.3-0.3-0.6-0.4-1C0.1,8.4,0,8.1,0,7.7c0-0.4,0.1-0.8,0.2-1.2
			c0.1-0.3,0.2-0.6,0.5-0.9C0.9,5.4,1.2,5.1,1.5,5c0.4-0.2,0.7-0.3,1.1-0.4l1.5-0.4c0.3,0,0.6-0.2,0.8-0.4c0.2-0.2,0.3-0.5,0.2-0.8
			c0-0.3-0.1-0.6-0.2-0.9C4.4,1.6,3.6,1.6,3.1,2C2.9,2.3,2.8,2.7,2.8,3v0.2H0.5V3.2L0.3,3.2z M4.5,5.8C4.3,5.9,4.1,5.9,3.9,5.9
			C3.5,6,3.1,6.2,2.8,6.5C2.5,6.8,2.4,7.2,2.4,7.6c0,0.3,0.1,0.7,0.2,1C2.8,8.8,3.1,9,3.4,9c0.2,0,0.4,0,0.6-0.1l0.5-0.2
			c0.2-0.2,0.2-0.3,0.4-0.5C5,7.9,5.1,7.7,5,7.4v-2C4.8,5.5,4.6,5.7,4.5,5.8"/>
	</g>
	<g id="Group_37" transform="translate(156.539 25.154)">
		<rect id="Rectangle_6" x="0" y="0" class="st0" width="2.5" height="13.5"/>
	</g>
	<g id="Group_38" transform="translate(160.609 28.166)">
		<path id="Path_37" class="st0" d="M2.5,6.6c0,0.3,0,0.6,0.1,0.9c0.1,0.2,0.1,0.6,0.2,0.7c0.1,0.2,0.2,0.4,0.4,0.6
			C3.4,8.9,3.6,9,3.8,9c0.4,0,0.8-0.2,1-0.5C5,8,5.2,7.5,5.2,7h2.3c0,1-0.3,1.9-0.9,2.7c-0.7,0.7-1.7,1-2.7,0.9
			c-0.8,0-1.5-0.1-2.2-0.5C1.2,9.8,0.8,9.4,0.6,8.9C0.3,8.3,0.1,7.8,0.1,7.2C-0.1,5.9,0,4.6,0.2,3.3c0.1-0.6,0.2-1.2,0.6-1.7
			C1,1,1.4,0.6,1.9,0.4C2.6,0.1,3.3-0.1,4.1,0c0.6,0,1.2,0.1,1.8,0.4C6.3,0.7,6.7,1,7,1.5C7.3,2,7.5,2.5,7.6,3.1
			c0.1,0.7,0.2,1.4,0.2,2.1v0.6h-5v0.8L2.5,6.6z M5,3.3C5,3,5,2.8,4.9,2.5C4.8,2.3,4.7,2.1,4.5,2C4.1,1.8,3.6,1.8,3.2,2
			C3,2.1,2.8,2.3,2.8,2.5C2.7,2.7,2.6,3,2.5,3.2C2.5,3.4,2.4,3.7,2.4,3.9v0.4H5C5.1,4,5.1,3.6,5,3.3"/>
	</g>
	<path id="Path_38" class="st0" d="M169.5,31.3c0-0.5,0.1-1,0.2-1.5c0.1-0.4,0.4-0.7,0.7-1c0.3-0.3,0.7-0.4,1.1-0.6
		c0.5-0.1,0.9-0.2,1.4-0.2c0.6,0,1.3,0.1,1.9,0.2c0.4,0.1,0.8,0.4,1.1,0.7c0.3,0.3,0.4,0.6,0.5,1c0.1,0.4,0.1,0.8,0.2,1.2v5.4
		c0,0.4,0,0.8,0.1,1.1c0.1,0.2,0.2,0.6,0.2,0.8h-2.4c-0.1-0.1-0.1-0.3-0.2-0.5c-0.1-0.2-0.1-0.4-0.1-0.6l0,0
		c-0.2,0.5-0.6,0.8-1.1,1.1c-0.5,0.2-1,0.3-1.5,0.2c-0.4,0-0.8-0.1-1.1-0.2c-0.3-0.1-0.5-0.4-0.7-0.7c-0.2-0.3-0.3-0.6-0.4-1
		c-0.1-0.3-0.1-0.7-0.2-1.1c0-0.4,0.1-0.8,0.2-1.2c0.1-0.3,0.2-0.6,0.5-0.9c0.2-0.3,0.5-0.5,0.8-0.7c0.4-0.2,0.7-0.3,1.1-0.4
		l1.5-0.4c0.3,0,0.6-0.2,0.8-0.4c0.2-0.2,0.3-0.5,0.2-0.8c0-0.3-0.1-0.6-0.2-0.9c-0.5-0.4-1.3-0.4-1.8,0c-0.2,0.3-0.3,0.6-0.3,1v0.2
		h-2.3v-0.1L169.5,31.3z M173.6,33.9c-0.2,0.1-0.4,0.1-0.6,0.2c-0.4,0.1-0.8,0.3-1.1,0.6c-0.2,0.3-0.4,0.7-0.3,1.1
		c0,0.3,0.1,0.7,0.2,1c0.2,0.3,0.4,0.4,0.7,0.4c0.2,0,0.4,0,0.6-0.1l0.5-0.2c0.2-0.2,0.2-0.3,0.4-0.5c0.1-0.2,0.2-0.5,0.2-0.7v-2
		C174,33.7,173.8,33.9,173.6,33.9"/>
	<path id="Path_39" class="st0" d="M181.5,25.6v2.9h1.5v1.8h-1.5v5.5c0,0.3,0,0.6,0.2,0.9c0.1,0.2,0.3,0.2,0.7,0.2h0.6v1.8h-1.6
		c-0.4,0-0.8,0-1.2-0.1c-0.3-0.1-0.5-0.2-0.7-0.4c-0.2-0.2-0.3-0.5-0.3-0.8c-0.1-0.4-0.1-0.9-0.1-1.3v-5.9h-1.3v-1.8h1.3v-2.9H181.5
		z"/>
	<path id="Path_40" class="st0" d="M186.1,34.8c0,0.3,0,0.6,0.1,0.9c0.1,0.2,0.1,0.6,0.2,0.7c0.1,0.2,0.2,0.4,0.4,0.6
		c0.2,0.1,0.4,0.2,0.6,0.2c0.4,0,0.8-0.2,1-0.5c0.2-0.5,0.4-1,0.4-1.5h2.3c0,1-0.3,1.9-0.9,2.7c-0.7,0.7-1.7,1-2.7,0.9
		c-0.8,0-1.5-0.1-2.2-0.5c-0.5-0.3-0.9-0.7-1.1-1.2c-0.2-0.5-0.4-1.1-0.5-1.7c-0.1-1.3-0.1-2.6,0.1-3.9c0.1-0.6,0.2-1.2,0.6-1.7
		c0.3-0.5,0.7-0.9,1.2-1.1c0.7-0.3,1.4-0.5,2.1-0.4c0.6,0,1.2,0.1,1.8,0.4c0.5,0.2,0.9,0.6,1.1,1.1c0.3,0.5,0.5,1.1,0.6,1.6
		c0.1,0.7,0.2,1.4,0.2,2.1V34h-5v0.8L186.1,34.8z M188.6,31.4c0-0.3-0.1-0.5-0.2-0.7c-0.1-0.2-0.2-0.4-0.4-0.5
		c-0.4-0.2-0.9-0.2-1.3,0c-0.2,0.1-0.3,0.3-0.4,0.5c-0.1,0.2-0.2,0.4-0.2,0.7c-0.1,0.2-0.1,0.5-0.1,0.7v0.4h2.6
		C188.7,32.1,188.7,31.8,188.6,31.4"/>
	<g id="Group_39" transform="translate(54.622 43.714)">
		<path id="Path_41" class="st0" d="M4.6,0c0.6,0,1.2,0.1,1.7,0.3c0.4,0.2,0.8,0.5,1.1,0.9C7.8,1.6,8,2.1,8.1,2.5
			C8.3,3,8.3,3.5,8.3,4c0,0.6-0.1,1.2-0.3,1.8C7.8,6.3,7.5,6.7,7.2,7.1C6.8,7.4,6.3,7.7,5.9,7.8C5.3,8,4.7,8.1,4.2,8.1H2.7v5.4H0V0
			H4.6z M3.8,6.1c0.5,0,1-0.1,1.3-0.5c0.4-0.4,0.5-1,0.5-1.5c0-0.5-0.1-1.1-0.4-1.5C4.8,2.1,4.3,1.9,3.7,2H2.6v4.2H3.8z"/>
	</g>
	<g id="Group_40" transform="translate(63.495 46.726)">
		<path id="Path_42" class="st0" d="M0.3,3.2c0-0.5,0.1-1,0.2-1.5C0.7,1.3,1,1,1.3,0.7C1.6,0.5,2,0.3,2.4,0.2C2.9,0.1,3.4,0,3.8,0
			c0.6,0,1.3,0.1,1.9,0.2c0.4,0.1,0.8,0.4,1.1,0.7c0.3,0.3,0.4,0.6,0.5,1c0.1,0.4,0.1,0.8,0.2,1.2v5.4c0,0.4,0,0.8,0.1,1.1
			c0.1,0.2,0.2,0.6,0.2,0.8H5.3c-0.1-0.1-0.1-0.3-0.2-0.5C5.1,9.8,5,9.6,5,9.4l0,0C4.8,9.8,4.5,10.2,4,10.4c-0.5,0.2-1,0.3-1.5,0.2
			c-0.4,0-0.8-0.1-1.1-0.2C1,10.3,0.8,10,0.6,9.8c-0.2-0.3-0.3-0.6-0.4-1C0,8.5,0,8.1,0,7.8C0,7.4,0.1,7,0.2,6.6
			c0.1-0.3,0.2-0.6,0.5-0.9C0.9,5.4,1.2,5.2,1.5,5c0.4-0.2,0.7-0.3,1.1-0.4l1.5-0.4c0.3,0,0.6-0.2,0.8-0.4C5.1,3.6,5.2,3.3,5.1,3
			c0-0.3-0.1-0.6-0.2-0.9c-0.5-0.4-1.3-0.4-1.8,0c-0.2,0.3-0.3,0.6-0.3,1v0.2H0.5V3.2L0.3,3.2z M4.4,5.7C4.2,5.8,4,5.8,3.8,5.9
			C3.4,5.9,3,6.1,2.7,6.4C2.5,6.7,2.3,7.1,2.4,7.5c0,0.3,0.1,0.7,0.2,1C2.8,8.7,3,8.9,3.3,8.9c0.2,0,0.4,0,0.6-0.1l0.5-0.2
			c0.2-0.2,0.2-0.3,0.4-0.5C4.9,7.8,5,7.6,5,7.3v-2C4.8,5.5,4.6,5.6,4.4,5.7"/>
	</g>
	<g id="Group_41" transform="translate(72.856 46.807)">
		<path id="Path_43" class="st0" d="M2.4,0.2v1.4l0,0c0.2-0.5,0.6-0.9,1-1.2C3.7,0.1,4.2,0,4.7,0h0.5v2.5H4.4c-0.2,0-0.4,0-0.7,0.1
			C3.5,2.7,3.3,2.8,3.1,2.9C2.9,3.1,2.8,3.3,2.7,3.5C2.6,3.8,2.5,4.1,2.5,4.4v6.1H0V0.2H2.4z"/>
	</g>
	<g id="Group_42" transform="translate(78.554 46.726)">
		<path id="Path_44" class="st0" d="M0.3,3.2c0-0.5,0.1-1,0.2-1.5C0.7,1.3,1,1,1.3,0.7C1.6,0.5,2,0.3,2.4,0.2C2.9,0.1,3.4,0,3.8,0
			c0.6,0,1.3,0.1,1.9,0.2c0.4,0.1,0.8,0.4,1.1,0.7c0.3,0.3,0.4,0.6,0.5,1c0.1,0.4,0.1,0.8,0.2,1.2v5.4c0,0.4,0,0.8,0.1,1.1
			c0.1,0.2,0.2,0.6,0.2,0.8H5.3c-0.1-0.1-0.1-0.3-0.2-0.5C5.1,9.8,5,9.6,5,9.4l0,0C4.8,9.8,4.5,10.2,4,10.4c-0.5,0.2-1,0.3-1.5,0.2
			c-0.4,0-0.8-0.1-1.1-0.2C1,10.3,0.8,10,0.6,9.8c-0.2-0.3-0.3-0.6-0.4-1C0.1,8.4,0,8.1,0,7.7c0-0.4,0.1-0.8,0.2-1.2
			c0.1-0.3,0.2-0.6,0.5-0.9C0.9,5.4,1.2,5.1,1.5,5c0.4-0.2,0.7-0.3,1.1-0.4l1.5-0.4c0.3,0,0.6-0.2,0.8-0.4c0.2-0.2,0.3-0.5,0.2-0.8
			c0-0.3-0.1-0.6-0.2-0.9C4.4,1.6,3.6,1.6,3.1,2C2.9,2.3,2.8,2.7,2.8,3v0.2H0.5V3.2L0.3,3.2z M4.5,5.7C4.3,5.8,4.1,5.8,3.9,5.9
			C3.5,5.9,3.1,6.1,2.8,6.4C2.5,6.7,2.4,7.1,2.4,7.5c0,0.3,0.1,0.7,0.2,1c0.2,0.3,0.4,0.4,0.7,0.4c0.2,0,0.4,0,0.6-0.1l0.5-0.2
			c0.2-0.2,0.2-0.3,0.4-0.5C5,7.8,5.1,7.6,5,7.3v-2C4.9,5.5,4.7,5.6,4.5,5.7"/>
	</g>
	<g id="Group_43" transform="translate(87.509 46.888)">
		<path id="Path_45" class="st0" d="M5,3.1C5,2.9,5,2.6,4.9,2.4C4.8,2.3,4.7,2.1,4.6,2C4.4,1.9,4.2,1.8,4,1.8C3.7,1.8,3.5,1.9,3.3,2
			C3.1,2.2,2.9,2.4,2.8,2.7C2.7,3,2.7,3.4,2.6,3.7c0,0.4-0.1,1-0.1,1.5c0,0.5,0,1.1,0.1,1.6c0,0.4,0.1,0.8,0.2,1.1
			c0.1,0.3,0.2,0.5,0.4,0.7C3.4,8.9,3.7,8.9,4,8.9c0.4,0,0.8-0.2,1-0.6c0.2-0.6,0.3-1.2,0.3-1.8h2.4c0.1,1.1-0.3,2.2-0.9,3.1
			c-0.8,0.8-1.8,1.2-2.9,1.1c-0.6,0-1.2-0.1-1.7-0.2C1.7,10.3,1.3,10,1,9.6C0.6,9.1,0.4,8.6,0.2,8C0.1,7.1,0,6.3,0,5.4
			c0-0.9,0.1-1.8,0.3-2.6c0.2-0.6,0.4-1.1,0.8-1.6c0.3-0.4,0.8-0.7,1.3-0.9C3,0.1,3.5,0,4.1,0c1-0.1,2,0.3,2.7,1.1
			c0.6,0.8,0.9,1.8,0.9,2.8H5.2C5.1,3.6,5.1,3.3,5,3.1"/>
	</g>
	<g id="Group_44" transform="translate(96.056 46.726)">
		<path id="Path_46" class="st0" d="M2.5,6.6c0,0.3,0,0.6,0.1,0.9c0.1,0.2,0.1,0.6,0.2,0.7c0.1,0.2,0.2,0.4,0.4,0.6
			C3.4,8.9,3.6,9,3.8,9c0.4,0,0.8-0.2,1-0.5C5,8,5.2,7.5,5.2,7h2.3c0,1-0.3,1.9-0.9,2.7c-0.7,0.7-1.7,1-2.7,0.9
			c-0.8,0-1.5-0.1-2.2-0.5C1.2,9.8,0.8,9.4,0.6,8.9C0.3,8.3,0.1,7.8,0.1,7.2C-0.1,5.9,0,4.6,0.2,3.3c0.1-0.6,0.2-1.2,0.6-1.7
			C1,1,1.4,0.6,1.9,0.4C2.6,0.1,3.3-0.1,4.1,0c0.6,0,1.2,0.1,1.8,0.4C6.3,0.7,6.7,1,7,1.5C7.3,2,7.5,2.5,7.6,3.1
			c0.1,0.7,0.2,1.4,0.2,2.1v0.6h-5v0.8L2.5,6.6z M5.1,3.2c0-0.3-0.1-0.5-0.2-0.7C4.9,2.2,4.7,2.1,4.6,2C4.1,1.7,3.7,1.7,3.3,2
			C3.1,2.1,2.9,2.2,2.8,2.4C2.8,2.7,2.7,2.9,2.6,3.1C2.5,3.3,2.5,3.6,2.5,3.8v0.4h2.6C5.1,3.8,5.1,3.5,5.1,3.2"/>
	</g>
	<g id="Group_45" transform="translate(104.278 44.121)">
		<path id="Path_47" class="st0" d="M3.8,0v2.9h1.5v1.8H3.8v5.5c0,0.3,0,0.6,0.2,0.9c0.1,0.2,0.3,0.2,0.7,0.2h0.6v1.8H3.7
			c-0.4,0-0.8,0-1.2-0.1c-0.3-0.1-0.5-0.2-0.7-0.4c-0.2-0.2-0.3-0.5-0.3-0.8c-0.1-0.4-0.1-0.9-0.1-1.3V4.7H0V2.9h1.3V0H3.8z"/>
	</g>
	<g id="Group_46" transform="translate(110.139 46.726)">
		<path id="Path_48" class="st0" d="M0.3,3.2c0-0.5,0.1-1,0.2-1.5C0.7,1.3,1,1,1.3,0.7C1.6,0.5,2,0.3,2.4,0.2C2.9,0.1,3.4,0,3.8,0
			c0.6,0,1.3,0.1,1.9,0.2c0.4,0.1,0.8,0.4,1.1,0.7c0.3,0.3,0.4,0.6,0.5,1c0.1,0.4,0.1,0.8,0.2,1.2v5.4c0,0.4,0,0.8,0.1,1.1
			c0.1,0.2,0.2,0.6,0.2,0.8H5.3c-0.1-0.1-0.1-0.3-0.2-0.5C5.1,9.8,5,9.6,5,9.4l0,0C4.8,9.8,4.5,10.2,4,10.4c-0.5,0.2-1,0.3-1.5,0.2
			c-0.4,0-0.8-0.1-1.1-0.2C1,10.3,0.8,10,0.6,9.8c-0.2-0.3-0.3-0.6-0.4-1C0.1,8.4,0,8.1,0,7.7c0-0.4,0.1-0.8,0.2-1.2
			c0.1-0.3,0.2-0.6,0.5-0.9C0.9,5.4,1.2,5.1,1.5,5c0.4-0.2,0.7-0.3,1.1-0.4l1.5-0.4c0.3,0,0.6-0.2,0.8-0.4c0.2-0.2,0.3-0.5,0.2-0.8
			c0-0.3-0.1-0.6-0.2-0.9C4.4,1.6,3.6,1.6,3.1,2C2.9,2.3,2.8,2.7,2.8,3v0.2H0.5V3.2L0.3,3.2z M4.5,5.7C4.3,5.8,4.1,5.8,3.9,5.9
			C3.5,5.9,3.1,6.1,2.8,6.4C2.5,6.7,2.4,7.1,2.4,7.5c0,0.3,0.1,0.7,0.2,1c0.2,0.3,0.4,0.4,0.7,0.4c0.2,0,0.4,0,0.6-0.1l0.5-0.2
			c0.2-0.2,0.2-0.3,0.4-0.5C5,7.8,5.1,7.6,5,7.3v-2C4.9,5.5,4.7,5.6,4.5,5.7"/>
	</g>
	<g id="Group_47" transform="translate(119.5 46.726)">
		<path id="Path_49" class="st0" d="M2.4,0.3v1l0,0c0.2-0.4,0.6-0.8,1.1-1C3.9,0.1,4.4,0,4.9,0c0.5,0,1,0.1,1.5,0.4
			c0.4,0.3,0.7,0.7,0.8,1.2l0,0c0.1-0.5,0.5-1,1-1.2C8.6,0.1,9.1,0,9.7,0c0.7-0.1,1.4,0.2,1.9,0.8c0.4,0.7,0.6,1.5,0.6,2.3v7.4H9.6
			V3.3c0-0.3-0.1-0.7-0.2-1C9.2,2.1,8.9,2,8.6,2c-0.4,0-0.7,0.1-1,0.4C7.4,2.8,7.3,3.3,7.3,3.7v6.7H4.8V3.3c0-0.3-0.1-0.7-0.2-1
			C4.4,2,4.1,1.9,3.8,2c-0.4,0-0.7,0.1-1,0.4C2.6,2.7,2.5,3.2,2.5,3.7v6.7H0v-10H2.4z"/>
	</g>
	<g id="Group_48" transform="translate(133.095 46.726)">
		<path id="Path_50" class="st0" d="M0.2,3.1c0.1-0.6,0.3-1.2,0.7-1.7c0.3-0.5,0.7-0.8,1.2-1.1c1.2-0.4,2.5-0.4,3.7,0
			c0.5,0.2,0.9,0.6,1.2,1C7.4,1.8,7.6,2.4,7.7,3c0.1,0.8,0.2,1.6,0.2,2.4c0,0.8-0.1,1.5-0.2,2.3C7.5,8.3,7.3,8.8,7,9.4
			c-0.3,0.5-0.7,0.8-1.2,1c-1.2,0.4-2.5,0.4-3.7,0c-0.5-0.2-0.9-0.6-1.2-1C0.5,8.8,0.3,8.3,0.2,7.7C0,6.9,0,6.1,0,5.3
			C0.1,4.6,0.2,3.7,0.2,3.1 M2.7,6.8c0,0.4,0.1,0.8,0.2,1.1c0.1,0.3,0.2,0.5,0.4,0.7C3.5,8.9,3.7,9,4,9c0.5,0,1-0.3,1.1-0.8
			c0.2-0.9,0.3-1.8,0.3-2.8c0.1-0.9,0-1.9-0.3-2.8C4.9,2.1,4.5,1.8,4,1.8C3.7,1.8,3.5,1.9,3.3,2C3.1,2.2,2.9,2.5,2.8,2.8
			C2.7,3.1,2.7,3.5,2.7,3.9v1.5C2.6,5.9,2.6,6.3,2.7,6.8"/>
	</g>
	<g id="Group_49" transform="translate(142.456 43.714)">
		<rect id="Rectangle_7" x="0" y="0" class="st0" width="2.5" height="13.5"/>
	</g>
	<g id="Group_50" transform="translate(43.876 67.646)">
		<path id="Path_51" class="st0" d="M7.2,0.1C8,0,8.7,0.2,9.4,0.6c0.5,0.3,0.8,0.8,1.1,1.3c0.2,0.7,0.2,1.4,0.2,2
			c-0.1,0.8-0.2,1.7-0.4,2.7C9.9,7.6,9.6,8.7,9.3,9.7c-0.3,0.8-0.7,1.5-1.2,2.1c-0.4,0.5-1,0.9-1.6,1.2c-0.7,0.3-1.5,0.4-2.3,0.4H0
			L3,0L7.2,0.1L7.2,0.1z M4.2,11.5c0.4,0,0.8-0.1,1.1-0.2c0.3-0.2,0.6-0.5,0.8-0.8C6.5,10,6.7,9.5,6.8,9C7,8.3,7.2,7.6,7.4,6.7
			c0.2-0.7,0.3-1.5,0.4-2c0.1-0.5,0.1-1,0-1.5C7.8,2.8,7.6,2.5,7.3,2.3C7,2.1,6.6,2,6.2,2H5l-2.1,9.4L4.2,11.5L4.2,11.5z"/>
	</g>
	<g id="Group_51" transform="translate(54.487 70.577)">
		<path id="Path_52" class="st0" d="M2.7,6.7C2.6,7,2.6,7.2,2.5,7.6c0,0.2,0,0.5,0.1,0.7c0,0.2,0.1,0.3,0.2,0.5C3,8.9,3.2,9,3.4,9
			c0.4,0,0.8-0.2,1.1-0.5C4.8,8,5,7.5,5.2,7h2.3C7.2,8,6.7,9,5.9,9.7c-0.8,0.7-1.8,1-2.8,0.9c-0.7,0.1-1.4-0.1-2-0.5
			C0.6,9.8,0.3,9.4,0.1,8.9C0,8.3,0,7.7,0.1,7.2c0.1-0.7,0.2-1.3,0.3-2c0.2-0.7,0.3-1.3,0.6-2c0.2-0.6,0.5-1.2,0.9-1.7
			c0.4-0.5,0.9-0.9,1.5-1.1C4,0.1,4.7,0,5.4,0C6,0,6.6,0.1,7.1,0.3C7.6,0.6,7.9,0.9,8,1.4C8.2,1.9,8.3,2.5,8.2,3
			C8.1,3.7,8,4.3,7.9,5.1L7.7,5.7H2.7V6.7z M5.9,3.3V2.6C5.9,2.4,5.8,2.3,5.7,2.1C5.5,2,5.3,2,5.1,1.9C4.9,2,4.7,2,4.4,2.1
			C4.2,2.2,4.1,2.4,4,2.6C3.8,2.8,3.7,3,3.6,3.3C3.4,3.4,3.3,3.7,3.3,4L3.2,4.3h2.5C5.8,4,5.9,3.7,5.9,3.3"/>
	</g>
	<g id="Group_52" transform="translate(63.088 70.821)">
		<path id="Path_53" class="st0" d="M5.9,3.1V2.4c0-0.2-0.1-0.4-0.2-0.5C5.4,1.8,5.2,1.8,5,1.8C4.8,1.8,4.5,1.9,4.2,2
			C4,2.2,3.8,2.4,3.7,2.7C3.5,3,3.3,3.4,3.3,3.7C3.1,4.2,3,4.7,2.8,5.3C2.7,5.9,2.6,6.4,2.5,6.9C2.5,7.3,2.4,7.6,2.4,8
			c0,0.2,0.1,0.5,0.2,0.7C2.8,8.8,3,8.8,3.3,8.8c0.4,0,0.8-0.2,1.1-0.6C4.7,7.7,5,7.1,5.1,6.4h2.4C7.4,7.6,6.8,8.6,6,9.4
			c-0.8,0.8-2,1.1-3.1,1.1c-0.6,0-1.1-0.1-1.6-0.2c-0.4-0.2-0.8-0.4-1-0.8C0.1,8.9,0,8.4,0,7.8C0,7,0.1,6.1,0.3,5.3
			c0.2-0.9,0.5-1.8,0.9-2.6c0.3-0.6,0.7-1.2,1.2-1.6c0.4-0.4,0.9-0.7,1.5-0.8C4.4,0.1,5,0,5.5,0C6.5-0.1,7.4,0.3,8,1.1
			C8.4,1.9,8.5,3,8.2,3.9H5.8C5.8,3.6,5.9,3.3,5.9,3.1"/>
	</g>
	<g id="Group_53" transform="translate(71.635 70.821)">
		<path id="Path_54" class="st0" d="M1,2.9C1.2,2.3,1.6,1.8,2,1.3c0.4-0.4,0.9-0.8,1.5-1C4.1,0.1,4.7,0,5.4,0C6,0,6.6,0.1,7.2,0.3
			c0.4,0.2,0.8,0.5,1,1C8.3,1.9,8.4,2.4,8.4,3c0,0.8-0.2,1.6-0.3,2.4C7.9,6.2,7.7,6.9,7.3,7.7C7.1,8.3,6.7,8.8,6.3,9.3
			c-0.4,0.4-0.9,0.7-1.4,1c-0.6,0.2-1.2,0.4-1.9,0.3c-0.6,0-1.2-0.1-1.8-0.3c-0.4-0.2-0.8-0.5-1-1C0.1,8.7,0,8.2,0,7.6
			C0,6.8,0.1,6,0.3,5.3C0.5,4.5,0.7,3.7,1,2.9 M2.5,6.7C2.5,7.1,2.4,7.4,2.4,7.8c0,0.3,0.1,0.5,0.2,0.7c0.2,0.2,0.4,0.3,0.7,0.2
			c0.5,0,1-0.3,1.2-0.8C5,7.1,5.3,6.2,5.5,5.3c0.2-0.9,0.3-1.8,0.3-2.7c0-0.5-0.4-0.8-0.8-0.8c0,0,0,0-0.1,0C4.6,1.8,4.3,1.9,4.1,2
			C3.8,2.2,3.6,2.5,3.5,2.8C3.3,3.1,3.2,3.5,3.1,3.9C3,4.3,2.8,4.8,2.8,5.4C2.7,5.8,2.6,6.3,2.5,6.7"/>
	</g>
	<g id="Group_54" transform="translate(80.02 67.728)">
		<path id="Path_55" class="st0" d="M5.5,0l-3,13.4H0L3,0H5.5z"/>
	</g>
	<g id="Group_55" transform="translate(83.896 70.821)">
		<path id="Path_56" class="st0" d="M7.9,9.8c-0.3,2.5-2.6,4.2-5,3.9c0,0,0,0,0,0c-0.9,0.1-1.7-0.2-2.4-0.7c-0.5-0.5-0.7-1.3-0.4-2
			h2.4c-0.1,0.3,0,0.6,0.2,0.7c0.1,0.1,0.2,0.2,0.3,0.2C3.2,11.9,3.4,12,3.5,12c0.5,0,0.9-0.2,1.2-0.5c0.3-0.4,0.5-0.8,0.6-1.2
			L5.6,9l0,0C5.3,9.3,4.9,9.6,4.5,9.9c-0.4,0.2-0.8,0.3-1.2,0.3c-0.8,0.1-1.7-0.4-2-1.1C0.9,7.8,0.9,6.4,1.3,5.1
			c0.2-0.6,0.3-1.2,0.5-1.8C2,2.8,2.3,2.2,2.6,1.7C3,1.2,3.4,0.8,3.9,0.5C4.4,0.2,5,0,5.6,0c0.8,0,1.6,0.6,1.8,1.4l0,0l0.2-1.1H10
			L7.9,9.8z M3.6,6.6v0.8c0,0.2,0.1,0.4,0.2,0.6C4,8.1,4.2,8.2,4.4,8.2c0.3,0,0.5-0.1,0.7-0.2c0.2-0.1,0.4-0.3,0.6-0.6
			c0.2-0.3,0.3-0.6,0.4-0.9c0.1-0.3,0.2-0.7,0.3-1.1c0.2-0.8,0.3-1.7,0.3-2.6C6.8,2.3,6.4,2,6,2c0,0-0.1,0-0.1,0
			C5.6,2,5.4,2.1,5.2,2.2C4.9,2.4,4.8,2.6,4.6,2.8C4.4,3.1,4.2,3.5,4.2,3.9C4,4.4,3.9,5,3.8,5.6C3.8,5.9,3.7,6.3,3.6,6.6"/>
	</g>
	<g id="Group_56" transform="translate(93.886 70.577)">
		<path id="Path_57" class="st0" d="M2.7,6.7C2.6,7,2.6,7.2,2.5,7.6c0,0.2,0,0.5,0.1,0.7c0,0.2,0.1,0.3,0.2,0.5C3,8.9,3.2,9,3.4,9
			c0.4,0,0.8-0.2,1.1-0.5C4.8,8,5,7.5,5.2,7h2.3C7.2,8,6.7,9,5.9,9.7c-0.8,0.7-1.8,1-2.8,0.9c-0.7,0.1-1.4-0.1-2-0.5
			C0.6,9.8,0.3,9.4,0.1,8.9C0,8.3,0,7.7,0.1,7.2c0.1-0.7,0.2-1.3,0.3-2c0.2-0.7,0.3-1.3,0.6-2c0.2-0.6,0.5-1.2,0.9-1.7
			c0.4-0.5,0.9-0.9,1.5-1.1C4,0.1,4.7,0,5.4,0C6,0,6.6,0.1,7.1,0.3C7.6,0.6,7.9,0.9,8,1.4C8.2,1.9,8.3,2.5,8.2,3
			C8.1,3.7,8,4.3,7.9,5.1L7.7,5.7h-5L2.7,6.7z M5.9,3.3V2.6C5.9,2.4,5.8,2.3,5.7,2.1C5.5,2,5.3,2,5.1,1.9C4.9,2,4.7,2,4.4,2.1
			C4.2,2.2,4.1,2.4,4,2.6C3.8,2.8,3.7,3,3.6,3.3L3.4,4L3.3,4.4h2.6C5.9,4,5.9,3.7,5.9,3.3"/>
	</g>
	<g id="Group_57" transform="translate(102.08 70.902)">
		<path id="Path_58" class="st0" d="M4.6,0.2L4.3,1.4l0,0c0.3-0.5,0.8-0.8,1.3-1.1C6.1,0.1,6.6,0,7.2,0c0.6-0.1,1.3,0.2,1.7,0.7
			C9.2,1.3,9.3,2.1,9,2.9l-1.6,7.5H4.9l1.5-6.9c0.1-0.3,0.1-0.7,0-1.1C6.3,2.1,6,2,5.7,2C4.8,2,4.2,2.6,4,3.7l-1.5,6.7H0L2.3,0.3
			h2.3L4.6,0.2z"/>
	</g>
	<g id="Group_58" transform="translate(117.465 67.728)">
		<path id="Path_59" class="st0" d="M10.3,0L9.8,2.2H5.1L4.5,5.4h4.4L8.4,7.6H4l-1.3,5.9H0L3,0H10.3z"/>
	</g>
	<g id="Group_59" transform="translate(126.094 70.821)">
		<path id="Path_60" class="st0" d="M1,2.9C1.2,2.3,1.6,1.8,2,1.3c0.4-0.4,0.9-0.8,1.5-1C4.1,0.1,4.7,0,5.4,0C6,0,6.6,0.1,7.2,0.3
			c0.4,0.2,0.8,0.5,1,1C8.3,1.9,8.4,2.4,8.4,3c0,0.8-0.2,1.6-0.3,2.4C7.9,6.2,7.7,6.9,7.3,7.7C7.1,8.3,6.7,8.8,6.3,9.3
			c-0.4,0.4-0.9,0.7-1.4,1c-0.6,0.2-1.2,0.4-1.9,0.3c-0.6,0-1.2-0.1-1.8-0.3c-0.4-0.2-0.8-0.5-1-1C0.1,8.7,0,8.2,0,7.6
			C0,6.8,0.1,6,0.3,5.3C0.4,4.5,0.6,3.7,1,2.9 M2.5,6.7C2.5,7.1,2.4,7.4,2.4,7.8c0,0.3,0.1,0.5,0.2,0.7c0.2,0.2,0.4,0.3,0.7,0.2
			c0.5,0,1-0.3,1.2-0.8C5,7.1,5.3,6.2,5.5,5.3c0.2-0.9,0.3-1.8,0.3-2.7c0-0.5-0.4-0.8-0.8-0.8c0,0,0,0-0.1,0C4.6,1.8,4.3,1.9,4.1,2
			C3.8,2.2,3.6,2.5,3.5,2.8C3.3,3.1,3.2,3.5,3.1,3.9C3,4.3,2.9,4.8,2.8,5.4C2.6,5.8,2.6,6.2,2.5,6.7"/>
	</g>
	<g id="Group_60" transform="translate(134.316 70.902)">
		<path id="Path_61" class="st0" d="M4.7,0.2L4.4,1.5l0,0c0.3-0.5,0.7-0.9,1.2-1.1C6,0.1,6.6,0,7.1,0h0.5L7,2.4H6.2
			c-0.2,0-0.4,0-0.7,0.1C5.3,2.6,5.1,2.7,4.9,2.8C4.7,3,4.5,3.2,4.3,3.4C4.2,3.7,4,3.9,4,4.2l-1.4,6H0L2.3,0.2H4.7z"/>
	</g>
	<g id="Group_61" transform="translate(141.398 68.053)">
		<path id="Path_62" class="st0" d="M5,0.1L4.4,2.9h1.5L5.5,4.7H4l-1.2,5.5c-0.1,0.3-0.1,0.5,0,0.8c0.1,0.2,0.3,0.2,0.7,0.2H4
			L3.6,13H2c-0.4,0-0.8,0-1.1-0.1c-0.3-0.1-0.5-0.2-0.7-0.4C0.1,12.3,0,12,0,11.7c0-0.4,0.1-0.9,0.2-1.3l1.3-5.8H0.2l0.4-1.8h1.3
			L2.5,0L5,0.1L5,0.1z"/>
	</g>
	<g id="Group_62" transform="translate(146.229 70.577)">
		<path id="Path_63" class="st0" d="M2.7,6.7C2.6,7,2.6,7.2,2.5,7.6c0,0.2,0,0.5,0.1,0.7c0,0.2,0.1,0.3,0.2,0.5C3,8.9,3.2,9,3.4,9
			c0.4,0,0.8-0.2,1.1-0.5C4.8,8,5,7.5,5.2,7h2.3C7.2,8,6.7,9,5.9,9.7c-0.8,0.7-1.8,1-2.8,0.9c-0.7,0.1-1.4-0.1-2-0.5
			C0.6,9.8,0.3,9.4,0.1,8.9C0,8.3,0,7.7,0.1,7.2c0.1-0.7,0.2-1.3,0.3-2c0.2-0.7,0.3-1.3,0.6-2c0.2-0.6,0.5-1.2,0.9-1.7
			c0.4-0.5,0.9-0.9,1.5-1.1C4,0.1,4.7,0,5.4,0C6,0,6.6,0.1,7.1,0.3C7.6,0.6,7.9,0.9,8,1.4C8.2,1.9,8.3,2.5,8.2,3
			C8.1,3.7,8,4.3,7.9,5.1L7.7,5.7h-5L2.7,6.7z M5.9,3.3V2.6C5.9,2.4,5.8,2.3,5.7,2.1C5.5,2,5.3,2,5.1,1.9C4.9,2,4.7,2,4.4,2.1
			C4.2,2.2,4.1,2.4,4,2.6C3.8,2.8,3.7,3,3.6,3.3L3.4,4L3.3,4.4h2.6C5.9,4,5.9,3.7,5.9,3.3"/>
	</g>
	<g id="Group_63" transform="translate(111.848 69.356)">
		<path id="Path_64" class="st0" d="M5.2,2.7c0,0.4-0.1,0.7-0.2,1.1C4.8,4.1,4.6,4.3,4.4,4.6C4.2,4.8,3.9,5,3.6,5.1
			c-0.3,0.1-0.6,0.2-1,0.2C2.2,5.3,1.9,5.2,1.5,5C0.9,4.8,0.4,4.3,0.2,3.7C-0.1,3-0.1,2.2,0.2,1.5C0.4,1.2,0.6,1,0.8,0.7
			c0.2-0.2,0.5-0.4,0.8-0.6C1.9,0,2.3,0,2.6,0c0.3,0,0.7,0.1,1,0.2C4.2,0.4,4.7,0.9,5,1.5C5.1,1.9,5.2,2.3,5.2,2.7 M4.6,2.7
			c0-0.3-0.1-0.6-0.2-0.9C4.4,1.5,4.2,1.3,4.1,1.1C3.9,0.9,3.6,0.7,3.4,0.6c-0.5-0.2-1.1-0.2-1.6,0C1.5,0.7,1.3,0.8,1.1,1.1
			C0.9,1.3,0.8,1.5,0.7,1.8C0.6,2.1,0.6,2.4,0.6,2.7c0,0.3,0.1,0.6,0.2,0.9C0.8,3.8,1,4.1,1.1,4.3c0.2,0.2,0.4,0.3,0.7,0.5
			C2,4.9,2.3,5,2.6,5c0.3,0,0.6-0.1,0.8-0.2c0.3-0.1,0.5-0.3,0.7-0.5c0.2-0.2,0.3-0.5,0.4-0.7C4.6,3.3,4.7,3,4.6,2.7 M2.1,4.2H1.6
			V1.3h1.1c0.3,0,0.6,0.1,0.8,0.2c0.2,0.2,0.3,0.4,0.2,0.7c0,0.2-0.1,0.4-0.2,0.6C3.4,2.8,3.3,2.8,3,2.9l0.8,1.3H3.3L2.5,2.9H2.1
			L2.1,4.2z M2.7,2.5h0.2c0.1,0,0.2,0,0.2-0.1c0.1,0,0.1-0.1,0.2-0.2c0-0.1,0.1-0.2,0.1-0.2c0-0.1,0-0.2-0.1-0.2
			c0-0.1-0.1-0.1-0.2-0.1c-0.1,0-0.1,0-0.2-0.1H2.1v0.9L2.7,2.5z"/>
	</g>
	<g id="Group_64">
		<path id="Path_65" class="st0" d="M199.5,63.5H0V0h199.5V63.5z M0.8,62.7h197.9V0.8H0.8V62.7z"/>
	</g>
</g>
</svg>
