<?xml version="1.0" encoding="utf-8"?>
<!-- Generator: Adobe Illustrator 23.1.0, SVG Export Plug-In . SVG Version: 6.00 Build 0)  -->
<svg version="1.1" id="Layer_1" xmlns="http://www.w3.org/2000/svg" xmlns:xlink="http://www.w3.org/1999/xlink" x="0px" y="0px"
	 viewBox="0 0 538 179.9" style="enable-background:new 0 0 538 179.9;" xml:space="preserve">
<style type="text/css">
	.st0{fill:none;}
	.st1{fill:#FFFFFF;}
	.st2{enable-background:new    ;}
</style>
<g id="Rectangle_128" transform="translate(816.851 4373.284)">
	<rect x="-816.9" y="-4373.3" class="st0" width="538" height="116"/>
	<path class="st1" d="M-278.9-4257.3h-538v-116h538V-4257.3z M-814.9-4259.3h534v-112h-534V-4259.3z"/>
</g>
<g class="st2">
	<path class="st1" d="M38.6,50H31l7.8-37.2h15.1c2.7,0,4.8,0.3,6.4,1c1.6,0.6,2.8,1.7,3.7,3.1s1.4,3.2,1.4,5.2
		c0,1.9-0.4,3.7-1.1,5.5c-0.7,1.8-1.6,3.2-2.7,4.3c-1.1,1.1-2.2,1.9-3.4,2.4s-2.9,1-4.9,1.3c-1.2,0.2-3.5,0.3-6.8,0.3h-4.9L38.6,50z
		 M42.9,29.6h2.4c4,0,6.7-0.3,8.1-0.8c1.4-0.5,2.4-1.3,3.2-2.4c0.8-1.1,1.2-2.3,1.2-3.7c0-0.9-0.2-1.6-0.6-2.2c-0.4-0.6-1-1-1.7-1.3
		c-0.7-0.3-2.3-0.4-4.8-0.4h-5.5L42.9,29.6z"/>
	<path class="st1" d="M73,50h-7.3l7.8-37.2h7.3L78,26c1.6-1.3,3.2-2.2,4.6-2.8s2.9-0.9,4.6-0.9c2.2,0,3.9,0.6,5.2,1.9
		s1.9,2.9,1.9,4.9c0,1.1-0.2,2.8-0.7,5L90.2,50H83l3.4-16.1c0.4-1.7,0.5-2.9,0.5-3.4c0-0.9-0.3-1.6-0.8-2.2s-1.3-0.8-2.3-0.8
		c-1.2,0-2.4,0.4-3.5,1.3c-1.5,1.1-2.6,2.5-3.3,4.1c-0.4,0.9-1,3-1.7,6.3L73,50z"/>
	<path class="st1" d="M123.6,38.8h-18.3c0,0.3,0,0.5,0,0.7c0,1.8,0.5,3.2,1.5,4.3c1,1.1,2.3,1.7,3.7,1.7c2.4,0,4.3-1.3,5.7-3.8
		l6.5,1.1c-1.3,2.6-3,4.6-5.1,5.9c-2.1,1.3-4.5,2-7.1,2c-3.6,0-6.6-1.1-8.8-3.4c-2.3-2.3-3.4-5.3-3.4-9.1c0-3.7,1-7,3.1-9.9
		c2.8-3.9,6.8-5.8,12-5.8c3.3,0,5.9,1,7.9,3.1c1.9,2,2.9,4.9,2.9,8.6C124.1,35.8,124,37.4,123.6,38.8z M117.5,34.3
		c0-0.3,0-0.6,0-0.7c0-2-0.4-3.5-1.3-4.5c-0.9-1-2.1-1.5-3.6-1.5c-1.5,0-2.9,0.6-4,1.7s-2,2.8-2.4,5H117.5z"/>
	<path class="st1" d="M132,23h6.9l-0.7,3.5c1.7-1.5,3.3-2.6,4.8-3.2s3.1-1,4.7-1c2.2,0,4,0.6,5.2,1.9c1.3,1.3,1.9,3,1.9,5.1
		c0,0.9-0.3,2.7-0.8,5.4L150.9,50h-7.3l3.2-15.3c0.5-2.3,0.7-3.6,0.7-4.1c0-0.9-0.3-1.7-0.8-2.2c-0.6-0.5-1.3-0.8-2.3-0.8
		c-1.1,0-2.3,0.4-3.6,1.3c-1.3,0.9-2.3,2.1-3.1,3.6c-0.5,1-1.2,3.2-1.8,6.4L133.7,50h-7.3L132,23z"/>
	<path class="st1" d="M160.3,23h7.3l1.8,13.4c0.5,3.5,0.7,5.9,0.8,7.3c0.9-2.8,2.3-5.7,3.9-8.7l6.4-12h7.7l-16.7,29.6
		c-1.4,2.5-2.5,4.2-3.2,5.2s-1.7,1.8-2.8,2.3c-1.1,0.6-2.4,0.8-4,0.8c-1.5,0-3.3-0.3-5.2-0.8l0.6-5.4c0.9,0.3,1.7,0.4,2.6,0.4
		c2.2,0,4.1-1.7,5.5-5.1L160.3,23z"/>
	<path class="st1" d="M186.9,50l7.8-37.2h7.3L194.2,50H186.9z"/>
	<path class="st1" d="M227.7,38.8h-18.3c0,0.3,0,0.5,0,0.7c0,1.8,0.5,3.2,1.5,4.3c1,1.1,2.3,1.7,3.7,1.7c2.4,0,4.3-1.3,5.7-3.8
		l6.5,1.1c-1.3,2.6-3,4.6-5.1,5.9c-2.1,1.3-4.5,2-7.1,2c-3.6,0-6.6-1.1-8.8-3.4c-2.3-2.3-3.4-5.3-3.4-9.1c0-3.7,1-7,3.1-9.9
		c2.8-3.9,6.8-5.8,12-5.8c3.3,0,5.9,1,7.9,3.1c1.9,2,2.9,4.9,2.9,8.6C228.2,35.8,228,37.4,227.7,38.8z M221.5,34.3
		c0-0.3,0-0.6,0-0.7c0-2-0.4-3.5-1.3-4.5c-0.9-1-2.1-1.5-3.6-1.5c-1.5,0-2.9,0.6-4,1.7s-2,2.8-2.4,5H221.5z"/>
	<path class="st1" d="M235.8,23h6.9l-0.6,2.8c1.5-1.2,2.9-2.1,4.1-2.6c1.3-0.5,2.7-0.8,4.1-0.8c2.8,0,5.1,1,6.8,2.9s2.6,4.8,2.6,8.7
		c0,4.9-1.5,9-4.4,12.3c-2.5,2.9-5.5,4.3-9,4.3c-3.6,0-6.3-1.4-8.1-4.3l-2.9,14H228L235.8,23z M240.1,38.5c0,2.1,0.5,3.7,1.5,4.9
		c1,1.2,2.2,1.7,3.6,1.7c1.2,0,2.4-0.4,3.5-1.3s2-2.3,2.8-4.3c0.7-2,1.1-3.9,1.1-5.6c0-2-0.5-3.6-1.4-4.6c-1-1.1-2.2-1.6-3.7-1.6
		c-1.4,0-2.7,0.5-3.8,1.5s-2,2.4-2.7,4.4C240.5,35.4,240.1,37.1,240.1,38.5z"/>
	<path class="st1" d="M269.5,50h-7.3l7.8-37.2h7.3L274.5,26c1.6-1.3,3.2-2.2,4.6-2.8s2.9-0.9,4.6-0.9c2.2,0,3.9,0.6,5.2,1.9
		s1.9,2.9,1.9,4.9c0,1.1-0.2,2.8-0.7,5L286.7,50h-7.3l3.4-16.1c0.4-1.7,0.5-2.9,0.5-3.4c0-0.9-0.3-1.6-0.8-2.2s-1.3-0.8-2.3-0.8
		c-1.2,0-2.4,0.4-3.5,1.3c-1.5,1.1-2.6,2.5-3.3,4.1c-0.4,0.9-1,3-1.7,6.3L269.5,50z"/>
	<path class="st1" d="M299.1,23h6.8l-1.1,5.2c2.5-3.9,5.3-5.9,8.3-5.9c1,0,2.2,0.3,3.4,0.8l-2.8,6c-0.7-0.2-1.4-0.4-2.1-0.4
		c-1.3,0-2.5,0.5-3.8,1.4s-2.3,2.2-3,3.8s-1.4,4.1-2.2,7.5l-1.8,8.5h-7.3L299.1,23z"/>
	<path class="st1" d="M319.7,23h7.3l-5.6,27h-7.3L319.7,23z M321.9,12.8h7.3l-1.4,6.6h-7.3L321.9,12.8z"/>
	<path class="st1" d="M334.3,23h6.9l-0.7,3.5c1.7-1.5,3.3-2.6,4.8-3.2s3.1-1,4.7-1c2.2,0,4,0.6,5.2,1.9s1.9,3,1.9,5.1
		c0,0.9-0.3,2.7-0.8,5.4L353.2,50h-7.3l3.2-15.3c0.5-2.3,0.7-3.6,0.7-4.1c0-0.9-0.3-1.7-0.8-2.2s-1.3-0.8-2.3-0.8
		c-1.1,0-2.3,0.4-3.6,1.3s-2.3,2.1-3.1,3.6c-0.5,1-1.2,3.2-1.8,6.4L335.9,50h-7.3L334.3,23z"/>
	<path class="st1" d="M386.6,38.8h-18.3c0,0.3,0,0.5,0,0.7c0,1.8,0.5,3.2,1.5,4.3s2.3,1.7,3.7,1.7c2.4,0,4.3-1.3,5.7-3.8l6.5,1.1
		c-1.3,2.6-3,4.6-5.1,5.9s-4.5,2-7.1,2c-3.6,0-6.6-1.1-8.8-3.4s-3.4-5.3-3.4-9.1c0-3.7,1-7,3.1-9.9c2.8-3.9,6.8-5.8,12-5.8
		c3.3,0,5.9,1,7.9,3.1s2.9,4.9,2.9,8.6C387.1,35.8,386.9,37.4,386.6,38.8z M380.4,34.3c0-0.3,0-0.6,0-0.7c0-2-0.4-3.5-1.3-4.5
		s-2.1-1.5-3.6-1.5s-2.9,0.6-4,1.7s-2,2.8-2.4,5H380.4z"/>
	<path class="st1" d="M429.4,33.4H415L411.5,50h-7.7l7.8-37.2h7.6l-3,14.4h14.4l3-14.4h7.6L433.6,50h-7.7L429.4,33.4z"/>
	<path class="st1" d="M468.3,36.6l7.7,1.2c-1.5,4.2-3.8,7.4-6.8,9.6s-6.5,3.3-10.6,3.3c-4.6,0-8.1-1.4-10.7-4.1s-3.8-6.7-3.8-11.9
		c0-4.2,0.9-8.1,2.6-11.6s4.1-6.2,7.1-8.1s6.4-2.8,10-2.8c4,0,7.3,1.1,9.8,3.2s4,5.1,4.4,8.8l-7.3,0.7c-0.4-2.2-1.2-3.7-2.3-4.7
		s-2.7-1.5-4.6-1.5c-2.1,0-4.1,0.6-5.9,1.9s-3.3,3.3-4.4,6s-1.7,5.5-1.7,8.2c0,3,0.7,5.3,2.1,6.9s3.2,2.4,5.3,2.4
		c2,0,3.8-0.6,5.4-1.9S467.4,39.1,468.3,36.6z"/>
	<path class="st1" d="M478.5,50l7.8-37.2h7.6L486.2,50H478.5z"/>
</g>
<g class="st2">
	<path class="st1" d="M115.1,98h-7.7l7.8-37.2h15.1c2.7,0,4.8,0.3,6.4,1c1.6,0.6,2.8,1.7,3.7,3.1s1.4,3.2,1.4,5.2
		c0,1.9-0.4,3.7-1.1,5.5c-0.7,1.8-1.6,3.2-2.7,4.3c-1.1,1.1-2.2,1.9-3.4,2.4s-2.9,1-4.9,1.3c-1.2,0.2-3.5,0.3-6.8,0.3h-4.9L115.1,98
		z M119.4,77.6h2.4c4,0,6.7-0.3,8.1-0.8c1.4-0.5,2.4-1.3,3.2-2.4c0.8-1.1,1.2-2.3,1.2-3.7c0-0.9-0.2-1.6-0.6-2.2
		c-0.4-0.6-1-1-1.7-1.3c-0.7-0.3-2.3-0.4-4.8-0.4h-5.5L119.4,77.6z"/>
	<path class="st1" d="M152.4,78.7l-7.1-0.6c0.8-2.4,2.2-4.3,4.3-5.6c2-1.4,4.7-2,8-2c3.5,0,6,0.7,7.7,2.1c1.7,1.4,2.5,3.1,2.5,5.1
		c0,0.8-0.1,1.7-0.2,2.6c-0.1,0.9-0.6,3.3-1.5,7.2c-0.7,3.2-1.1,5.5-1.1,6.8c0,1.2,0.2,2.4,0.6,3.8h-7.1c-0.3-1-0.5-2-0.5-3
		c-1.1,1.2-2.3,2.1-3.7,2.7c-1.4,0.6-2.8,1-4.2,1c-2.2,0-4.1-0.7-5.5-2.2c-1.5-1.5-2.2-3.3-2.2-5.6c0-2.6,0.8-4.6,2.4-6.2
		s4.5-2.5,8.6-2.8c3.5-0.3,5.8-0.6,7-1c0.3-1,0.5-1.8,0.5-2.4c0-0.8-0.3-1.4-0.9-2c-0.6-0.5-1.6-0.8-2.8-0.8c-1.3,0-2.3,0.3-3.1,0.8
		C153.2,76.9,152.7,77.7,152.4,78.7z M159.3,85.4c-0.4,0.1-1,0.2-1.8,0.3c-3.7,0.4-6,1.1-7.2,1.9c-0.8,0.6-1.2,1.4-1.2,2.5
		c0,0.8,0.3,1.6,0.9,2.1s1.4,0.9,2.4,0.9c1.1,0,2.1-0.3,3.1-0.8c1-0.5,1.7-1.2,2.2-2.1s0.9-2.1,1.3-3.9L159.3,85.4z"/>
	<path class="st1" d="M176.3,71h6.8l-1.1,5.2c2.5-3.9,5.3-5.9,8.3-5.9c1,0,2.2,0.3,3.4,0.8l-2.8,6c-0.7-0.2-1.4-0.4-2.1-0.4
		c-1.3,0-2.5,0.5-3.8,1.4s-2.3,2.2-3,3.8c-0.7,1.6-1.4,4.1-2.2,7.5l-1.8,8.5h-7.3L176.3,71z"/>
	<path class="st1" d="M201.6,78.7l-7.1-0.6c0.8-2.4,2.2-4.3,4.3-5.6c2-1.4,4.7-2,8-2c3.5,0,6,0.7,7.7,2.1c1.7,1.4,2.5,3.1,2.5,5.1
		c0,0.8-0.1,1.7-0.2,2.6c-0.1,0.9-0.6,3.3-1.5,7.2c-0.7,3.2-1.1,5.5-1.1,6.8c0,1.2,0.2,2.4,0.6,3.8h-7.1c-0.3-1-0.5-2-0.5-3
		c-1.1,1.2-2.3,2.1-3.7,2.7c-1.4,0.6-2.8,1-4.2,1c-2.2,0-4.1-0.7-5.5-2.2c-1.5-1.5-2.2-3.3-2.2-5.6c0-2.6,0.8-4.6,2.4-6.2
		s4.5-2.5,8.6-2.8c3.5-0.3,5.8-0.6,7-1c0.3-1,0.5-1.8,0.5-2.4c0-0.8-0.3-1.4-0.9-2c-0.6-0.5-1.6-0.8-2.8-0.8c-1.3,0-2.3,0.3-3.1,0.8
		C202.3,76.9,201.8,77.7,201.6,78.7z M208.5,85.4c-0.4,0.1-1,0.2-1.8,0.3c-3.7,0.4-6,1.1-7.2,1.9c-0.8,0.6-1.2,1.4-1.2,2.5
		c0,0.8,0.3,1.6,0.9,2.1s1.4,0.9,2.4,0.9c1.1,0,2.1-0.3,3.1-0.8c1-0.5,1.7-1.2,2.2-2.1s0.9-2.1,1.3-3.9L208.5,85.4z"/>
	<path class="st1" d="M238.5,87.8l7.1,1.1c-1.2,3.1-2.9,5.5-5.2,7.2s-4.9,2.5-7.9,2.5c-3.4,0-6.2-1-8.2-3.1c-2-2-3-4.9-3-8.5
		c0-2.9,0.6-5.7,1.8-8.3s3.1-4.7,5.5-6.2c2.5-1.5,5.1-2.2,8.1-2.2c3.2,0,5.7,0.8,7.6,2.5c1.9,1.7,3,3.8,3.2,6.6l-6.9,0.7
		c-0.2-1.5-0.6-2.6-1.4-3.3c-0.8-0.7-1.7-1.1-3-1.1c-1.4,0-2.7,0.5-3.9,1.6s-2.2,2.6-2.8,4.7c-0.7,2.1-1,4-1,5.9
		c0,1.6,0.4,2.8,1.2,3.7c0.8,0.9,1.8,1.3,2.9,1.3s2.3-0.4,3.4-1.3C237,90.8,237.9,89.5,238.5,87.8z"/>
	<path class="st1" d="M275.4,86.8h-18.3c0,0.3,0,0.5,0,0.7c0,1.8,0.5,3.2,1.5,4.3c1,1.1,2.3,1.7,3.7,1.7c2.4,0,4.3-1.3,5.7-3.8
		l6.5,1.1c-1.3,2.6-3,4.6-5.1,5.9c-2.1,1.3-4.5,2-7.1,2c-3.6,0-6.6-1.1-8.8-3.4c-2.3-2.3-3.4-5.3-3.4-9.1c0-3.7,1-7,3.1-9.9
		c2.8-3.9,6.8-5.8,12-5.8c3.3,0,5.9,1,7.9,3.1c1.9,2,2.9,4.9,2.9,8.6C275.9,83.8,275.7,85.4,275.4,86.8z M269.2,82.3
		c0-0.3,0-0.6,0-0.7c0-2-0.4-3.5-1.3-4.5c-0.9-1-2.1-1.5-3.6-1.5c-1.5,0-2.9,0.6-4,1.7s-2,2.8-2.4,5H269.2z"/>
	<path class="st1" d="M279.9,76.4L281,71h3.6l0.9-4.3l8.4-5l-2,9.3h4.4l-1.1,5.4h-4.5l-2.4,11.3c-0.4,2-0.6,3.2-0.6,3.5
		c0,0.6,0.2,1,0.5,1.3s1,0.5,1.9,0.5c0.3,0,1.1-0.1,2.4-0.2l-1.1,5.4c-1.3,0.3-2.5,0.4-3.9,0.4c-2.6,0-4.4-0.5-5.6-1.5
		s-1.8-2.4-1.8-4.1c0-0.8,0.3-2.7,0.9-5.7l2.3-10.8H279.9z"/>
	<path class="st1" d="M305.6,78.7l-7.1-0.6c0.8-2.4,2.2-4.3,4.3-5.6c2-1.4,4.7-2,8-2c3.5,0,6,0.7,7.7,2.1c1.7,1.4,2.5,3.1,2.5,5.1
		c0,0.8-0.1,1.7-0.2,2.6c-0.1,0.9-0.6,3.3-1.5,7.2c-0.7,3.2-1.1,5.5-1.1,6.8c0,1.2,0.2,2.4,0.6,3.8h-7.1c-0.3-1-0.5-2-0.5-3
		c-1.1,1.2-2.3,2.1-3.7,2.7c-1.4,0.6-2.8,1-4.2,1c-2.2,0-4.1-0.7-5.5-2.2c-1.5-1.5-2.2-3.3-2.2-5.6c0-2.6,0.8-4.6,2.4-6.2
		s4.5-2.5,8.6-2.8c3.5-0.3,5.8-0.6,7-1c0.3-1,0.5-1.8,0.5-2.4c0-0.8-0.3-1.4-0.9-2c-0.6-0.5-1.6-0.8-2.8-0.8c-1.3,0-2.3,0.3-3.1,0.8
		C306.4,76.9,305.9,77.7,305.6,78.7z M312.6,85.4c-0.4,0.1-1,0.2-1.8,0.3c-3.7,0.4-6,1.1-7.2,1.9c-0.8,0.6-1.2,1.4-1.2,2.5
		c0,0.8,0.3,1.6,0.9,2.1s1.4,0.9,2.4,0.9c1.1,0,2.1-0.3,3.1-0.8c1-0.5,1.7-1.2,2.2-2.1s0.9-2.1,1.3-3.9L312.6,85.4z"/>
	<path class="st1" d="M329.7,71h6.9l-0.7,3.3c2.7-2.6,5.5-3.9,8.4-3.9c2,0,3.6,0.4,4.7,1.3c1.1,0.8,1.8,2,2.1,3.5
		c0.9-1.4,2.3-2.5,4-3.4c1.7-0.9,3.6-1.4,5.4-1.4c2.1,0,3.8,0.6,5,1.7s1.8,2.7,1.8,4.6c0,0.9-0.2,2.5-0.7,4.8L363.2,98h-7.3
		l3.5-16.5c0.4-2.1,0.6-3.2,0.6-3.5c0-0.7-0.2-1.3-0.7-1.8s-1.1-0.6-2-0.6c-1.8,0-3.4,1-4.8,2.9c-1,1.4-1.9,3.8-2.6,7.3L347.3,98
		H340l3.4-16.3c0.4-1.9,0.6-3.1,0.6-3.7c0-0.7-0.2-1.3-0.7-1.8s-1.1-0.7-2-0.7c-0.8,0-1.6,0.2-2.5,0.7c-0.8,0.5-1.6,1.1-2.2,2
		s-1.2,1.9-1.6,3.2c-0.2,0.6-0.5,2-1,4.1L331.3,98H324L329.7,71z"/>
	<path class="st1" d="M371.6,86.8c0-5,1.4-9,4.2-11.9s6.5-4.5,11.1-4.5c4,0,7.1,1.1,9.3,3.3s3.4,5.1,3.4,8.8c0,4.4-1.4,8.1-4.2,11.3
		s-6.5,4.8-11.2,4.8c-2.5,0-4.8-0.5-6.8-1.5s-3.4-2.5-4.4-4.3S371.6,88.9,371.6,86.8z M392.3,81.6c0-1.7-0.5-3.1-1.5-4.2
		s-2.3-1.6-3.9-1.6c-1.6,0-3,0.5-4.2,1.5s-2.2,2.4-2.8,4.2s-1,3.6-1,5.1c0,1.9,0.5,3.5,1.6,4.6s2.4,1.7,4,1.7c2,0,3.7-0.9,5-2.6
		C391.4,88,392.3,85.1,392.3,81.6z"/>
	<path class="st1" d="M402.2,98l7.8-37.2h7.3L409.5,98H402.2z"/>
</g>
<g class="st2">
	<path class="st1" d="M47.5,167H42l-7.7-19.2l-4,19.2h-5.5l6-28.6h5.5l7.8,19.2l4-19.2h5.5L47.5,167z"/>
	<path class="st1" d="M54.3,158.4c0-3.8,1.1-6.9,3.3-9.2s5-3.4,8.5-3.4c3.1,0,5.4,0.8,7.2,2.5s2.6,4,2.6,6.8c0,3.4-1.1,6.3-3.2,8.7
		s-5,3.7-8.6,3.7c-2,0-3.7-0.4-5.2-1.2c-1.5-0.8-2.6-1.9-3.4-3.3S54.3,160,54.3,158.4z M70.2,154.4c0-1.3-0.4-2.4-1.2-3.2
		c-0.8-0.8-1.8-1.2-3-1.2c-1.2,0-2.3,0.4-3.2,1.1s-1.7,1.8-2.2,3.3c-0.5,1.4-0.8,2.7-0.8,3.9c0,1.5,0.4,2.7,1.2,3.5
		c0.8,0.9,1.8,1.3,3,1.3c1.5,0,2.8-0.7,3.9-2C69.5,159.3,70.2,157.1,70.2,154.4z"/>
	<path class="st1" d="M79,154h10.9l-1.1,5.4H77.8L79,154z"/>
	<path class="st1" d="M91.3,167l6-28.6h7.7c2.1,0,3.5,0,4.1,0.1c1.2,0.1,2.2,0.4,3.2,0.7c0.9,0.4,1.8,0.9,2.5,1.5s1.4,1.4,2,2.4
		c0.6,0.9,1,2,1.3,3.2c0.3,1.2,0.4,2.5,0.4,4c0,3.1-0.6,5.8-1.8,8.2c-1.2,2.4-2.7,4.3-4.4,5.7c-1.4,1.1-3.1,1.9-5.3,2.4
		c-1.2,0.3-3.1,0.4-5.6,0.4H91.3z M98.2,162.4h3c2.2,0,3.7-0.1,4.7-0.4c1-0.3,1.9-0.8,2.7-1.5c1.2-1.1,2.1-2.5,2.9-4.2
		c0.8-1.8,1.2-3.8,1.2-6.2c0-2-0.3-3.6-1-4.6c-0.7-1-1.5-1.7-2.4-2c-0.7-0.2-1.9-0.4-3.6-0.4h-3.4L98.2,162.4z"/>
	<path class="st1" d="M124.1,146.3h5.2l-0.8,4c2-3,4.1-4.5,6.3-4.5c0.8,0,1.7,0.2,2.6,0.6l-2.1,4.6c-0.5-0.2-1-0.3-1.6-0.3
		c-1,0-1.9,0.4-2.9,1.1s-1.8,1.7-2.3,2.9c-0.6,1.2-1.1,3.1-1.7,5.8l-1.4,6.5h-5.6L124.1,146.3z"/>
	<path class="st1" d="M136.5,158.4c0-3.8,1.1-6.9,3.3-9.2s5-3.4,8.5-3.4c3.1,0,5.4,0.8,7.2,2.5s2.6,4,2.6,6.8c0,3.4-1.1,6.3-3.2,8.7
		s-5,3.7-8.6,3.7c-2,0-3.7-0.4-5.2-1.2c-1.5-0.8-2.6-1.9-3.4-3.3S136.5,160,136.5,158.4z M152.5,154.4c0-1.3-0.4-2.4-1.2-3.2
		c-0.8-0.8-1.8-1.2-3-1.2c-1.2,0-2.3,0.4-3.2,1.1s-1.7,1.8-2.2,3.3c-0.5,1.4-0.8,2.7-0.8,3.9c0,1.5,0.4,2.7,1.2,3.5
		c0.8,0.9,1.8,1.3,3,1.3c1.5,0,2.8-0.7,3.9-2C151.7,159.3,152.5,157.1,152.5,154.4z"/>
	<path class="st1" d="M181.8,167h-5.3l-1-13.2l-6.3,13.2H164l-2.6-20.7h5l1.4,13.9l6.5-13.9h5.1l0.7,13.9l6.4-13.9h5.6L181.8,167z"
		/>
	<path class="st1" d="M190.5,161.2l5.4-0.9c0.5,1.1,1.1,2,1.8,2.4c0.7,0.5,1.7,0.7,2.9,0.7c1.3,0,2.3-0.3,3.1-0.9
		c0.5-0.4,0.8-0.9,0.8-1.4c0-0.4-0.1-0.7-0.4-1c-0.3-0.3-1.1-0.6-2.3-1.1c-3.4-1.1-5.5-2-6.3-2.7c-1.3-1-1.9-2.3-1.9-4
		s0.6-3.1,1.8-4.2c1.7-1.7,4.2-2.5,7.6-2.5c2.7,0,4.7,0.5,6.1,1.5s2.2,2.3,2.6,4l-5.2,0.9c-0.3-0.8-0.7-1.3-1.3-1.7
		c-0.8-0.5-1.8-0.8-3-0.8s-2,0.2-2.5,0.6c-0.5,0.4-0.8,0.8-0.8,1.3c0,0.5,0.3,1,0.8,1.3c0.3,0.2,1.4,0.6,3.1,1.1
		c2.7,0.8,4.6,1.6,5.5,2.3c1.3,1.1,2,2.4,2,3.9c0,2-0.8,3.7-2.5,5.1c-1.7,1.4-4,2.2-7,2.2c-3,0-5.3-0.5-6.9-1.7
		C192.2,164.7,191.1,163.2,190.5,161.2z"/>
	<path class="st1" d="M233.6,158.4h-14.1c0,0.2,0,0.4,0,0.5c0,1.4,0.4,2.5,1.2,3.3c0.8,0.8,1.7,1.3,2.9,1.3c1.9,0,3.3-1,4.4-2.9
		l5,0.8c-1,2-2.3,3.5-3.9,4.5c-1.6,1-3.5,1.5-5.5,1.5c-2.8,0-5.1-0.9-6.8-2.6c-1.7-1.8-2.6-4.1-2.6-7c0-2.8,0.8-5.4,2.4-7.6
		c2.1-3,5.2-4.5,9.2-4.5c2.5,0,4.6,0.8,6.1,2.4c1.5,1.6,2.2,3.8,2.2,6.6C234,156.1,233.9,157.3,233.6,158.4z M228.9,154.9
		c0-0.2,0-0.4,0-0.6c0-1.5-0.3-2.7-1-3.5c-0.7-0.8-1.6-1.2-2.8-1.2c-1.2,0-2.2,0.4-3.1,1.3s-1.5,2.2-1.9,3.9H228.9z"/>
</g>
<g class="st2">
	<path class="st1" d="M265.2,167l7.8-37.2h10c2.8,0,4.6,0,5.4,0.1c1.5,0.2,2.9,0.5,4.1,0.9s2.3,1.1,3.3,2s1.8,1.9,2.6,3.1
		s1.3,2.6,1.7,4.2s0.6,3.3,0.6,5.1c0,4-0.8,7.6-2.3,10.7s-3.5,5.6-5.8,7.4c-1.8,1.4-4.1,2.5-6.9,3.1c-1.6,0.4-4,0.6-7.3,0.6H265.2z
		 M274.2,161h3.9c2.8,0,4.8-0.2,6.1-0.5s2.4-1,3.5-1.9c1.5-1.4,2.8-3.2,3.8-5.5s1.5-5,1.5-8.1c0-2.6-0.4-4.6-1.3-6s-1.9-2.2-3.2-2.7
		c-0.9-0.3-2.4-0.5-4.7-0.5h-4.4L274.2,161z"/>
	<path class="st1" d="M328.9,155.8h-18.3c0,0.3,0,0.5,0,0.7c0,1.8,0.5,3.2,1.5,4.3s2.3,1.7,3.7,1.7c2.4,0,4.3-1.3,5.7-3.8l6.5,1.1
		c-1.3,2.6-3,4.6-5.1,5.9s-4.5,2-7.1,2c-3.6,0-6.6-1.1-8.8-3.4s-3.4-5.3-3.4-9.1c0-3.7,1-7,3.1-9.9c2.8-3.9,6.8-5.8,12-5.8
		c3.3,0,5.9,1,7.9,3.1s2.9,4.9,2.9,8.6C329.4,152.8,329.2,154.4,328.9,155.8z M322.7,151.3c0-0.3,0-0.6,0-0.7c0-2-0.4-3.5-1.3-4.5
		s-2.1-1.5-3.6-1.5s-2.9,0.6-4,1.7s-2,2.8-2.4,5H322.7z"/>
	<path class="st1" d="M349.8,156.8l7.1,1.1c-1.2,3.1-2.9,5.5-5.2,7.2s-4.9,2.5-7.9,2.5c-3.4,0-6.2-1-8.2-3.1s-3-4.9-3-8.5
		c0-2.9,0.6-5.7,1.8-8.3s3.1-4.7,5.5-6.2s5.1-2.2,8.1-2.2c3.2,0,5.7,0.8,7.6,2.5s3,3.8,3.2,6.6l-6.9,0.7c-0.2-1.5-0.6-2.6-1.4-3.3
		s-1.7-1.1-3-1.1c-1.4,0-2.7,0.5-3.9,1.6s-2.2,2.6-2.8,4.7s-1,4-1,5.9c0,1.6,0.4,2.8,1.2,3.7s1.8,1.3,2.9,1.3s2.3-0.4,3.4-1.3
		S349.2,158.5,349.8,156.8z"/>
	<path class="st1" d="M361.5,155.8c0-5,1.4-9,4.2-11.9s6.5-4.5,11.1-4.5c4,0,7.1,1.1,9.3,3.3s3.4,5.1,3.4,8.8
		c0,4.4-1.4,8.1-4.2,11.3s-6.5,4.8-11.2,4.8c-2.5,0-4.8-0.5-6.8-1.5s-3.4-2.5-4.4-4.3S361.5,157.9,361.5,155.8z M382.3,150.6
		c0-1.7-0.5-3.1-1.5-4.2s-2.3-1.6-3.9-1.6c-1.6,0-3,0.5-4.2,1.5s-2.2,2.4-2.8,4.2s-1,3.6-1,5.1c0,1.9,0.5,3.5,1.6,4.6s2.4,1.7,4,1.7
		c2,0,3.7-0.9,5-2.6C381.3,157,382.3,154.1,382.3,150.6z"/>
	<path class="st1" d="M392.2,167l7.8-37.2h7.3l-7.8,37.2H392.2z"/>
	<path class="st1" d="M406.3,168.4l7.7,1.1c0,0.8,0.1,1.4,0.4,1.8s0.7,0.7,1.2,1s1.3,0.4,2.3,0.4c1.5,0,2.8-0.3,3.7-0.9
		c0.7-0.5,1.3-1.2,1.7-2.3c0.3-0.7,0.6-2.1,1-4.3l0.3-1.3c-2.5,2.1-5.1,3.1-7.8,3.1c-2.6,0-4.8-0.9-6.5-2.8s-2.5-4.6-2.5-8.2
		c0-3.2,0.6-6.1,1.7-8.7s2.8-4.6,4.8-6s4.2-2,6.4-2c1.8,0,3.4,0.5,4.9,1.4s2.6,2.3,3.5,4l1-4.8h6.8l-4.7,22.5
		c-0.8,3.6-1.4,6.2-1.9,7.7s-1.1,2.8-1.8,3.7s-1.5,1.7-2.6,2.3s-2.3,1.1-3.7,1.3s-2.9,0.4-4.6,0.4c-3.8,0-6.7-0.7-8.6-2
		s-2.9-3.5-2.9-6.5C406.2,169.2,406.2,168.8,406.3,168.4z M414.9,155.4c0,2,0.5,3.6,1.4,4.7s2.1,1.6,3.5,1.6c1.3,0,2.5-0.5,3.7-1.4
		s2.1-2.3,2.7-4.1s1-3.5,1-5.2c0-1.9-0.5-3.5-1.5-4.6s-2.2-1.8-3.6-1.8c-1.3,0-2.5,0.5-3.6,1.5s-2,2.6-2.7,4.8
		C415.1,152.6,414.9,154.1,414.9,155.4z"/>
	<path class="st1" d="M464.7,155.8h-18.3c0,0.3,0,0.5,0,0.7c0,1.8,0.5,3.2,1.5,4.3s2.3,1.7,3.7,1.7c2.4,0,4.3-1.3,5.7-3.8l6.5,1.1
		c-1.3,2.6-3,4.6-5.1,5.9s-4.5,2-7.1,2c-3.6,0-6.6-1.1-8.8-3.4s-3.4-5.3-3.4-9.1c0-3.7,1-7,3.1-9.9c2.8-3.9,6.8-5.8,12-5.8
		c3.3,0,5.9,1,7.9,3.1s2.9,4.9,2.9,8.6C465.2,152.8,465,154.4,464.7,155.8z M458.5,151.3c0-0.3,0-0.6,0-0.7c0-2-0.4-3.5-1.3-4.5
		s-2.1-1.5-3.6-1.5s-2.9,0.6-4,1.7s-2,2.8-2.4,5H458.5z"/>
	<path class="st1" d="M473.1,140h6.9l-0.7,3.5c1.7-1.5,3.3-2.6,4.8-3.2s3.1-1,4.7-1c2.2,0,4,0.6,5.2,1.9s1.9,3,1.9,5.1
		c0,0.9-0.3,2.7-0.8,5.4L492,167h-7.3l3.2-15.3c0.5-2.3,0.7-3.6,0.7-4.1c0-0.9-0.3-1.7-0.8-2.2s-1.3-0.8-2.3-0.8
		c-1.1,0-2.3,0.4-3.6,1.3s-2.3,2.1-3.1,3.6c-0.5,1-1.2,3.2-1.8,6.4l-2.3,11.1h-7.3L473.1,140z"/>
</g>
</svg>
