<?xml version="1.0" encoding="utf-8"?>
<!-- Generator: Adobe Illustrator 23.1.0, SVG Export Plug-In . SVG Version: 6.00 Build 0)  -->
<svg version="1.1" id="Layer_1" xmlns="http://www.w3.org/2000/svg" xmlns:xlink="http://www.w3.org/1999/xlink" x="0px" y="0px"
	 viewBox="0 0 199.8 93.5" style="enable-background:new 0 0 199.8 93.5;" xml:space="preserve">
<style type="text/css">
	.st0{enable-background:new    ;}
	.st1{fill:#F0EA4A;}
</style>
<g class="st0">
	<path class="st1" d="M106.7,26.1l-26.6,42h-9.5l-9.8-42h10l6.8,29.9l19-29.9H106.7z"/>
	<path class="st1" d="M106.9,67.5c-3-0.9-5.5-2-7.3-3.4l4-7.5c1.9,1.4,4.1,2.5,6.5,3.2s4.9,1.1,7.4,1.1c2.7,0,4.8-0.4,6.4-1.3
		c1.6-0.9,2.3-2.1,2.3-3.6c0-1.2-0.6-2.2-1.9-2.8c-1.2-0.7-3.2-1.4-5.9-2.1c-2.7-0.8-4.9-1.6-6.7-2.3c-1.7-0.7-3.2-1.8-4.5-3.3
		c-1.3-1.5-1.9-3.4-1.9-5.9c0-2.8,0.8-5.3,2.4-7.5c1.6-2.2,3.8-3.8,6.7-5c2.9-1.2,6.3-1.7,10.1-1.7c2.8,0,5.5,0.3,8,0.9
		c2.5,0.6,4.7,1.5,6.5,2.7l-3.7,7.4c-1.6-1.1-3.3-1.9-5.3-2.4c-2-0.5-4-0.8-6.1-0.8c-2.8,0-4.9,0.5-6.5,1.4c-1.6,1-2.4,2.2-2.4,3.7
		c0,0.9,0.3,1.7,1,2.3c0.7,0.6,1.5,1.1,2.6,1.5c1,0.4,2.5,0.8,4.4,1.4c2.7,0.7,4.9,1.5,6.6,2.2c1.7,0.7,3.2,1.8,4.4,3.2
		c1.2,1.4,1.8,3.3,1.8,5.6c0,2.9-0.8,5.4-2.4,7.5c-1.6,2.1-3.9,3.8-6.8,5c-2.9,1.2-6.3,1.8-10.2,1.8
		C113.1,68.8,109.9,68.4,106.9,67.5z"/>
</g>
<path id="Path_152" class="st1" d="M46.8,93.5L27.7,46.8L46.8,0L0,46.8L46.8,93.5z"/>
<path id="Path_151" class="st1" d="M153,0l19.1,46.7L153,93.5l46.8-46.8L153,0z"/>
</svg>
