<?xml version="1.0" encoding="utf-8"?>
<!-- Generator: Adobe Illustrator 23.1.0, SVG Export Plug-In . SVG Version: 6.00 Build 0)  -->
<svg version="1.1" id="Layer_1" xmlns="http://www.w3.org/2000/svg" xmlns:xlink="http://www.w3.org/1999/xlink" x="0px" y="0px"
	 viewBox="0 0 176.4 94.3" style="enable-background:new 0 0 176.4 94.3;" xml:space="preserve">
<style type="text/css">
	.st0{fill:#F0EA4A;}
	.st1{enable-background:new    ;}
	.st2{fill:#FFFFFF;}
</style>
<g>
	<path id="Path_70" class="st0" d="M128.4,0.2l19.6,47l-19.6,47l48-47L128.4,0.2z"/>
	<g class="st1">
		<path class="st0" d="M66.3,0.2l-3.2,9.7h-2.4l-2.1-6.6l-2.2,6.6h-2.4l-3.2-9.7h2.3L55.3,7l2.3-6.8h2.1l2.2,6.9l2.3-6.9H66.3z"/>
		<path class="st0" d="M69.4,9.4c-0.8-0.4-1.4-1-1.9-1.8C67,6.8,66.8,6,66.8,5s0.2-1.8,0.7-2.6c0.5-0.8,1.1-1.4,1.9-1.8
			C70.2,0.2,71.1,0,72.1,0c1,0,1.9,0.2,2.7,0.7c0.8,0.4,1.4,1,1.9,1.8c0.5,0.8,0.7,1.6,0.7,2.6s-0.2,1.8-0.7,2.6
			c-0.5,0.8-1.1,1.4-1.9,1.8c-0.8,0.4-1.7,0.7-2.7,0.7C71.1,10.1,70.2,9.8,69.4,9.4z M73.7,7.7c0.5-0.3,0.8-0.6,1.1-1.1
			s0.4-1,0.4-1.6S75,3.9,74.8,3.4c-0.3-0.5-0.6-0.8-1.1-1.1s-1-0.4-1.6-0.4c-0.6,0-1.1,0.1-1.6,0.4c-0.5,0.3-0.8,0.6-1.1,1.1
			c-0.3,0.5-0.4,1-0.4,1.6s0.1,1.1,0.4,1.6c0.3,0.5,0.6,0.8,1.1,1.1c0.5,0.3,1,0.4,1.6,0.4C72.7,8.1,73.2,8,73.7,7.7z"/>
		<path class="st0" d="M85.3,9.9l-1.9-2.7h-0.1h-2v2.7h-2.2V0.2h4.2c0.9,0,1.6,0.1,2.2,0.4c0.6,0.3,1.1,0.7,1.5,1.2
			c0.3,0.5,0.5,1.2,0.5,1.9S87.4,5,87.1,5.6c-0.3,0.5-0.8,0.9-1.5,1.2l2.2,3.1H85.3z M84.8,2.4C84.4,2.1,83.9,2,83.2,2h-1.8v3.4h1.8
			c0.7,0,1.2-0.1,1.5-0.4c0.4-0.3,0.5-0.7,0.5-1.2C85.3,3.1,85.1,2.7,84.8,2.4z"/>
		<path class="st0" d="M92.9,6.1l-1.3,1.4v2.5h-2.2V0.2h2.2v4.5l4.3-4.5h2.5l-4,4.3l4.3,5.4H96L92.9,6.1z"/>
		<path class="st0" d="M100.4,9.7c-0.7-0.2-1.3-0.5-1.7-0.8l0.8-1.7c0.4,0.3,0.9,0.6,1.5,0.7c0.6,0.2,1.1,0.3,1.7,0.3
			c0.6,0,1.1-0.1,1.4-0.3c0.3-0.2,0.5-0.4,0.5-0.8c0-0.2-0.1-0.4-0.3-0.6c-0.2-0.2-0.4-0.3-0.7-0.4c-0.3-0.1-0.7-0.2-1.1-0.3
			c-0.7-0.2-1.3-0.4-1.8-0.5c-0.5-0.2-0.9-0.5-1.2-0.8C99,4.2,98.8,3.7,98.8,3c0-0.6,0.2-1.1,0.5-1.5s0.8-0.8,1.4-1.1
			c0.6-0.3,1.4-0.4,2.3-0.4c0.6,0,1.2,0.1,1.8,0.2s1.1,0.4,1.6,0.6l-0.7,1.7c-0.9-0.5-1.8-0.8-2.7-0.8c-0.6,0-1.1,0.1-1.4,0.3
			c-0.3,0.2-0.5,0.5-0.5,0.8c0,0.3,0.2,0.6,0.5,0.7c0.3,0.2,0.9,0.3,1.6,0.5c0.7,0.2,1.3,0.4,1.8,0.5c0.5,0.2,0.9,0.5,1.2,0.8
			c0.3,0.4,0.5,0.9,0.5,1.5c0,0.6-0.2,1.1-0.5,1.5c-0.3,0.5-0.8,0.8-1.4,1.1c-0.6,0.3-1.4,0.4-2.3,0.4
			C101.8,10.1,101.1,9.9,100.4,9.7z"/>
		<path class="st0" d="M112.2,0.2h2.2v9.7h-2.2V0.2z"/>
		<path class="st0" d="M125.7,0.2v9.7h-1.8L119,4v5.9h-2.2V0.2h1.9l4.8,5.9V0.2H125.7z"/>
	</g>
	<g class="st1">
		<path class="st0" d="M57.7,19.9h-4.1l-0.8,1.9h-2.1l3.9-8.8h2l3.9,8.8h-2.1L57.7,19.9z M57,18.3L55.6,15l-1.4,3.4H57z"/>
		<path class="st0" d="M62.4,21.6c-0.6-0.2-1.2-0.4-1.6-0.7l0.7-1.5c0.4,0.3,0.8,0.5,1.3,0.7c0.5,0.2,1,0.3,1.6,0.3
			c0.6,0,1-0.1,1.3-0.3c0.3-0.2,0.4-0.4,0.4-0.7c0-0.2-0.1-0.4-0.2-0.5c-0.2-0.1-0.4-0.2-0.6-0.3c-0.3-0.1-0.6-0.2-1-0.3
			c-0.7-0.2-1.2-0.3-1.6-0.5c-0.4-0.2-0.8-0.4-1.1-0.8c-0.3-0.4-0.5-0.8-0.5-1.4c0-0.5,0.1-1,0.4-1.4c0.3-0.4,0.7-0.7,1.2-1
			c0.6-0.2,1.2-0.4,2-0.4c0.6,0,1.1,0.1,1.6,0.2c0.5,0.1,1,0.3,1.4,0.6l-0.6,1.5c-0.8-0.5-1.6-0.7-2.4-0.7c-0.6,0-1,0.1-1.3,0.3
			c-0.3,0.2-0.4,0.4-0.4,0.7c0,0.3,0.2,0.5,0.5,0.7c0.3,0.1,0.8,0.3,1.4,0.4c0.7,0.2,1.2,0.3,1.6,0.5c0.4,0.2,0.8,0.4,1.1,0.8
			c0.3,0.3,0.5,0.8,0.5,1.4c0,0.5-0.1,1-0.4,1.4c-0.3,0.4-0.7,0.7-1.3,1c-0.6,0.2-1.2,0.4-2,0.4C63.7,21.9,63,21.8,62.4,21.6z"/>
		<path class="st0" d="M75.1,14.6v2.3h4.1v1.6h-4.1v3.2h-2V13h6.6v1.6H75.1z"/>
		<path class="st0" d="M86.5,19.9h-4.1l-0.8,1.9h-2.1l3.9-8.8h2l3.9,8.8h-2.1L86.5,19.9z M85.8,18.3L84.4,15L83,18.3H85.8z"/>
		<path class="st0" d="M91.2,21.6c-0.6-0.2-1.2-0.4-1.6-0.7l0.7-1.5c0.4,0.3,0.8,0.5,1.3,0.7s1,0.3,1.6,0.3c0.6,0,1-0.1,1.3-0.3
			c0.3-0.2,0.4-0.4,0.4-0.7c0-0.2-0.1-0.4-0.2-0.5c-0.2-0.1-0.4-0.2-0.6-0.3c-0.3-0.1-0.6-0.2-1-0.3c-0.7-0.2-1.2-0.3-1.6-0.5
			c-0.4-0.2-0.8-0.4-1.1-0.8c-0.3-0.4-0.5-0.8-0.5-1.4c0-0.5,0.1-1,0.4-1.4c0.3-0.4,0.7-0.7,1.2-1c0.6-0.2,1.2-0.4,2-0.4
			c0.6,0,1.1,0.1,1.6,0.2c0.5,0.1,1,0.3,1.4,0.6l-0.6,1.5c-0.8-0.5-1.6-0.7-2.4-0.7c-0.6,0-1,0.1-1.3,0.3c-0.3,0.2-0.4,0.4-0.4,0.7
			c0,0.3,0.2,0.5,0.5,0.7c0.3,0.1,0.8,0.3,1.4,0.4c0.7,0.2,1.2,0.3,1.6,0.5c0.4,0.2,0.8,0.4,1.1,0.8c0.3,0.3,0.5,0.8,0.5,1.4
			c0,0.5-0.1,1-0.4,1.4c-0.3,0.4-0.7,0.7-1.3,1c-0.6,0.2-1.2,0.4-2,0.4C92.5,21.9,91.8,21.8,91.2,21.6z"/>
		<path class="st0" d="M100,14.6h-2.8V13h7.6v1.7H102v7.1h-2V14.6z"/>
		<path class="st0" d="M115.2,19.9h-4.1l-0.8,1.9h-2.1l3.9-8.8h2l3.9,8.8H116L115.2,19.9z M114.6,18.3l-1.4-3.4l-1.4,3.4H114.6z"/>
		<path class="st0" d="M119.9,21.6c-0.6-0.2-1.2-0.4-1.6-0.7l0.7-1.5c0.4,0.3,0.8,0.5,1.3,0.7s1,0.3,1.6,0.3c0.6,0,1-0.1,1.3-0.3
			c0.3-0.2,0.4-0.4,0.4-0.7c0-0.2-0.1-0.4-0.2-0.5c-0.2-0.1-0.4-0.2-0.6-0.3c-0.3-0.1-0.6-0.2-1-0.3c-0.7-0.2-1.2-0.3-1.6-0.5
			c-0.4-0.2-0.8-0.4-1.1-0.8s-0.5-0.8-0.5-1.4c0-0.5,0.1-1,0.4-1.4c0.3-0.4,0.7-0.7,1.2-1c0.6-0.2,1.2-0.4,2-0.4
			c0.6,0,1.1,0.1,1.6,0.2c0.5,0.1,1,0.3,1.4,0.6l-0.6,1.5c-0.8-0.5-1.6-0.7-2.4-0.7c-0.6,0-1,0.1-1.3,0.3c-0.3,0.2-0.4,0.4-0.4,0.7
			c0,0.3,0.2,0.5,0.5,0.7c0.3,0.1,0.8,0.3,1.4,0.4c0.7,0.2,1.2,0.3,1.6,0.5c0.4,0.2,0.8,0.4,1.1,0.8s0.5,0.8,0.5,1.4
			c0,0.5-0.1,1-0.4,1.4c-0.3,0.4-0.7,0.7-1.3,1c-0.6,0.2-1.2,0.4-2,0.4C121.2,21.9,120.6,21.8,119.9,21.6z"/>
	</g>
	<g class="st1">
		<path class="st2" d="M74.5,24.9v55H61.7V35.1h-11V24.9H74.5z"/>
		<path class="st2" d="M120.1,50.2c3.7,3.1,5.5,7.2,5.5,12.4c0,3.4-0.8,6.4-2.5,9.2c-1.7,2.8-4.2,5-7.7,6.6
			c-3.4,1.7-7.7,2.5-12.7,2.5c-3.9,0-7.7-0.5-11.4-1.5c-3.7-1-6.9-2.5-9.6-4.4l5-9.7c2.1,1.6,4.5,2.8,7.2,3.7
			c2.7,0.9,5.5,1.3,8.4,1.3c3.2,0,5.7-0.6,7.5-1.9c1.8-1.3,2.8-3,2.8-5.3c0-2.4-1-4.1-2.9-5.3c-1.9-1.2-5.2-1.8-9.9-1.8H85.9l2.8-31
			h33.6v10.2h-23l-0.9,10.5h4.5C110.7,45.5,116.4,47.1,120.1,50.2z"/>
	</g>
	<g class="st1">
		<path class="st0" d="M60.9,94.1l0-6.7l-3.3,5.5h-1.2l-3.3-5.4v6.6h-2.4V82.9h2.1l4.2,7l4.1-7h2.1l0,11.2H60.9z"/>
		<path class="st0" d="M66,82.9h2.6v11.2H66V82.9z"/>
		<path class="st0" d="M81.5,82.9v11.2h-2.1l-5.6-6.8v6.8h-2.6V82.9h2.1l5.6,6.8v-6.8H81.5z"/>
		<path class="st0" d="M85.4,92.9c-0.9-0.9-1.3-2.1-1.3-3.8v-6.3h2.6V89c0,2,0.8,3,2.5,3c0.8,0,1.4-0.2,1.9-0.7s0.6-1.2,0.6-2.3
			v-6.2h2.6v6.3c0,1.6-0.4,2.9-1.3,3.8c-0.9,0.9-2.1,1.3-3.7,1.3C87.6,94.3,86.3,93.8,85.4,92.9z"/>
		<path class="st0" d="M98.9,85h-3.6v-2.1h9.8V85h-3.6v9.1h-2.6V85z"/>
		<path class="st0" d="M115.2,92v2.1h-8.7V82.9h8.5v2.1h-5.9v2.4h5.2v2h-5.2V92H115.2z"/>
		<path class="st0" d="M118.3,93.9c-0.8-0.2-1.5-0.6-2-0.9l0.9-2c0.5,0.4,1.1,0.6,1.7,0.8c0.7,0.2,1.3,0.3,2,0.3
			c0.7,0,1.3-0.1,1.6-0.3c0.4-0.2,0.5-0.5,0.5-0.9c0-0.3-0.1-0.5-0.3-0.7s-0.5-0.3-0.8-0.4c-0.3-0.1-0.8-0.2-1.3-0.4
			c-0.9-0.2-1.6-0.4-2.1-0.6c-0.5-0.2-1-0.5-1.4-1c-0.4-0.4-0.6-1-0.6-1.8c0-0.7,0.2-1.2,0.5-1.8c0.4-0.5,0.9-0.9,1.6-1.3
			s1.6-0.5,2.6-0.5c0.7,0,1.4,0.1,2.1,0.3s1.3,0.4,1.8,0.7l-0.8,2c-1-0.6-2.1-0.9-3.1-0.9c-0.7,0-1.3,0.1-1.6,0.4
			c-0.3,0.2-0.5,0.5-0.5,0.9s0.2,0.7,0.6,0.9s1,0.4,1.8,0.6c0.9,0.2,1.6,0.4,2.1,0.6c0.5,0.2,1,0.5,1.4,1c0.4,0.4,0.6,1,0.6,1.8
			c0,0.6-0.2,1.2-0.5,1.8c-0.4,0.5-0.9,0.9-1.6,1.3c-0.7,0.3-1.6,0.5-2.6,0.5C120,94.3,119.2,94.1,118.3,93.9z"/>
	</g>
	<path id="Path_142" class="st0" d="M48,94.3l-19.6-47L48,0.2l-48,47L48,94.3z"/>
</g>
</svg>
