<?xml version="1.0" encoding="utf-8"?>
<!-- Generator: Adobe Illustrator 23.1.0, SVG Export Plug-In . SVG Version: 6.00 Build 0)  -->
<svg version="1.1" id="Layer_1" xmlns="http://www.w3.org/2000/svg" xmlns:xlink="http://www.w3.org/1999/xlink" x="0px" y="0px"
	 viewBox="0 0 305.6 207.8" style="enable-background:new 0 0 305.6 207.8;" xml:space="preserve">
<style type="text/css">
	.st0{fill:#FFFFFF;}
	.st1{enable-background:new    ;}
</style>
<g>
	<g id="Group_174" transform="translate(123.963 0)">
		<g id="Group_172" transform="translate(77.604)">
			<g id="Group_168" transform="translate(50.967 13.98)">
				<path id="Path_185" class="st0" d="M2.1,7.2c-1.1,0-2-0.9-2-2c0-0.4,0.1-0.7,0.3-1L2.1,1c0.6-1,1.8-1.3,2.8-0.7
					c1,0.6,1.3,1.8,0.7,2.8L3.9,6.2C3.5,6.8,2.8,7.2,2.1,7.2z"/>
			</g>
			<g id="Group_169" transform="translate(84.722 50.482)">
				<path id="Path_186" class="st0" d="M2.1,5.9C1,5.9,0,5,0,3.8c0-0.7,0.4-1.4,1-1.8l3.1-1.8C5.2-0.3,6.4,0,7,1s0.3,2.2-0.7,2.8
					c0,0-0.1,0-0.1,0L3.1,5.6C2.8,5.8,2.4,5.9,2.1,5.9z"/>
			</g>
			<g id="Group_170" transform="translate(98.028 100.324)">
				<path id="Path_187" class="st0" d="M5.7,4.1H2.1C1,4.1,0,3.2,0,2c0-1.1,0.9-2,2-2h3.6c1.1,0,2,0.9,2,2C7.7,3.2,6.8,4.1,5.7,4.1z
					"/>
			</g>
			<g id="Group_171">
				<path id="Path_188" class="st0" d="M2.1,0c1.1,0,2,0.9,2,2v3.6c0,1.1-0.9,2-2,2c-1.1,0-2-0.9-2-2c0,0,0,0,0,0V2C0,0.9,1,0,2.1,0
					z"/>
			</g>
		</g>
		<g id="Group_173" transform="translate(0 19.709)">
			<path id="Path_189" class="st0" d="M0.2,57C14.9,13.2,62.4-10.4,106.2,4.4s67.4,62.3,52.6,106.1c-14.8,43.8-62.3,67.4-106.1,52.6
				C27.8,154.7,8.3,135,0,110l4.3,0c14.5,41.5,60,63.4,101.5,48.9s63.4-60,48.9-101.5S94.7-6,53.2,8.6C30.5,16.5,12.6,34.3,4.5,56.9
				L0.2,57z"/>
		</g>
		<path id="Path_190" class="st0" d="M142.5,103.4c0-34.6-28.1-62.6-62.6-62.6v16.3c25.5,0,46.3,20.7,46.3,46.3L142.5,103.4z"/>
	</g>
	<g class="st1">
		<path class="st0" d="M21.8,102.3c1.4,1.5,2.1,3.4,2.1,5.7c0,1.7-0.5,3.4-1.4,4.8c-0.9,1.5-2.3,2.7-4.2,3.5
			c-1.9,0.9-4.2,1.3-6.9,1.3c-2.1,0-4.2-0.3-6.3-0.8c-2-0.6-3.8-1.4-5.2-2.4l2.7-5.3c1.1,0.9,2.5,1.5,4,2c1.5,0.5,3,0.7,4.6,0.7
			c1.7,0,3.1-0.3,4.1-1c1-0.7,1.5-1.6,1.5-2.9c0-2.5-1.9-3.7-5.6-3.7H8.1v-4.6l6.2-7H1.5v-5.6h21.1v4.5l-6.8,7.7
			C18.4,99.8,20.4,100.8,21.8,102.3z"/>
		<path class="st0" d="M81,87.1v30.1h-7v-12.3H60.4v12.3h-7V87.1h7V99H74V87.1H81z"/>
		<path class="st0" d="M94.3,115.7c-2.5-1.3-4.5-3.2-5.9-5.6c-1.4-2.4-2.1-5-2.1-8c0-3,0.7-5.6,2.1-8s3.4-4.2,5.9-5.6
			c2.5-1.3,5.3-2,8.4-2c3.1,0,5.9,0.7,8.4,2c2.5,1.3,4.5,3.2,5.9,5.6c1.4,2.4,2.2,5,2.2,8c0,3-0.7,5.6-2.2,8
			c-1.4,2.4-3.4,4.2-5.9,5.6c-2.5,1.3-5.3,2-8.4,2C99.6,117.7,96.8,117.1,94.3,115.7z M107.5,110.6c1.4-0.8,2.6-2,3.4-3.4
			c0.8-1.5,1.2-3.1,1.2-5s-0.4-3.5-1.2-5s-1.9-2.6-3.4-3.4c-1.4-0.8-3-1.2-4.8-1.2c-1.8,0-3.4,0.4-4.8,1.2c-1.4,0.8-2.6,2-3.4,3.4
			s-1.2,3.1-1.2,5s0.4,3.5,1.2,5c0.8,1.5,1.9,2.6,3.4,3.4c1.4,0.8,3,1.2,4.8,1.2C104.5,111.8,106.1,111.4,107.5,110.6z"/>
		<path class="st0" d="M127.8,114.2c-2.4-2.4-3.6-5.8-3.6-10.2V87.1h7v16.6c0,5.4,2.2,8.1,6.7,8.1c2.2,0,3.8-0.7,5-2
			s1.7-3.3,1.7-6.1V87.1h6.9V104c0,4.4-1.2,7.8-3.6,10.2c-2.4,2.4-5.7,3.6-10,3.6C133.5,117.7,130.2,116.6,127.8,114.2z"/>
		<path class="st0" d="M177.5,117.2l-5.8-8.4h-0.3h-6.1v8.4h-7V87.1h13c2.7,0,5,0.4,6.9,1.3s3.5,2.1,4.5,3.8
			c1.1,1.6,1.6,3.6,1.6,5.8c0,2.2-0.5,4.2-1.6,5.8c-1.1,1.6-2.6,2.9-4.6,3.7l6.8,9.7H177.5z M175.7,94.2c-1.1-0.9-2.7-1.4-4.8-1.4
			h-5.7v10.5h5.7c2.1,0,3.7-0.5,4.8-1.4c1.1-0.9,1.6-2.2,1.6-3.9C177.4,96.4,176.8,95.1,175.7,94.2z"/>
		<path class="st0" d="M192.9,116.8c-2.2-0.6-4-1.5-5.4-2.5l2.4-5.2c1.3,0.9,2.8,1.7,4.6,2.3c1.8,0.6,3.6,0.9,5.3,0.9
			c2,0,3.4-0.3,4.4-0.9s1.4-1.4,1.4-2.3c0-0.7-0.3-1.3-0.8-1.8c-0.6-0.5-1.3-0.9-2.1-1.1c-0.9-0.3-2.1-0.6-3.5-0.9
			c-2.3-0.5-4.2-1.1-5.6-1.6s-2.7-1.4-3.8-2.6c-1-1.2-1.6-2.8-1.6-4.8c0-1.7,0.5-3.3,1.4-4.8s2.4-2.5,4.3-3.4c1.9-0.8,4.2-1.2,7-1.2
			c1.9,0,3.8,0.2,5.6,0.7c1.8,0.5,3.4,1.1,4.8,2l-2.1,5.3c-2.8-1.6-5.6-2.4-8.3-2.4c-2,0-3.4,0.3-4.3,0.9c-0.9,0.6-1.4,1.5-1.4,2.5
			s0.5,1.8,1.6,2.3c1.1,0.5,2.7,1,4.9,1.5c2.3,0.5,4.2,1.1,5.6,1.6c1.5,0.5,2.7,1.4,3.8,2.6c1,1.2,1.6,2.8,1.6,4.8
			c0,1.7-0.5,3.3-1.4,4.7c-1,1.4-2.4,2.5-4.3,3.4c-1.9,0.8-4.3,1.2-7,1.2C197.4,117.7,195.1,117.4,192.9,116.8z"/>
	</g>
	<g class="st1">
		<path class="st0" d="M1.8,73h1v8.3h5.1v0.8H1.8V73z"/>
		<path class="st0" d="M15.2,79.6h-5.1L9,82.1H8l4.2-9.1h0.9l4.2,9.1h-1L15.2,79.6z M14.8,78.8L12.6,74l-2.2,4.9H14.8z"/>
		<path class="st0" d="M19.3,81.8c-0.6-0.2-1.1-0.5-1.4-0.9l0.4-0.7c0.3,0.3,0.8,0.6,1.3,0.8c0.5,0.2,1.1,0.3,1.7,0.3
			c0.8,0,1.4-0.1,1.8-0.4c0.4-0.3,0.6-0.7,0.6-1.2c0-0.4-0.1-0.7-0.3-0.9s-0.5-0.4-0.8-0.5c-0.3-0.1-0.8-0.2-1.3-0.4
			c-0.7-0.2-1.2-0.3-1.6-0.5s-0.8-0.4-1-0.7c-0.3-0.3-0.4-0.8-0.4-1.3c0-0.5,0.1-0.9,0.4-1.3s0.6-0.7,1.1-0.9
			c0.5-0.2,1.1-0.3,1.9-0.3c0.5,0,1,0.1,1.5,0.2c0.5,0.1,0.9,0.3,1.3,0.6L24,74.5c-0.4-0.3-0.8-0.4-1.2-0.6
			c-0.4-0.1-0.9-0.2-1.3-0.2c-0.8,0-1.4,0.2-1.8,0.5c-0.4,0.3-0.6,0.7-0.6,1.2c0,0.4,0.1,0.7,0.3,0.9c0.2,0.2,0.5,0.4,0.8,0.5
			s0.8,0.2,1.3,0.4c0.7,0.2,1.2,0.3,1.6,0.5c0.4,0.2,0.8,0.4,1,0.7s0.4,0.8,0.4,1.3c0,0.5-0.1,0.9-0.4,1.3s-0.6,0.7-1.1,0.9
			c-0.5,0.2-1.1,0.3-1.9,0.3C20.6,82.1,20,82,19.3,81.8z"/>
		<path class="st0" d="M28.4,73.8h-3.2V73h7.4v0.8h-3.2v8.3h-1V73.8z"/>
		<path class="st0" d="M34.5,81.8c-0.6-0.2-1.1-0.5-1.4-0.9l0.4-0.7c0.3,0.3,0.8,0.6,1.3,0.8c0.5,0.2,1.1,0.3,1.7,0.3
			c0.8,0,1.4-0.1,1.8-0.4c0.4-0.3,0.6-0.7,0.6-1.2c0-0.4-0.1-0.7-0.3-0.9s-0.5-0.4-0.8-0.5c-0.3-0.1-0.8-0.2-1.3-0.4
			c-0.7-0.2-1.2-0.3-1.6-0.5s-0.8-0.4-1-0.7c-0.3-0.3-0.4-0.8-0.4-1.3c0-0.5,0.1-0.9,0.4-1.3s0.6-0.7,1.1-0.9
			c0.5-0.2,1.1-0.3,1.9-0.3c0.5,0,1,0.1,1.5,0.2c0.5,0.1,0.9,0.3,1.3,0.6l-0.3,0.8c-0.4-0.3-0.8-0.4-1.2-0.6
			c-0.4-0.1-0.9-0.2-1.3-0.2c-0.8,0-1.4,0.2-1.8,0.5c-0.4,0.3-0.6,0.7-0.6,1.2c0,0.4,0.1,0.7,0.3,0.9c0.2,0.2,0.5,0.4,0.8,0.5
			s0.8,0.2,1.3,0.4c0.7,0.2,1.2,0.3,1.6,0.5c0.4,0.2,0.8,0.4,1,0.7s0.4,0.8,0.4,1.3c0,0.5-0.1,0.9-0.4,1.3s-0.6,0.7-1.1,0.9
			c-0.5,0.2-1.1,0.3-1.9,0.3C35.8,82.1,35.1,82,34.5,81.8z"/>
		<path class="st0" d="M46.3,81.1c-0.7-0.7-1-1.7-1-3V73h1v5.2c0,1.1,0.2,1.8,0.7,2.4c0.5,0.5,1.2,0.8,2.1,0.8
			c0.9,0,1.6-0.3,2.1-0.8c0.5-0.5,0.7-1.3,0.7-2.4V73h0.9v5.2c0,1.3-0.3,2.3-1,3c-0.7,0.7-1.6,1-2.7,1S46.9,81.8,46.3,81.1z"/>
		<path class="st0" d="M61.8,73.8c0.7,0.6,1,1.3,1,2.3c0,1-0.3,1.7-1,2.3c-0.7,0.5-1.6,0.8-2.7,0.8h-2.4v2.9h-1V73h3.4
			C60.2,73,61.1,73.2,61.8,73.8z M61.1,77.7c0.5-0.4,0.7-1,0.7-1.7c0-0.7-0.2-1.3-0.7-1.7c-0.5-0.4-1.2-0.6-2.1-0.6h-2.4v4.5H59
			C59.9,78.3,60.6,78.1,61.1,77.7z"/>
		<path class="st0" d="M70.2,73.8H67V73h7.4v0.8h-3.2v8.3h-1V73.8z"/>
		<path class="st0" d="M77.2,81.5c-0.7-0.4-1.3-1-1.7-1.7c-0.4-0.7-0.6-1.5-0.6-2.4s0.2-1.7,0.6-2.4s1-1.3,1.7-1.7
			c0.7-0.4,1.5-0.6,2.5-0.6s1.7,0.2,2.4,0.6s1.3,1,1.7,1.7c0.4,0.7,0.6,1.5,0.6,2.4s-0.2,1.7-0.6,2.4c-0.4,0.7-1,1.3-1.7,1.7
			c-0.7,0.4-1.5,0.6-2.4,0.6S78,81.9,77.2,81.5z M81.7,80.8c0.6-0.3,1-0.8,1.4-1.4s0.5-1.2,0.5-1.9s-0.2-1.4-0.5-1.9s-0.8-1-1.4-1.4
			c-0.6-0.3-1.2-0.5-2-0.5s-1.4,0.2-2,0.5c-0.6,0.3-1,0.8-1.4,1.4s-0.5,1.2-0.5,1.9s0.2,1.4,0.5,1.9s0.8,1,1.4,1.4s1.2,0.5,2,0.5
			S81.1,81.1,81.7,80.8z"/>
	</g>
</g>
</svg>
