<?xml version="1.0" encoding="utf-8"?>
<!-- Generator: Adobe Illustrator 23.1.0, SVG Export Plug-In . SVG Version: 6.00 Build 0)  -->
<svg version="1.1" id="Layer_1" xmlns="http://www.w3.org/2000/svg" xmlns:xlink="http://www.w3.org/1999/xlink" x="0px" y="0px"
	 viewBox="0 0 305.6 207.8" style="enable-background:new 0 0 305.6 207.8;" xml:space="preserve">
<style type="text/css">
	.st0{fill:#F1EA48;}
	.st1{enable-background:new    ;}
	.st2{fill:#FFFFFF;}
</style>
<g>
	<g id="Group_165" transform="translate(123.963 0)">
		<g id="Group_163" transform="translate(77.491)">
			<g id="Group_156" transform="translate(0 200.126)">
				<path id="Path_176" class="st0" d="M0.4,0c1.1,0,2,0.9,2,2v3.6c0,1.1-0.9,2-2,2s-2-0.9-2-2c0,0,0,0,0,0V2C-1.7,0.9-0.8,0,0.4,0
					L0.4,0z"/>
			</g>
			<g id="Group_157" transform="translate(51.08 13.98)">
				<path id="Path_177" class="st0" d="M0.4,7.2c-1.1,0-2-0.9-2-2c0-0.4,0.1-0.7,0.3-1L0.4,1c0.6-1,1.8-1.3,2.8-0.7
					c1,0.6,1.3,1.8,0.7,2.8L2.1,6.2C1.8,6.8,1.1,7.2,0.4,7.2z"/>
			</g>
			<g id="Group_158" transform="translate(84.835 50.482)">
				<path id="Path_178" class="st0" d="M0.4,5.9c-1.1,0-2-0.9-2-2c0-0.7,0.4-1.4,1-1.8l3.1-1.8c1-0.6,2.2-0.2,2.8,0.8
					c0.5,1,0.2,2.2-0.7,2.8L1.4,5.6C1.1,5.8,0.7,5.9,0.4,5.9z"/>
			</g>
			<g id="Group_159" transform="translate(98.142 100.324)">
				<path id="Path_179" class="st0" d="M4,4.1H0.4c-1.1,0-2-0.9-2-2c0-1.1,0.9-2,2-2H4c1.1,0,2,0.9,2,2C6,3.2,5.1,4.1,4,4.1z"/>
			</g>
			<g id="Group_160" transform="translate(83.514 151.518)">
				<path id="Path_180" class="st0" d="M3.5,5.9c-0.4,0-0.7-0.1-1-0.3l-3.1-1.8C-1.6,3.3-2,2-1.4,1s1.8-1.3,2.8-0.8c0,0,0,0,0,0
					l3.1,1.8c1,0.6,1.3,1.8,0.7,2.8C4.9,5.5,4.2,5.9,3.5,5.9z"/>
			</g>
			<g id="Group_161" transform="translate(49.201 186.04)">
				<path id="Path_181" class="st0" d="M2.2,7.2c-0.7,0-1.4-0.4-1.8-1l-1.8-3.1c-0.5-1-0.2-2.2,0.8-2.8c1-0.5,2.2-0.2,2.7,0.7
					l1.8,3.1c0.6,1,0.2,2.2-0.8,2.8C2.9,7.1,2.5,7.2,2.2,7.2L2.2,7.2z"/>
			</g>
			<g id="Group_162" transform="translate(0.113)">
				<path id="Path_182" class="st0" d="M0.4,0c1.1,0,2,0.9,2,2v3.6c0,1.1-0.9,2-2,2s-2-0.9-2-2c0,0,0,0,0,0V2C-1.7,0.9-0.8,0,0.4,0z
					"/>
			</g>
		</g>
		<g id="Group_164" transform="translate(0 19.709)">
			<path id="Path_183" class="st0" d="M-1.5,57C13.2,13.2,60.7-10.4,104.5,4.4s67.4,62.3,52.6,106.1
				c-14.8,43.8-62.3,67.4-106.1,52.6c-24.9-8.4-44.5-28-52.7-53l4.3,0c14.5,41.5,60,63.4,101.5,48.9s63.4-60,48.9-101.5
				C138.4,15.9,93-6,51.5,8.6C28.8,16.5,10.9,34.3,2.8,56.9L-1.5,57z"/>
		</g>
		<path id="Path_184" class="st0" d="M78.1,40.8v16.3c25.6,0,46.3,20.7,46.3,46.3c0,25.6-20.7,46.3-46.3,46.3V166
			c34.6,0,62.6-28,62.6-62.6C140.8,68.9,112.8,40.8,78.1,40.8C78.2,40.8,78.2,40.8,78.1,40.8L78.1,40.8z"/>
	</g>
	<g class="st1">
		<path class="st0" d="M19.7,99.5c1.6,0.8,2.8,1.9,3.7,3.3s1.4,3.1,1.4,4.9c0,2-0.5,3.8-1.5,5.3s-2.4,2.7-4.1,3.5
			c-1.7,0.8-3.7,1.2-5.8,1.2c-4.2,0-7.5-1.3-9.9-3.9c-2.4-2.6-3.6-6.3-3.6-11.1c0-3.4,0.6-6.3,1.9-8.8s3.1-4.3,5.4-5.5s5-1.9,8-1.9
			c1.6,0,3.1,0.2,4.6,0.5c1.5,0.4,2.7,0.9,3.8,1.5l-2.6,5.1c-1.5-1-3.4-1.5-5.6-1.5c-2.6,0-4.6,0.7-6.1,2.2C8,96,7.2,98.2,7.1,101
			c1.8-1.8,4.3-2.7,7.4-2.7C16.4,98.4,18.2,98.7,19.7,99.5z M16.7,111.3c0.9-0.8,1.4-1.9,1.4-3.3s-0.5-2.5-1.4-3.3
			c-0.9-0.8-2.2-1.2-3.7-1.2c-1.5,0-2.8,0.4-3.7,1.3c-1,0.8-1.5,1.9-1.5,3.2c0,1.3,0.5,2.4,1.4,3.2c0.9,0.8,2.2,1.2,3.9,1.2
			C14.6,112.5,15.8,112.1,16.7,111.3z"/>
		<path class="st0" d="M69.1,87.1v30.1h-7v-12.3H48.4v12.3h-7V87.1h7V99h13.7V87.1H69.1z"/>
		<path class="st0" d="M82.3,115.7c-2.5-1.3-4.5-3.2-5.9-5.6c-1.4-2.4-2.1-5-2.1-8c0-3,0.7-5.6,2.1-8s3.4-4.2,5.9-5.6
			c2.5-1.3,5.3-2,8.4-2c3.1,0,5.9,0.7,8.4,2c2.5,1.3,4.5,3.2,5.9,5.6c1.4,2.4,2.2,5,2.2,8c0,3-0.7,5.6-2.2,8
			c-1.4,2.4-3.4,4.2-5.9,5.6c-2.5,1.3-5.3,2-8.4,2C87.6,117.7,84.8,117.1,82.3,115.7z M95.6,110.6c1.4-0.8,2.6-2,3.4-3.4
			c0.8-1.5,1.2-3.1,1.2-5s-0.4-3.5-1.2-5s-1.9-2.6-3.4-3.4c-1.4-0.8-3-1.2-4.8-1.2c-1.8,0-3.4,0.4-4.8,1.2c-1.4,0.8-2.6,2-3.4,3.4
			s-1.2,3.1-1.2,5s0.4,3.5,1.2,5c0.8,1.5,1.9,2.6,3.4,3.4c1.4,0.8,3,1.2,4.8,1.2C92.5,111.8,94.2,111.4,95.6,110.6z"/>
		<path class="st0" d="M115.8,114.2c-2.4-2.4-3.6-5.8-3.6-10.2V87.1h7v16.6c0,5.4,2.2,8.1,6.7,8.1c2.2,0,3.8-0.7,5-2
			c1.1-1.3,1.7-3.3,1.7-6.1V87.1h6.9V104c0,4.4-1.2,7.8-3.6,10.2c-2.4,2.4-5.7,3.6-10,3.6C121.6,117.7,118.2,116.6,115.8,114.2z"/>
		<path class="st0" d="M165.5,117.2l-5.8-8.4h-0.3h-6.1v8.4h-7V87.1h13c2.7,0,5,0.4,6.9,1.3s3.5,2.1,4.5,3.8
			c1.1,1.6,1.6,3.6,1.6,5.8c0,2.2-0.5,4.2-1.6,5.8c-1.1,1.6-2.6,2.9-4.6,3.7l6.8,9.7H165.5z M163.8,94.2c-1.1-0.9-2.7-1.4-4.8-1.4
			h-5.7v10.5h5.7c2.1,0,3.7-0.5,4.8-1.4c1.1-0.9,1.6-2.2,1.6-3.9C165.4,96.4,164.9,95.1,163.8,94.2z"/>
		<path class="st0" d="M181,116.8c-2.2-0.6-4-1.5-5.4-2.5l2.4-5.2c1.3,0.9,2.8,1.7,4.6,2.3c1.8,0.6,3.6,0.9,5.3,0.9
			c2,0,3.4-0.3,4.4-0.9s1.4-1.4,1.4-2.3c0-0.7-0.3-1.3-0.8-1.8c-0.6-0.5-1.3-0.9-2.1-1.1c-0.9-0.3-2.1-0.6-3.5-0.9
			c-2.3-0.5-4.2-1.1-5.6-1.6s-2.7-1.4-3.8-2.6c-1-1.2-1.6-2.8-1.6-4.8c0-1.7,0.5-3.3,1.4-4.8s2.4-2.5,4.3-3.4c1.9-0.8,4.2-1.2,7-1.2
			c1.9,0,3.8,0.2,5.6,0.7c1.8,0.5,3.4,1.1,4.8,2l-2.1,5.3c-2.8-1.6-5.6-2.4-8.3-2.4c-2,0-3.4,0.3-4.3,0.9c-0.9,0.6-1.4,1.5-1.4,2.5
			s0.5,1.8,1.6,2.3c1.1,0.5,2.7,1,4.9,1.5c2.3,0.5,4.2,1.1,5.6,1.6c1.5,0.5,2.7,1.4,3.8,2.6c1,1.2,1.6,2.8,1.6,4.8
			c0,1.7-0.5,3.3-1.4,4.7c-1,1.4-2.4,2.5-4.3,3.4c-1.9,0.8-4.3,1.2-7,1.2C185.5,117.7,183.2,117.4,181,116.8z"/>
	</g>
	<g class="st1">
		<path class="st2" d="M0,73h1v8.3h5.1v0.8H0V73z"/>
		<path class="st2" d="M13.4,79.6H8.4l-1.1,2.4h-1l4.2-9.1h0.9l4.2,9.1h-1L13.4,79.6z M13.1,78.8L10.9,74l-2.2,4.9H13.1z"/>
		<path class="st2" d="M17.6,81.8c-0.6-0.2-1.1-0.5-1.4-0.9l0.4-0.7c0.3,0.3,0.8,0.6,1.3,0.8c0.5,0.2,1.1,0.3,1.7,0.3
			c0.8,0,1.4-0.1,1.8-0.4c0.4-0.3,0.6-0.7,0.6-1.2c0-0.4-0.1-0.7-0.3-0.9s-0.5-0.4-0.8-0.5c-0.3-0.1-0.8-0.2-1.3-0.4
			c-0.7-0.2-1.2-0.3-1.6-0.5s-0.8-0.4-1-0.7c-0.3-0.3-0.4-0.8-0.4-1.3c0-0.5,0.1-0.9,0.4-1.3s0.6-0.7,1.1-0.9
			c0.5-0.2,1.1-0.3,1.9-0.3c0.5,0,1,0.1,1.5,0.2c0.5,0.1,0.9,0.3,1.3,0.6l-0.3,0.8c-0.4-0.3-0.8-0.4-1.2-0.6
			c-0.4-0.1-0.9-0.2-1.3-0.2c-0.8,0-1.4,0.2-1.8,0.5c-0.4,0.3-0.6,0.7-0.6,1.2c0,0.4,0.1,0.7,0.3,0.9c0.2,0.2,0.5,0.4,0.8,0.5
			s0.8,0.2,1.3,0.4c0.7,0.2,1.2,0.3,1.6,0.5c0.4,0.2,0.8,0.4,1,0.7s0.4,0.8,0.4,1.3c0,0.5-0.1,0.9-0.4,1.3s-0.6,0.7-1.1,0.9
			c-0.5,0.2-1.1,0.3-1.9,0.3C18.9,82.1,18.2,82,17.6,81.8z"/>
		<path class="st2" d="M26.7,73.8h-3.2V73h7.4v0.8h-3.2v8.3h-1V73.8z"/>
		<path class="st2" d="M32.8,81.8c-0.6-0.2-1.1-0.5-1.4-0.9l0.4-0.7c0.3,0.3,0.8,0.6,1.3,0.8c0.5,0.2,1.1,0.3,1.7,0.3
			c0.8,0,1.4-0.1,1.8-0.4c0.4-0.3,0.6-0.7,0.6-1.2c0-0.4-0.1-0.7-0.3-0.9s-0.5-0.4-0.8-0.5c-0.3-0.1-0.8-0.2-1.3-0.4
			c-0.7-0.2-1.2-0.3-1.6-0.5s-0.8-0.4-1-0.7c-0.3-0.3-0.4-0.8-0.4-1.3c0-0.5,0.1-0.9,0.4-1.3s0.6-0.7,1.1-0.9
			c0.5-0.2,1.1-0.3,1.9-0.3c0.5,0,1,0.1,1.5,0.2c0.5,0.1,0.9,0.3,1.3,0.6l-0.3,0.8c-0.4-0.3-0.8-0.4-1.2-0.6
			c-0.4-0.1-0.9-0.2-1.3-0.2c-0.8,0-1.4,0.2-1.8,0.5c-0.4,0.3-0.6,0.7-0.6,1.2c0,0.4,0.1,0.7,0.3,0.9c0.2,0.2,0.5,0.4,0.8,0.5
			s0.8,0.2,1.3,0.4c0.7,0.2,1.2,0.3,1.6,0.5c0.4,0.2,0.8,0.4,1,0.7s0.4,0.8,0.4,1.3c0,0.5-0.1,0.9-0.4,1.3s-0.6,0.7-1.1,0.9
			c-0.5,0.2-1.1,0.3-1.9,0.3C34.1,82.1,33.4,82,32.8,81.8z"/>
		<path class="st2" d="M44.5,81.1c-0.7-0.7-1-1.7-1-3V73h1v5.2c0,1.1,0.2,1.8,0.7,2.4c0.5,0.5,1.2,0.8,2.1,0.8
			c0.9,0,1.6-0.3,2.1-0.8c0.5-0.5,0.7-1.3,0.7-2.4V73H51v5.2c0,1.3-0.3,2.3-1,3c-0.7,0.7-1.6,1-2.7,1S45.2,81.8,44.5,81.1z"/>
		<path class="st2" d="M60.1,73.8c0.7,0.6,1,1.3,1,2.3c0,1-0.3,1.7-1,2.3c-0.7,0.5-1.6,0.8-2.7,0.8h-2.4v2.9h-1V73h3.4
			C58.5,73,59.4,73.2,60.1,73.8z M59.4,77.7c0.5-0.4,0.7-1,0.7-1.7c0-0.7-0.2-1.3-0.7-1.7c-0.5-0.4-1.2-0.6-2.1-0.6h-2.4v4.5h2.4
			C58.2,78.3,58.9,78.1,59.4,77.7z"/>
		<path class="st2" d="M68.4,73.8h-3.2V73h7.4v0.8h-3.2v8.3h-1V73.8z"/>
		<path class="st2" d="M75.5,81.5c-0.7-0.4-1.3-1-1.7-1.7c-0.4-0.7-0.6-1.5-0.6-2.4s0.2-1.7,0.6-2.4s1-1.3,1.7-1.7
			c0.7-0.4,1.5-0.6,2.5-0.6s1.7,0.2,2.4,0.6s1.3,1,1.7,1.7c0.4,0.7,0.6,1.5,0.6,2.4s-0.2,1.7-0.6,2.4c-0.4,0.7-1,1.3-1.7,1.7
			c-0.7,0.4-1.5,0.6-2.4,0.6S76.3,81.9,75.5,81.5z M79.9,80.8c0.6-0.3,1-0.8,1.4-1.4s0.5-1.2,0.5-1.9s-0.2-1.4-0.5-1.9
			s-0.8-1-1.4-1.4c-0.6-0.3-1.2-0.5-2-0.5s-1.4,0.2-2,0.5c-0.6,0.3-1,0.8-1.4,1.4s-0.5,1.2-0.5,1.9s0.2,1.4,0.5,1.9s0.8,1,1.4,1.4
			s1.2,0.5,2,0.5S79.3,81.1,79.9,80.8z"/>
	</g>
</g>
</svg>
