<?xml version="1.0" encoding="utf-8"?>
<!-- Generator: Adobe Illustrator 23.1.0, SVG Export Plug-In . SVG Version: 6.00 Build 0)  -->
<svg version="1.1" id="Layer_1" xmlns="http://www.w3.org/2000/svg" xmlns:xlink="http://www.w3.org/1999/xlink" x="0px" y="0px"
	 viewBox="0 0 260.9 182.5" style="enable-background:new 0 0 260.9 182.5;" xml:space="preserve">
<style type="text/css">
	.st0{enable-background:new    ;}
	.st1{fill:#FFFFFF;}
	.st2{fill:#F0EA4A;}
</style>
<g class="st0">
	<path class="st1" d="M101.5,94c2.8,3,4.1,7.3,4.1,12.9c0,4-0.7,7.4-2.2,10.2c-1.5,2.8-3.6,5-6.3,6.5c-2.7,1.5-5.8,2.2-9.4,2.2
		c-1.9,0-3.6-0.2-5.3-0.6c-1.7-0.4-3.2-1-4.4-1.8l3-6c1.7,1.2,3.9,1.8,6.5,1.8c3,0,5.3-0.9,7.1-2.6c1.7-1.8,2.7-4.3,2.8-7.6
		c-2.1,2.1-5,3.2-8.7,3.2c-2.2,0-4.3-0.5-6.1-1.4c-1.8-0.9-3.3-2.2-4.4-3.8c-1.1-1.7-1.6-3.6-1.6-5.7c0-2.3,0.6-4.4,1.8-6.1
		c1.2-1.8,2.8-3.1,4.8-4.1s4.3-1.4,6.7-1.4C94.9,89.5,98.8,91,101.5,94z M95,104.5c1.1-1,1.7-2.2,1.7-3.8S96.1,98,95,97
		s-2.6-1.5-4.5-1.5c-1.7,0-3.1,0.5-4.2,1.4s-1.6,2.2-1.6,3.8c0,1.6,0.5,2.9,1.6,3.8c1.1,1,2.5,1.4,4.3,1.4
		C92.4,106,93.8,105.5,95,104.5z"/>
	<path class="st1" d="M116.8,123.6c-2.3-1.4-4-3.5-5.3-6.2s-1.9-6-1.9-9.7c0-3.8,0.6-7,1.9-9.7s3.1-4.8,5.3-6.2
		c2.3-1.4,4.8-2.1,7.8-2.1c2.9,0,5.5,0.7,7.8,2.1s4,3.5,5.3,6.2s1.9,6,1.9,9.7c0,3.8-0.6,7-1.9,9.7c-1.3,2.7-3.1,4.8-5.3,6.2
		c-2.3,1.4-4.9,2.1-7.8,2.1C121.7,125.7,119.1,125,116.8,123.6z M129.6,116.1c1.2-1.8,1.8-4.7,1.8-8.5s-0.6-6.7-1.8-8.5
		s-2.9-2.8-5-2.8s-3.8,0.9-5,2.8c-1.2,1.8-1.8,4.7-1.8,8.5s0.6,6.7,1.8,8.5c1.2,1.8,2.9,2.8,5,2.8
		C126.7,118.9,128.4,118,129.6,116.1z"/>
	<path class="st1" d="M145.4,106.4c-1.6-1.8-2.4-4.1-2.4-7s0.8-5.3,2.4-7c1.6-1.8,3.7-2.6,6.3-2.6s4.7,0.9,6.3,2.6
		c1.6,1.8,2.4,4.1,2.4,7s-0.8,5.3-2.4,7c-1.6,1.8-3.7,2.6-6.3,2.6C149.1,109,147,108.1,145.4,106.4z M154.3,103.5
		c0.6-0.9,1-2.3,1-4.2c0-1.8-0.3-3.2-1-4.2c-0.6-0.9-1.5-1.4-2.7-1.4c-1.1,0-2,0.5-2.6,1.4c-0.7,1-1,2.3-1,4.1s0.3,3.2,1,4.1
		c0.7,1,1.6,1.4,2.6,1.4C152.8,104.9,153.7,104.5,154.3,103.5z M172.5,90.1h6l-23.9,35h-6L172.5,90.1z M170.9,124.3
		c-1.3-0.8-2.3-1.9-3.1-3.4c-0.7-1.5-1.1-3.2-1.1-5.1s0.4-3.6,1.1-5.1c0.7-1.5,1.8-2.6,3.1-3.4s2.8-1.2,4.5-1.2
		c2.6,0,4.7,0.9,6.3,2.6c1.6,1.8,2.4,4.1,2.4,7s-0.8,5.3-2.4,7c-1.6,1.8-3.7,2.6-6.3,2.6C173.7,125.5,172.2,125.1,170.9,124.3z
		 M178.1,120c0.6-1,1-2.3,1-4.1s-0.3-3.2-1-4.1s-1.5-1.4-2.7-1.4c-1.1,0-2,0.5-2.6,1.4c-0.7,0.9-1,2.3-1,4.2c0,1.8,0.3,3.2,1,4.2
		c0.7,0.9,1.6,1.4,2.6,1.4C176.5,121.4,177.4,120.9,178.1,120z"/>
</g>
<g class="st0">
	<path class="st2" d="M13.4,182.5v-8.3L9.3,181H7.8l-4.1-6.6v8.1h-3v-13.8h2.6l5.2,8.6l5.1-8.6h2.6v13.8H13.4z"/>
	<path class="st2" d="M30.4,179.9v2.6H19.7v-13.8h10.5v2.6h-7.3v3h6.4v2.5h-6.4v3.2h7.5V179.9z"/>
	<path class="st2" d="M42.1,179.5h-6.4l-1.2,3h-3.3l6.2-13.8h3.2l6.2,13.8h-3.4L42.1,179.5z M41,177.1l-2.2-5.3l-2.2,5.3H41z"/>
	<path class="st2" d="M60.8,168.7v13.8h-2.6l-6.9-8.4v8.4h-3.2v-13.8h2.6l6.9,8.4v-8.4H60.8z"/>
	<path class="st2" d="M65.4,182.3c-1-0.3-1.8-0.7-2.5-1.2l1.1-2.4c0.6,0.4,1.3,0.8,2.1,1c0.8,0.3,1.6,0.4,2.5,0.4s1.6-0.1,2-0.4
		s0.7-0.6,0.7-1.1c0-0.3-0.1-0.6-0.4-0.8s-0.6-0.4-1-0.5s-0.9-0.3-1.6-0.4c-1.1-0.2-1.9-0.5-2.6-0.7s-1.2-0.6-1.7-1.2
		c-0.5-0.6-0.7-1.3-0.7-2.2c0-0.8,0.2-1.5,0.7-2.2c0.4-0.6,1.1-1.2,2-1.5c0.9-0.4,1.9-0.6,3.2-0.6c0.9,0,1.7,0.1,2.6,0.3
		c0.8,0.2,1.6,0.5,2.2,0.9l-1,2.4c-1.3-0.7-2.6-1.1-3.8-1.1c-0.9,0-1.6,0.1-2,0.4c-0.4,0.3-0.6,0.7-0.6,1.1c0,0.5,0.2,0.8,0.7,1.1
		c0.5,0.2,1.2,0.5,2.3,0.7c1.1,0.2,1.9,0.5,2.6,0.7s1.2,0.6,1.7,1.2c0.5,0.5,0.7,1.3,0.7,2.2c0,0.8-0.2,1.5-0.7,2.2
		c-0.4,0.6-1.1,1.2-2,1.5c-0.9,0.4-2,0.6-3.2,0.6C67.5,182.7,66.5,182.6,65.4,182.3z"/>
	<path class="st2" d="M94.9,182.5v-8.3l-4.1,6.8h-1.4l-4.1-6.6v8.1h-3v-13.8h2.6l5.2,8.6l5.1-8.6h2.6v13.8H94.9z"/>
	<path class="st2" d="M104,181.8c-1.2-0.6-2.1-1.5-2.7-2.5c-0.7-1.1-1-2.3-1-3.6c0-1.4,0.3-2.6,1-3.6c0.7-1.1,1.6-1.9,2.7-2.5
		c1.2-0.6,2.4-0.9,3.9-0.9c1.4,0,2.7,0.3,3.9,0.9c1.1,0.6,2,1.5,2.7,2.5c0.7,1.1,1,2.3,1,3.6c0,1.4-0.3,2.6-1,3.6
		c-0.7,1.1-1.6,1.9-2.7,2.5s-2.4,0.9-3.9,0.9S105.1,182.4,104,181.8z M110.1,179.5c0.7-0.4,1.2-0.9,1.6-1.6c0.4-0.7,0.6-1.4,0.6-2.3
		c0-0.9-0.2-1.6-0.6-2.3s-0.9-1.2-1.6-1.6c-0.7-0.4-1.4-0.6-2.2-0.6c-0.8,0-1.6,0.2-2.2,0.6c-0.7,0.4-1.2,0.9-1.6,1.6
		c-0.4,0.7-0.6,1.4-0.6,2.3c0,0.9,0.2,1.6,0.6,2.3s0.9,1.2,1.6,1.6c0.7,0.4,1.4,0.6,2.2,0.6C108.7,180,109.4,179.8,110.1,179.5z"/>
	<path class="st2" d="M126.7,182.5l-2.7-3.8h-0.2H121v3.8h-3.2v-13.8h6c1.2,0,2.3,0.2,3.2,0.6c0.9,0.4,1.6,1,2.1,1.7
		s0.7,1.6,0.7,2.7s-0.2,1.9-0.7,2.6c-0.5,0.7-1.2,1.3-2.1,1.7l3.1,4.4h-3.4V182.5z M125.9,171.9c-0.5-0.4-1.2-0.6-2.2-0.6h-2.6v4.8
		h2.6c1,0,1.7-0.2,2.2-0.6s0.8-1,0.8-1.8C126.6,172.9,126.4,172.4,125.9,171.9z"/>
	<path class="st2" d="M143.1,179.9v2.6h-10.7v-13.8h10.5v2.6h-7.3v3h6.4v2.5h-6.4v3.2h7.5V179.9z"/>
	<path class="st2" d="M162,179.9v2.6h-10.7v-13.8h10.5v2.6h-7.3v3h6.4v2.5h-6.4v3.2h7.5V179.9z"/>
	<path class="st2" d="M167.7,171.3v3.6h6.4v2.6h-6.4v5h-3.2v-13.8H175v2.6L167.7,171.3L167.7,171.3z"/>
	<path class="st2" d="M180.4,171.3v3.6h6.4v2.6h-6.4v5h-3.2v-13.8h10.5v2.6L180.4,171.3L180.4,171.3z"/>
	<path class="st2" d="M200.5,179.9v2.6h-10.7v-13.8h10.5v2.6H193v3h6.4v2.5H193v3.2h7.5V179.9z"/>
	<path class="st2" d="M205.8,181.8c-1.1-0.6-2-1.5-2.7-2.5c-0.7-1.1-1-2.3-1-3.7s0.3-2.6,1-3.7c0.7-1.1,1.5-1.9,2.7-2.5
		c1.1-0.6,2.4-0.9,3.8-0.9c1.2,0,2.3,0.2,3.3,0.6s1.8,1,2.4,1.8l-2.1,1.9c-0.9-1.1-2.1-1.6-3.5-1.6c-0.9,0-1.6,0.2-2.3,0.6
		c-0.7,0.4-1.2,0.9-1.6,1.6c-0.4,0.7-0.6,1.4-0.6,2.3c0,0.9,0.2,1.6,0.6,2.3c0.4,0.7,0.9,1.2,1.6,1.6c0.7,0.4,1.4,0.6,2.3,0.6
		c1.4,0,2.5-0.5,3.5-1.6l2.1,1.9c-0.7,0.8-1.5,1.4-2.5,1.8c-1,0.4-2.1,0.6-3.3,0.6C208.2,182.7,207,182.4,205.8,181.8z"/>
	<path class="st2" d="M220.2,171.3h-4.4v-2.6h12.1v2.6h-4.4v11.2h-3.2v-11.2H220.2z"/>
	<path class="st2" d="M229.6,168.7h3.2v13.8h-3.2V168.7z"/>
	<path class="st2" d="M249.3,168.7l-6,13.8h-3.2l-6-13.8h3.5l4.2,9.8l4.3-9.8H249.3z"/>
	<path class="st2" d="M261.2,179.9v2.6h-10.7v-13.8H261v2.6h-7.3v3h6.4v2.5h-6.4v3.2h7.5V179.9z"/>
</g>
<g class="st0">
	<path class="st1" d="M21.2,157.9H9.1l-2.3,5.6H0.6l11.7-26.2h6L30,163.5h-6.4L21.2,157.9z M19.3,153.3l-4.1-10l-4.1,10H19.3z"/>
	<path class="st1" d="M55.3,152.3c0.8,1.1,1.3,2.5,1.3,4.1c0,2.3-0.9,4.1-2.7,5.3s-4.4,1.8-7.8,1.8H32.6v-26.2h12.8
		c3.2,0,5.6,0.6,7.3,1.8s2.6,2.9,2.6,5c0,1.3-0.3,2.4-0.9,3.4c-0.6,1-1.5,1.8-2.6,2.4C53.3,150.4,54.5,151.2,55.3,152.3z M38.6,142
		v6.2h6c1.5,0,2.6-0.3,3.4-0.8c0.8-0.5,1.2-1.3,1.2-2.3s-0.4-1.8-1.2-2.3s-1.9-0.8-3.4-0.8L38.6,142L38.6,142z M49.3,158.2
		c0.8-0.5,1.2-1.3,1.2-2.4c0-2.2-1.6-3.3-4.8-3.3h-7.1v6.5h7.1C47.3,159,48.5,158.7,49.3,158.2z"/>
	<path class="st1" d="M63.8,163.2c-1.9-0.6-3.5-1.3-4.7-2.2l2.1-4.6c1.1,0.8,2.5,1.5,4,2s3.1,0.7,4.6,0.7c1.7,0,3-0.3,3.8-0.8
		s1.2-1.2,1.2-2c0-0.6-0.2-1.1-0.7-1.6c-0.5-0.4-1.1-0.7-1.9-1c-0.8-0.2-1.8-0.5-3.1-0.8c-2-0.5-3.6-0.9-4.9-1.4
		c-1.3-0.5-2.4-1.2-3.3-2.3c-0.9-1-1.4-2.4-1.4-4.2c0-1.5,0.4-2.9,1.2-4.1c0.8-1.2,2.1-2.2,3.7-2.9c1.7-0.7,3.7-1.1,6.1-1.1
		c1.7,0,3.3,0.2,4.9,0.6c1.6,0.4,3,1,4.2,1.7l-1.9,4.6c-2.4-1.4-4.8-2.1-7.2-2.1c-1.7,0-2.9,0.3-3.8,0.8c-0.8,0.5-1.2,1.3-1.2,2.2
		s0.5,1.6,1.4,2s2.4,0.9,4.3,1.3c2,0.5,3.6,0.9,4.9,1.4s2.4,1.2,3.3,2.2s1.4,2.4,1.4,4.1c0,1.5-0.4,2.9-1.3,4.1
		c-0.8,1.2-2.1,2.2-3.8,2.9c-1.7,0.7-3.7,1.1-6.1,1.1C67.7,164,65.7,163.7,63.8,163.2z"/>
	<path class="st1" d="M90.4,162.2c-2.2-1.2-3.9-2.8-5.1-4.8c-1.2-2.1-1.8-4.4-1.8-6.9s0.6-4.9,1.8-6.9c1.2-2.1,2.9-3.7,5.1-4.8
		c2.2-1.2,4.6-1.8,7.3-1.8c2.7,0,5.2,0.6,7.3,1.8c2.2,1.2,3.9,2.8,5.1,4.8c1.2,2.1,1.9,4.4,1.9,6.9s-0.6,4.9-1.9,6.9
		c-1.2,2.1-3,3.7-5.1,4.8c-2.2,1.2-4.6,1.8-7.3,1.8S92.5,163.4,90.4,162.2z M101.9,157.8c1.2-0.7,2.2-1.7,2.9-3
		c0.7-1.3,1.1-2.7,1.1-4.3s-0.4-3.1-1.1-4.3c-0.7-1.3-1.7-2.3-2.9-3c-1.2-0.7-2.6-1.1-4.2-1.1c-1.5,0-2.9,0.4-4.2,1.1
		c-1.2,0.7-2.2,1.7-2.9,3c-0.7,1.3-1.1,2.7-1.1,4.3s0.4,3.1,1.1,4.3c0.7,1.3,1.7,2.3,2.9,3c1.2,0.7,2.6,1.1,4.2,1.1
		C99.2,158.8,100.6,158.5,101.9,157.8z"/>
	<path class="st1" d="M133.2,163.5l-5-7.3h-0.3h-5.3v7.3h-6.1v-26.2h11.3c2.3,0,4.3,0.4,6,1.2s3,1.9,3.9,3.3c0.9,1.4,1.4,3.1,1.4,5
		s-0.5,3.6-1.4,5s-2.3,2.5-4,3.2l5.9,8.4h-6.4V163.5z M131.7,143.5c-0.9-0.8-2.3-1.2-4.1-1.2h-4.9v9.1h4.9c1.8,0,3.2-0.4,4.1-1.2
		s1.4-1.9,1.4-3.4C133.1,145.4,132.7,144.3,131.7,143.5z"/>
	<path class="st1" d="M161.4,138.6c1.7,0.8,3,1.9,3.9,3.3c0.9,1.4,1.4,3.1,1.4,5s-0.5,3.6-1.4,5s-2.2,2.5-3.9,3.3s-3.7,1.1-6,1.1
		h-5.3v7.2H144v-26.2h11.3C157.7,137.4,159.7,137.8,161.4,138.6z M159.2,150.2c0.9-0.8,1.4-1.9,1.4-3.3c0-1.5-0.5-2.6-1.4-3.4
		c-0.9-0.8-2.3-1.2-4.1-1.2h-4.9v9.1h4.9C156.8,151.4,158.2,151,159.2,150.2z"/>
	<path class="st1" d="M175.7,142.3h-8.4v-4.9h22.8v4.9h-8.4v21.2h-6.1L175.7,142.3L175.7,142.3z"/>
	<path class="st1" d="M193.4,137.4h6.1v26.2h-6.1V137.4z"/>
	<path class="st1" d="M211,162.2c-2.2-1.2-3.9-2.8-5.1-4.8c-1.2-2.1-1.8-4.4-1.8-6.9s0.6-4.9,1.8-6.9c1.2-2.1,2.9-3.7,5.1-4.8
		c2.2-1.2,4.6-1.8,7.3-1.8s5.2,0.6,7.3,1.8c2.2,1.2,3.9,2.8,5.1,4.8c1.2,2.1,1.9,4.4,1.9,6.9s-0.6,4.9-1.9,6.9
		c-1.2,2.1-3,3.7-5.1,4.8c-2.2,1.2-4.6,1.8-7.3,1.8S213.2,163.4,211,162.2z M222.5,157.8c1.2-0.7,2.2-1.7,2.9-3s1.1-2.7,1.1-4.3
		s-0.4-3.1-1.1-4.3c-0.7-1.3-1.7-2.3-2.9-3s-2.6-1.1-4.2-1.1c-1.5,0-2.9,0.4-4.2,1.1c-1.2,0.7-2.2,1.7-2.9,3s-1.1,2.7-1.1,4.3
		s0.4,3.1,1.1,4.3c0.7,1.3,1.7,2.3,2.9,3s2.6,1.1,4.2,1.1C219.9,158.8,221.3,158.5,222.5,157.8z"/>
	<path class="st1" d="M261.2,137.4v26.2h-5l-13-15.9v15.9h-6v-26.2h5l13,15.9v-15.9H261.2z"/>
</g>
<g>
	<path class="st2" d="M199.3,21.7c0.5-0.9,0.3-2-0.6-2.5C179.7,7.5,157.9,0.9,135.5,0c-0.5,0-1,0.2-1.3,0.5
		c-0.4,0.3-0.6,0.8-0.6,1.3L132.4,56c0,1,0.7,1.8,1.7,1.9c11.7,0.6,23,4,33.1,10c0.3,0.2,0.6,0.3,0.9,0.3c0.6,0,1.2-0.3,1.5-0.8
		L199.3,21.7L199.3,21.7z"/>
	<path class="st2" d="M247.6,77.3c0.9-0.4,1.3-1.5,0.9-2.4c-9.4-19.9-23.5-37-41.3-50c-0.4-0.3-0.9-0.4-1.4-0.3s-0.9,0.3-1.2,0.7
		l-31.5,44.1c-0.6,0.8-0.4,1.9,0.4,2.5c9.2,6.9,16.7,15.8,21.9,26.1c0.3,0.6,0.9,1,1.6,1c0.3,0,0.5-0.1,0.7-0.2L247.6,77.3
		L247.6,77.3z"/>
	<path class="st2" d="M126.6,0.5c-0.4-0.3-0.8-0.5-1.3-0.5c-21.8,0.8-43.6,6.9-61.4,17l-0.1,0.1c-0.8,0.6-1,1.7-0.5,2.5l31.5,45.5
		c0.3,0.5,0.9,0.8,1.5,0.8c0.3,0,0.6-0.1,0.8-0.2c9.2-4.8,19.2-7.5,29.5-8c1-0.1,1.8-0.9,1.7-1.9l-1.2-54.2
		C127.2,1.3,127,0.8,126.6,0.5z"/>
	<path class="st2" d="M252.5,84.4L252.5,84.4c-0.4-0.9-1.4-1.4-2.4-1.1l-50.6,19.3c-0.9,0.4-1.4,1.4-1.1,2.3
		c3,8.1,4.6,16.7,4.6,25.4l0,0c0,1,0.8,1.8,1.8,1.8H259l0,0c1,0,1.8-0.8,1.8-1.8C260.9,114.6,258.1,99.1,252.5,84.4z M206.7,128.5
		c-0.2-7.9-1.6-15.7-4.2-23.1l47.2-18c4.7,13.2,7.3,27.1,7.5,41.1H206.7z"/>
	<path class="st2" d="M62,100.9L11.4,81.7c-0.9-0.4-2,0.1-2.4,1C3,97.9,0,114,0,130.3l0,0c0,1,0.8,1.8,1.8,1.8H56l0,0
		c1,0,1.8-0.8,1.8-1.8c0-9.2,1.8-18.4,5.2-27l0,0C63.4,102.4,62.9,101.3,62,100.9z"/>
	<path class="st2" d="M57.6,22.9c-0.6-0.8-1.7-1-2.5-0.4C37.7,34.4,24,51,13.2,73.1v0.1c-0.4,0.9,0,2,1,2.4L64,97.1
		c0.2,0.1,0.5,0.2,0.7,0.1c0.7,0,1.3-0.4,1.6-1C72,85.5,80.4,76.4,90.5,69.7c0,0,0.1,0,0.1-0.1c0.8-0.6,1-1.8,0.4-2.6L57.6,22.9z"/>
</g>
</svg>
