<?xml version="1.0" encoding="utf-8"?>
<!-- Generator: Adobe Illustrator 23.1.0, SVG Export Plug-In . SVG Version: 6.00 Build 0)  -->
<svg version="1.1" id="Layer_1" xmlns="http://www.w3.org/2000/svg" xmlns:xlink="http://www.w3.org/1999/xlink" x="0px" y="0px"
	 viewBox="0 0 1110.6 249.5" style="enable-background:new 0 0 1110.6 249.5;" xml:space="preserve">
<style type="text/css">
	.st0{fill:#F0EA4A;}
	.st1{enable-background:new    ;}
	.st2{fill:#FFFFFF;}
	.st3{fill:#223469;}
</style>
<g>
	<path id="Path_70" class="st0" d="M595.5,0.2l19.6,47l-19.6,47l48-47L595.5,0.2z"/>
	<g class="st1">
		<path class="st0" d="M533.4,0.2l-3.2,9.7h-2.4l-2.1-6.6l-2.2,6.6h-2.4l-3.2-9.7h2.3l2.2,6.8l2.3-6.8h2.1l2.2,6.9l2.3-6.9H533.4z"
			/>
		<path class="st0" d="M536.5,9.4c-0.8-0.4-1.4-1-1.9-1.8c-0.5-0.8-0.7-1.6-0.7-2.6s0.2-1.8,0.7-2.6c0.5-0.8,1.1-1.4,1.9-1.8
			c0.8-0.4,1.7-0.7,2.7-0.7c1,0,1.9,0.2,2.7,0.7c0.8,0.4,1.4,1,1.9,1.8c0.5,0.8,0.7,1.6,0.7,2.6s-0.2,1.8-0.7,2.6
			c-0.5,0.8-1.1,1.4-1.9,1.8c-0.8,0.4-1.7,0.7-2.7,0.7C538.2,10.1,537.3,9.8,536.5,9.4z M540.8,7.7c0.5-0.3,0.8-0.6,1.1-1.1
			s0.4-1,0.4-1.6s-0.1-1.1-0.4-1.6c-0.3-0.5-0.6-0.8-1.1-1.1s-1-0.4-1.6-0.4c-0.6,0-1.1,0.1-1.6,0.4c-0.5,0.3-0.8,0.6-1.1,1.1
			c-0.3,0.5-0.4,1-0.4,1.6s0.1,1.1,0.4,1.6c0.3,0.5,0.6,0.8,1.1,1.1c0.5,0.3,1,0.4,1.6,0.4C539.8,8.1,540.3,8,540.8,7.7z"/>
		<path class="st0" d="M552.4,9.9l-1.9-2.7h-0.1h-2v2.7h-2.2V0.2h4.2c0.9,0,1.6,0.1,2.2,0.4c0.6,0.3,1.1,0.7,1.5,1.2
			c0.3,0.5,0.5,1.2,0.5,1.9s-0.2,1.3-0.5,1.9c-0.3,0.5-0.8,0.9-1.5,1.2l2.2,3.1H552.4z M551.9,2.4C551.5,2.1,551,2,550.3,2h-1.8v3.4
			h1.8c0.7,0,1.2-0.1,1.5-0.4c0.4-0.3,0.5-0.7,0.5-1.2C552.4,3.1,552.2,2.7,551.9,2.4z"/>
		<path class="st0" d="M560,6.1l-1.3,1.4v2.5h-2.2V0.2h2.2v4.5l4.3-4.5h2.5l-4,4.3l4.3,5.4h-2.6L560,6.1z"/>
		<path class="st0" d="M567.5,9.7c-0.7-0.2-1.3-0.5-1.7-0.8l0.8-1.7c0.4,0.3,0.9,0.6,1.5,0.7c0.6,0.2,1.1,0.3,1.7,0.3
			c0.6,0,1.1-0.1,1.4-0.3c0.3-0.2,0.5-0.4,0.5-0.8c0-0.2-0.1-0.4-0.3-0.6c-0.2-0.2-0.4-0.3-0.7-0.4c-0.3-0.1-0.7-0.2-1.1-0.3
			c-0.7-0.2-1.3-0.4-1.8-0.5c-0.5-0.2-0.9-0.5-1.2-0.8C566.1,4.2,566,3.7,566,3c0-0.6,0.2-1.1,0.5-1.5c0.3-0.5,0.8-0.8,1.4-1.1
			c0.6-0.3,1.4-0.4,2.3-0.4c0.6,0,1.2,0.1,1.8,0.2c0.6,0.1,1.1,0.4,1.6,0.6l-0.7,1.7c-0.9-0.5-1.8-0.8-2.7-0.8
			c-0.6,0-1.1,0.1-1.4,0.3c-0.3,0.2-0.5,0.5-0.5,0.8c0,0.3,0.2,0.6,0.5,0.7c0.3,0.2,0.9,0.3,1.6,0.5c0.7,0.2,1.3,0.4,1.8,0.5
			c0.5,0.2,0.9,0.5,1.2,0.8c0.3,0.4,0.5,0.9,0.5,1.5c0,0.6-0.2,1.1-0.5,1.5c-0.3,0.5-0.8,0.8-1.4,1.1c-0.6,0.3-1.4,0.4-2.3,0.4
			C568.9,10.1,568.2,9.9,567.5,9.7z"/>
		<path class="st0" d="M579.3,0.2h2.2v9.7h-2.2V0.2z"/>
		<path class="st0" d="M592.8,0.2v9.7h-1.8L586.1,4v5.9h-2.2V0.2h1.9l4.8,5.9V0.2H592.8z"/>
	</g>
	<g class="st1">
		<path class="st0" d="M524.8,19.9h-4.1l-0.8,1.9h-2.1l3.9-8.8h2l3.9,8.8h-2.1L524.8,19.9z M524.1,18.3l-1.4-3.4l-1.4,3.4H524.1z"/>
		<path class="st0" d="M529.5,21.6c-0.6-0.2-1.2-0.4-1.6-0.7l0.7-1.5c0.4,0.3,0.8,0.5,1.3,0.7s1,0.3,1.6,0.3c0.6,0,1-0.1,1.3-0.3
			c0.3-0.2,0.4-0.4,0.4-0.7c0-0.2-0.1-0.4-0.2-0.5c-0.2-0.1-0.4-0.2-0.6-0.3c-0.3-0.1-0.6-0.2-1-0.3c-0.7-0.2-1.2-0.3-1.6-0.5
			c-0.4-0.2-0.8-0.4-1.1-0.8c-0.3-0.4-0.5-0.8-0.5-1.4c0-0.5,0.1-1,0.4-1.4c0.3-0.4,0.7-0.7,1.2-1c0.6-0.2,1.2-0.4,2-0.4
			c0.6,0,1.1,0.1,1.6,0.2c0.5,0.1,1,0.3,1.4,0.6l-0.6,1.5c-0.8-0.5-1.6-0.7-2.4-0.7c-0.6,0-1,0.1-1.3,0.3c-0.3,0.2-0.4,0.4-0.4,0.7
			c0,0.3,0.2,0.5,0.5,0.7c0.3,0.1,0.8,0.3,1.4,0.4c0.7,0.2,1.2,0.3,1.6,0.5c0.4,0.2,0.8,0.4,1.1,0.8s0.5,0.8,0.5,1.4
			c0,0.5-0.1,1-0.4,1.4c-0.3,0.4-0.7,0.7-1.3,1c-0.6,0.2-1.2,0.4-2,0.4C530.8,21.9,530.1,21.8,529.5,21.6z"/>
		<path class="st0" d="M542.2,14.6v2.3h4.1v1.6h-4.1v3.2h-2V13h6.6v1.6H542.2z"/>
		<path class="st0" d="M553.6,19.9h-4.1l-0.8,1.9h-2.1l3.9-8.8h2l3.9,8.8h-2.1L553.6,19.9z M552.9,18.3l-1.4-3.4l-1.4,3.4H552.9z"/>
		<path class="st0" d="M558.3,21.6c-0.6-0.2-1.2-0.4-1.6-0.7l0.7-1.5c0.4,0.3,0.8,0.5,1.3,0.7s1,0.3,1.6,0.3c0.6,0,1-0.1,1.3-0.3
			c0.3-0.2,0.4-0.4,0.4-0.7c0-0.2-0.1-0.4-0.2-0.5c-0.2-0.1-0.4-0.2-0.6-0.3c-0.3-0.1-0.6-0.2-1-0.3c-0.7-0.2-1.2-0.3-1.6-0.5
			c-0.4-0.2-0.8-0.4-1.1-0.8s-0.5-0.8-0.5-1.4c0-0.5,0.1-1,0.4-1.4c0.3-0.4,0.7-0.7,1.2-1c0.6-0.2,1.2-0.4,2-0.4
			c0.6,0,1.1,0.1,1.6,0.2c0.5,0.1,1,0.3,1.4,0.6l-0.6,1.5c-0.8-0.5-1.6-0.7-2.4-0.7c-0.6,0-1,0.1-1.3,0.3c-0.3,0.2-0.4,0.4-0.4,0.7
			c0,0.3,0.2,0.5,0.5,0.7c0.3,0.1,0.8,0.3,1.4,0.4c0.7,0.2,1.2,0.3,1.6,0.5c0.4,0.2,0.8,0.4,1.1,0.8c0.3,0.3,0.5,0.8,0.5,1.4
			c0,0.5-0.1,1-0.4,1.4c-0.3,0.4-0.7,0.7-1.3,1c-0.6,0.2-1.2,0.4-2,0.4C559.6,21.9,558.9,21.8,558.3,21.6z"/>
		<path class="st0" d="M567.1,14.6h-2.8V13h7.6v1.7h-2.8v7.1h-2V14.6z"/>
		<path class="st0" d="M582.3,19.9h-4.1l-0.8,1.9h-2.1l3.9-8.8h2l3.9,8.8h-2.1L582.3,19.9z M581.7,18.3l-1.4-3.4l-1.4,3.4H581.7z"/>
		<path class="st0" d="M587,21.6c-0.6-0.2-1.2-0.4-1.6-0.7l0.7-1.5c0.4,0.3,0.8,0.5,1.3,0.7s1,0.3,1.6,0.3c0.6,0,1-0.1,1.3-0.3
			c0.3-0.2,0.4-0.4,0.4-0.7c0-0.2-0.1-0.4-0.2-0.5c-0.2-0.1-0.4-0.2-0.6-0.3c-0.3-0.1-0.6-0.2-1-0.3c-0.7-0.2-1.2-0.3-1.6-0.5
			c-0.4-0.2-0.8-0.4-1.1-0.8s-0.5-0.8-0.5-1.4c0-0.5,0.1-1,0.4-1.4c0.3-0.4,0.7-0.7,1.2-1c0.6-0.2,1.2-0.4,2-0.4
			c0.6,0,1.1,0.1,1.6,0.2c0.5,0.1,1,0.3,1.4,0.6l-0.6,1.5c-0.8-0.5-1.6-0.7-2.4-0.7c-0.6,0-1,0.1-1.3,0.3c-0.3,0.2-0.4,0.4-0.4,0.7
			c0,0.3,0.2,0.5,0.5,0.7c0.3,0.1,0.8,0.3,1.4,0.4c0.7,0.2,1.2,0.3,1.6,0.5c0.4,0.2,0.8,0.4,1.1,0.8c0.3,0.3,0.5,0.8,0.5,1.4
			c0,0.5-0.1,1-0.4,1.4c-0.3,0.4-0.7,0.7-1.3,1c-0.6,0.2-1.2,0.4-2,0.4C588.4,21.9,587.7,21.8,587,21.6z"/>
	</g>
	<g class="st1">
		<path class="st2" d="M541.6,24.9v55h-12.7V35.1h-11V24.9H541.6z"/>
		<path class="st2" d="M587.2,50.2c3.7,3.1,5.5,7.2,5.5,12.4c0,3.4-0.8,6.4-2.5,9.2c-1.7,2.8-4.2,5-7.7,6.6
			c-3.4,1.7-7.7,2.5-12.7,2.5c-3.9,0-7.7-0.5-11.4-1.5c-3.7-1-6.9-2.5-9.6-4.4l5-9.7c2.1,1.6,4.5,2.8,7.2,3.7
			c2.7,0.9,5.5,1.3,8.4,1.3c3.2,0,5.7-0.6,7.5-1.9c1.8-1.3,2.8-3,2.8-5.3c0-2.4-1-4.1-2.9-5.3c-1.9-1.2-5.2-1.8-9.9-1.8H553l2.8-31
			h33.6v10.2h-23l-0.9,10.5h4.5C577.8,45.5,583.5,47.1,587.2,50.2z"/>
	</g>
	<g class="st1">
		<path class="st0" d="M528,94.1l0-6.7l-3.3,5.5h-1.2l-3.3-5.4v6.6h-2.4V82.9h2.1l4.2,7l4.1-7h2.1l0,11.2H528z"/>
		<path class="st0" d="M533.1,82.9h2.6v11.2h-2.6V82.9z"/>
		<path class="st0" d="M548.6,82.9v11.2h-2.1l-5.6-6.8v6.8h-2.6V82.9h2.1l5.6,6.8v-6.8H548.6z"/>
		<path class="st0" d="M552.5,92.9c-0.9-0.9-1.3-2.1-1.3-3.8v-6.3h2.6V89c0,2,0.8,3,2.5,3c0.8,0,1.4-0.2,1.9-0.7s0.6-1.2,0.6-2.3
			v-6.2h2.6v6.3c0,1.6-0.4,2.9-1.3,3.8c-0.9,0.9-2.1,1.3-3.7,1.3C554.7,94.3,553.4,93.8,552.5,92.9z"/>
		<path class="st0" d="M566,85h-3.6v-2.1h9.8V85h-3.6v9.1H566V85z"/>
		<path class="st0" d="M582.3,92v2.1h-8.7V82.9h8.5v2.1h-5.9v2.4h5.2v2h-5.2V92H582.3z"/>
		<path class="st0" d="M585.5,93.9c-0.8-0.2-1.5-0.6-2-0.9l0.9-2c0.5,0.4,1.1,0.6,1.7,0.8c0.7,0.2,1.3,0.3,2,0.3
			c0.7,0,1.3-0.1,1.6-0.3c0.4-0.2,0.5-0.5,0.5-0.9c0-0.3-0.1-0.5-0.3-0.7s-0.5-0.3-0.8-0.4c-0.3-0.1-0.8-0.2-1.3-0.4
			c-0.9-0.2-1.6-0.4-2.1-0.6c-0.5-0.2-1-0.5-1.4-1c-0.4-0.4-0.6-1-0.6-1.8c0-0.7,0.2-1.2,0.5-1.8c0.4-0.5,0.9-0.9,1.6-1.3
			s1.6-0.5,2.6-0.5c0.7,0,1.4,0.1,2.1,0.3s1.3,0.4,1.8,0.7l-0.8,2c-1-0.6-2.1-0.9-3.1-0.9c-0.7,0-1.3,0.1-1.6,0.4
			c-0.3,0.2-0.5,0.5-0.5,0.9s0.2,0.7,0.6,0.9s1,0.4,1.8,0.6c0.9,0.2,1.6,0.4,2.1,0.6c0.5,0.2,1,0.5,1.4,1c0.4,0.4,0.6,1,0.6,1.8
			c0,0.6-0.2,1.2-0.5,1.8c-0.4,0.5-0.9,0.9-1.6,1.3c-0.7,0.3-1.6,0.5-2.6,0.5C587.1,94.3,586.3,94.1,585.5,93.9z"/>
	</g>
	<path id="Path_142" class="st0" d="M515.1,94.3l-19.6-47l19.6-47l-48,47L515.1,94.3z"/>
</g>
<g>
	<polygon class="st3" points="1110.6,0 0,0 555.3,163.7 	"/>
</g>
<polygon class="st0" points="0,0 555.3,249.5 1110.6,0 555.3,163.7 "/>
</svg>
